<?xml version="1.0" encoding="UTF-8" standalone="no"?><!-- Generator: Gravit.io --><svg xmlns="http://www.w3.org/2000/svg" xmlns:xlink="http://www.w3.org/1999/xlink" style="isolation:isolate" viewBox="462 256 1000 1000" width="1000pt" height="1000pt"><g id="angleSquares"><path d=" M 1462 1256 L 462 1256 L 462 985.73 L 705.243 985.73 L 705.243 742.486 L 948.486 742.486 L 948.486 499.243 L 1191.73 499.243 L 1191.73 256 L 1462 256 L 1462 1256 Z " id="border" fill="rgb(255,255,255)"/><linearGradient id="_lgradient_19" x1="0.14644660940672624" y1="0.14644660940672624" x2="0.8535533905932737" y2="0.8535533905932741" gradientTransform="matrix(-945.946,0,0,-945.946,1434.973,1228.973)" gradientUnits="userSpaceOnUse"><stop offset="0%" stop-opacity="1" style="stop-color:rgb(253,191,140)"/><stop offset="100%" stop-opacity="1" style="stop-color:rgb(223,206,112)"/></linearGradient><path d=" M 1218.757 1228.973 L 1218.757 1012.757 L 1434.973 1012.757 L 1434.973 1228.973 L 1218.757 1228.973 Z  M 975.514 1228.973 L 975.514 1012.757 L 1191.73 1012.757 L 1191.73 1228.973 L 975.514 1228.973 Z  M 732.27 1228.973 L 732.27 1012.757 L 948.486 1012.757 L 948.486 1228.973 L 732.27 1228.973 Z  M 489.027 1228.973 L 489.027 1012.757 L 705.243 1012.757 L 705.243 1228.973 L 489.027 1228.973 Z  M 1218.757 985.73 L 1218.757 769.514 L 1434.973 769.514 L 1434.973 985.73 L 1218.757 985.73 Z  M 975.514 985.73 L 975.514 769.514 L 1191.73 769.514 L 1191.73 985.73 L 975.514 985.73 Z  M 732.27 985.73 L 732.27 769.514 L 948.486 769.514 L 948.486 985.73 L 732.27 985.73 Z  M 1218.757 742.486 L 1218.757 526.27 L 1434.973 526.27 L 1434.973 742.486 L 1218.757 742.486 Z  M 975.514 742.486 L 975.514 526.27 L 1191.73 526.27 L 1191.73 742.486 L 975.514 742.486 Z  M 1434.973 499.243 L 1218.757 499.243 L 1218.757 283.027 L 1434.973 283.027 L 1434.973 499.243 Z " fill-rule="evenodd" id="quadrate" fill="url(#_lgradient_19)"/></g></svg>