<?xml version="1.0" encoding="UTF-8" standalone="no"?><!-- Generator: Gravit.io --><svg xmlns="http://www.w3.org/2000/svg" xmlns:xlink="http://www.w3.org/1999/xlink" style="isolation:isolate" viewBox="655.5 373 75 75" width="75pt" height="75pt"><g><g opacity="0.15"><circle vector-effect="non-scaling-stroke" cx="693" cy="410.5" r="35" fill="rgb(233,203,175)"/></g><linearGradient id="_lgradient_6" x1="0.14644670536440751" y1="0.1464467053644075" x2="0.8535532946355925" y2="0.8535532946355928" gradientTransform="matrix(75,0,0,75,655.5,373)" gradientUnits="userSpaceOnUse"><stop offset="0%" stop-opacity="1" style="stop-color:rgb(238,44,44)"/><stop offset="100%" stop-opacity="1" style="stop-color:rgb(101,93,84)"/></linearGradient><path d=" M 660.5 410.5 C 660.5 401.88 663.93 393.61 670.02 387.52 C 676.11 381.43 684.38 378 693 378 C 701.62 378 709.89 381.43 715.98 387.52 C 722.07 393.61 725.5 401.88 725.5 410.5 C 725.5 419.12 722.07 427.39 715.98 433.48 C 709.89 439.57 701.62 443 693 443 C 684.38 443 676.11 439.57 670.02 433.48 C 663.93 427.39 660.5 419.12 660.5 410.5 L 660.5 410.5 Z  M 655.5 410.5 C 655.5 400.56 659.45 391.01 666.48 383.98 C 673.51 376.95 683.06 373 693 373 C 702.94 373 712.49 376.95 719.52 383.98 C 726.55 391.01 730.5 400.56 730.5 410.5 C 730.5 420.44 726.55 429.99 719.52 437.02 C 712.49 444.05 702.94 448 693 448 C 683.06 448 673.51 444.05 666.48 437.02 C 659.45 429.99 655.5 420.44 655.5 410.5 L 655.5 410.5 Z  M 700.481 428.73 C 700.951 429.2 701.211 429.84 701.211 430.5 C 701.211 431.16 700.951 431.8 700.481 432.27 C 700.011 432.74 699.371 433 698.711 433 C 698.051 433 697.411 432.74 696.941 432.27 L 676.585 411.914 C 675.805 411.134 675.805 409.866 676.585 409.086 L 696.941 388.73 C 697.411 388.26 698.051 388 698.711 388 C 699.371 388 700.011 388.26 700.481 388.73 C 700.951 389.2 701.211 389.84 701.211 390.5 C 701.211 391.16 700.951 391.8 700.481 392.27 L 682.958 409.793 C 682.568 410.183 682.568 410.817 682.958 411.207 L 700.481 428.73 Z " fill-rule="evenodd" fill="url(#_lgradient_6)"/></g></svg>