<?xml version="1.0" encoding="UTF-8" standalone="no"?><!-- Generator: Gravit.io --><svg xmlns="http://www.w3.org/2000/svg" xmlns:xlink="http://www.w3.org/1999/xlink" style="isolation:isolate" viewBox="0 0 121.2 75" width="121.2pt" height="75pt"><g><g opacity="0.05"><path d=" M 7.219 68.38 C 10.249 64.83 12.739 60.87 14.619 56.6 C 17.259 50.61 18.629 44.12 18.629 37.57 L 18.629 37.5 L 18.629 37.43 C 18.629 30.88 17.259 24.39 14.619 18.4 C 12.739 14.13 10.249 10.17 7.219 6.62 C 6.589 5.88 6.439 4.84 6.849 3.95 C 7.259 3.07 8.149 2.5 9.119 2.5 L 108.669 2.5 C 111.319 2.5 113.869 3.55 115.739 5.43 C 117.619 7.3 118.669 9.85 118.669 12.5 L 118.669 62.5 C 118.669 65.15 117.619 67.7 115.739 69.57 C 113.869 71.45 111.319 72.5 108.669 72.5 L 9.119 72.5 C 8.149 72.5 7.259 71.93 6.849 71.05 C 6.439 70.16 6.589 69.12 7.219 68.38 Z " fill="rgb(238,44,44)"/></g><linearGradient id="_lgradient_9" x1="1.3570465440260193e-7" y1="0.5" x2="0.9999998642953462" y2="0.5" gradientTransform="matrix(121.2,0,0,75,0,0)" gradientUnits="userSpaceOnUse"><stop offset="0%" stop-opacity="1" style="stop-color:rgb(238,44,44)"/><stop offset="100%" stop-opacity="1" style="stop-color:rgb(101,93,84)"/></linearGradient><path d=" M 9.15 70 L 108.7 70 C 110.69 70 112.6 69.21 114 67.8 C 115.41 66.4 116.2 64.49 116.2 62.5 L 116.2 12.5 C 116.2 10.51 115.41 8.6 114 7.2 C 112.6 5.79 110.69 5 108.7 5 L 9.15 5 C 12.34 8.73 14.96 12.9 16.94 17.39 C 19.73 23.73 21.17 30.58 21.16 37.5 C 21.17 44.42 19.73 51.27 16.94 57.61 C 14.96 62.1 12.34 66.27 9.15 70 L 9.15 70 L 9.15 70 L 9.15 70 Z  M 0 2.97 C 0.71 3.56 1.4 4.17 2.06 4.8 L 2.06 4.8 C 6.44 8.93 9.94 13.9 12.37 19.4 C 14.87 25.11 16.17 31.27 16.16 37.5 C 16.17 43.73 14.87 49.9 12.37 55.6 C 9.56 61.95 5.33 67.58 0 72.03 L 0 74 C 0 74.552 0.448 75 1 75 L 108.7 75 C 112.01 75 115.2 73.68 117.54 71.34 C 119.88 69 121.2 65.81 121.2 62.5 L 121.2 12.5 C 121.2 9.19 119.88 6 117.54 3.66 C 115.2 1.32 112.01 0 108.7 0 L 1 0 C 0.448 0 0 0.448 0 1 L 0 2.97 L 0 2.97 Z  M 92.995 35 L 75.63 21.11 C 75.11 20.7 74.78 20.09 74.71 19.43 C 74.63 18.77 74.83 18.11 75.24 17.6 C 75.65 17.08 76.26 16.75 76.92 16.67 C 77.57 16.6 78.24 16.79 78.75 17.2 L 100.216 34.376 C 102.371 36.1 102.37 38.899 100.215 40.623 L 78.75 57.79 C 78.24 58.21 77.57 58.4 76.92 58.33 C 76.26 58.25 75.65 57.92 75.24 57.4 C 74.83 56.89 74.63 56.23 74.71 55.57 C 74.78 54.91 75.11 54.3 75.63 53.89 L 92.995 40 L 35.92 40 C 35.26 40 34.62 39.74 34.15 39.27 C 33.68 38.8 33.42 38.16 33.42 37.5 C 33.42 36.84 33.68 36.2 34.15 35.73 C 34.62 35.26 35.26 35 35.92 35 L 92.995 35 Z " fill-rule="evenodd" fill="url(#_lgradient_9)"/></g></svg>