<?xml version="1.0" encoding="UTF-8" standalone="no"?><!-- Generator: Gravit.io --><svg xmlns="http://www.w3.org/2000/svg" xmlns:xlink="http://www.w3.org/1999/xlink" style="isolation:isolate" viewBox="629.768 363.155 121.2 75" width="121.2pt" height="75pt"><g><g opacity="0.05"><path d=" M 743.718 431.535 C 740.688 427.985 738.198 424.025 736.318 419.755 C 733.678 413.765 732.308 407.275 732.308 400.725 L 732.308 400.655 L 732.308 400.585 C 732.308 394.035 733.678 387.545 736.318 381.555 C 738.198 377.285 740.688 373.325 743.718 369.775 C 744.348 369.035 744.498 367.995 744.088 367.105 C 743.678 366.225 742.788 365.655 741.818 365.655 L 642.268 365.655 C 639.618 365.655 637.068 366.705 635.198 368.585 C 633.318 370.455 632.268 373.005 632.268 375.655 L 632.268 425.655 C 632.268 428.305 633.318 430.855 635.198 432.725 C 637.068 434.605 639.618 435.655 642.268 435.655 L 741.818 435.655 C 742.788 435.655 743.678 435.085 744.088 434.205 C 744.498 433.315 744.348 432.275 743.718 431.535 Z " fill="rgb(238,44,44)"/></g><linearGradient id="_lgradient_8" x1="0.9999998642953456" y1="0.5" x2="1.3570465384749042e-7" y2="0.4999999999999999" gradientTransform="matrix(121.2,0,0,75,629.768,363.155)" gradientUnits="userSpaceOnUse"><stop offset="0%" stop-opacity="1" style="stop-color:rgb(238,44,44)"/><stop offset="100%" stop-opacity="1" style="stop-color:rgb(101,93,84)"/></linearGradient><path d=" M 741.818 433.155 L 642.268 433.155 C 640.278 433.155 638.368 432.365 636.968 430.955 C 635.558 429.555 634.768 427.645 634.768 425.655 L 634.768 375.655 C 634.768 373.665 635.558 371.755 636.968 370.355 C 638.368 368.945 640.278 368.155 642.268 368.155 L 741.818 368.155 C 738.628 371.885 736.008 376.055 734.028 380.545 C 731.238 386.885 729.798 393.735 729.808 400.655 C 729.798 407.575 731.238 414.425 734.028 420.765 C 736.008 425.255 738.628 429.425 741.818 433.155 L 741.818 433.155 L 741.818 433.155 L 741.818 433.155 Z  M 750.968 366.125 C 750.258 366.715 749.568 367.325 748.908 367.955 L 748.908 367.955 C 744.528 372.085 741.028 377.055 738.598 382.555 C 736.098 388.265 734.798 394.425 734.808 400.655 C 734.798 406.885 736.098 413.055 738.598 418.755 C 741.408 425.105 745.638 430.735 750.968 435.185 L 750.968 437.155 C 750.968 437.707 750.52 438.155 749.968 438.155 L 642.268 438.155 C 638.958 438.155 635.768 436.835 633.428 434.495 C 631.088 432.155 629.768 428.965 629.768 425.655 L 629.768 375.655 C 629.768 372.345 631.088 369.155 633.428 366.815 C 635.768 364.475 638.958 363.155 642.268 363.155 L 749.968 363.155 C 750.52 363.155 750.968 363.603 750.968 364.155 L 750.968 366.125 L 750.968 366.125 Z  M 658.043 398.155 L 675.408 384.265 C 675.928 383.855 676.258 383.245 676.328 382.585 C 676.408 381.925 676.208 381.265 675.798 380.755 C 675.388 380.235 674.778 379.905 674.118 379.825 C 673.468 379.755 672.798 379.945 672.288 380.355 L 650.822 397.531 C 648.667 399.255 648.668 402.055 650.823 403.778 L 672.288 420.945 C 672.798 421.365 673.468 421.555 674.118 421.485 C 674.778 421.405 675.388 421.075 675.798 420.555 C 676.208 420.045 676.408 419.385 676.328 418.725 C 676.258 418.065 675.928 417.455 675.408 417.045 L 658.043 403.155 L 715.118 403.155 C 715.778 403.155 716.418 402.895 716.888 402.425 C 717.358 401.955 717.618 401.315 717.618 400.655 C 717.618 399.995 717.358 399.355 716.888 398.885 C 716.418 398.415 715.778 398.155 715.118 398.155 L 658.043 398.155 Z " fill-rule="evenodd" fill="url(#_lgradient_8)"/></g></svg>