<?xml version="1.0" encoding="UTF-8" standalone="no"?><!-- Generator: Gravit.io --><svg xmlns="http://www.w3.org/2000/svg" xmlns:xlink="http://www.w3.org/1999/xlink" style="isolation:isolate" viewBox="0 0 75 75" width="75pt" height="75pt"><path d=" M 12.5 2.5 L 62.5 2.5 C 68.019 2.5 72.5 6.981 72.5 12.5 L 72.5 62.5 C 72.5 68.019 68.019 72.5 62.5 72.5 L 12.5 72.5 C 6.981 72.5 2.5 68.019 2.5 62.5 L 2.5 12.5 C 2.5 6.981 6.981 2.5 12.5 2.5 Z " fill="rgb(233,203,175)" fill-opacity="0.15"/><g opacity="0.15"><path d=" M 15 37.5 C 15 30.049 25.082 24 37.5 24 C 49.918 24 60 30.049 60 37.5 C 60 44.951 49.918 51 37.5 51 C 25.082 51 15 44.951 15 37.5 Z  M 27.5 37.5 C 27.5 31.981 31.981 27.5 37.5 27.5 C 43.019 27.5 47.5 31.981 47.5 37.5 C 47.5 43.019 43.019 47.5 37.5 47.5 C 31.981 47.5 27.5 43.019 27.5 37.5 Z " fill-rule="evenodd" fill="rgb(221,42,42)"/></g><circle vector-effect="non-scaling-stroke" cx="37.49999999999997" cy="37.49999999999997" r="10" fill="rgb(221,42,42)" fill-opacity="0.35"/><linearGradient id="_lgradient_13" x1="0.14644670536440751" y1="0.1464467053644075" x2="0.8535532946355925" y2="0.8535532946355928" gradientTransform="matrix(75,0,0,75,0,0)" gradientUnits="userSpaceOnUse"><stop offset="0%" stop-opacity="1" style="stop-color:rgb(238,44,44)"/><stop offset="100%" stop-opacity="1" style="stop-color:rgb(101,93,84)"/></linearGradient><path d=" M 30.364 27.246 C 30.022 27.325 29.68 27.405 29.34 27.49 C 27.07 28.04 24.88 28.92 22.86 30.11 C 22.02 30.61 21.23 31.19 20.49 31.83 C 19.86 32.39 19.29 33.02 18.8 33.7 C 18.39 34.28 18.06 34.92 17.82 35.59 C 17.61 36.21 17.5 36.85 17.5 37.5 L 17.5 37.5 L 17.5 37.5 C 17.5 38.15 17.61 38.79 17.82 39.4 C 18.06 40.08 18.39 40.72 18.8 41.3 C 19.29 41.98 19.86 42.61 20.49 43.17 C 21.23 43.81 22.02 44.39 22.86 44.89 C 24.88 46.08 27.07 46.96 29.34 47.51 C 29.68 47.595 30.022 47.675 30.364 47.754 C 29.756 47.341 29.186 46.866 28.66 46.34 C 26.32 44 25 40.81 25 37.5 L 25 37.5 C 25 34.19 26.32 31 28.66 28.66 C 29.186 28.134 29.756 27.659 30.364 27.246 Z  M 44.636 27.246 C 44.978 27.325 45.32 27.405 45.66 27.49 C 47.93 28.04 50.12 28.92 52.14 30.11 C 52.98 30.61 53.77 31.19 54.51 31.83 C 55.14 32.39 55.71 33.02 56.2 33.7 C 56.61 34.28 56.94 34.92 57.18 35.6 C 57.39 36.21 57.5 36.85 57.5 37.5 C 57.5 38.15 57.39 38.79 57.18 39.4 C 56.94 40.08 56.61 40.72 56.2 41.3 C 55.71 41.98 55.14 42.61 54.51 43.17 C 53.77 43.81 52.98 44.39 52.14 44.89 C 50.12 46.08 47.93 46.96 45.66 47.51 C 45.32 47.595 44.978 47.675 44.636 47.754 C 45.244 47.341 45.814 46.866 46.34 46.34 C 48.68 44 50 40.81 50 37.5 C 50 34.19 48.68 31 46.34 28.66 C 45.814 28.134 45.244 27.659 44.636 27.246 Z  M 12.5 37.5 C 12.5 36.3 12.7 35.1 13.09 33.97 C 13.49 32.83 14.04 31.77 14.74 30.79 C 15.45 29.8 16.27 28.88 17.2 28.08 C 18.16 27.22 19.21 26.46 20.32 25.8 C 22.76 24.37 25.4 23.3 28.15 22.63 C 31.21 21.87 34.35 21.49 37.5 21.5 C 40.65 21.49 43.79 21.87 46.85 22.63 C 49.6 23.3 52.24 24.37 54.68 25.8 C 55.79 26.46 56.84 27.22 57.8 28.08 C 58.73 28.88 59.55 29.8 60.26 30.79 C 60.96 31.77 61.51 32.83 61.91 33.96 C 62.3 35.1 62.5 36.3 62.5 37.5 C 62.5 38.7 62.3 39.9 61.91 41.04 C 61.51 42.17 60.96 43.23 60.26 44.21 C 59.55 45.2 58.73 46.12 57.8 46.92 C 56.84 47.78 55.79 48.54 54.68 49.2 C 52.24 50.63 49.6 51.7 46.85 52.37 C 43.79 53.13 40.65 53.51 37.5 53.5 C 34.35 53.51 31.21 53.13 28.15 52.37 C 25.4 51.7 22.76 50.63 20.32 49.2 C 19.21 48.54 18.16 47.78 17.2 46.92 C 16.27 46.12 15.45 45.2 14.74 44.21 C 14.04 43.23 13.49 42.17 13.09 41.04 C 12.7 39.9 12.5 38.7 12.5 37.5 L 12.5 37.5 L 12.5 37.5 Z  M 12.5 5 L 62.5 5 C 64.49 5 66.4 5.79 67.8 7.2 C 69.21 8.6 70 10.51 70 12.5 L 70 62.5 C 70 64.49 69.21 66.4 67.8 67.8 C 66.4 69.21 64.49 70 62.5 70 L 12.5 70 C 10.51 70 8.6 69.21 7.2 67.8 C 5.79 66.4 5 64.49 5 62.5 L 5 12.5 C 5 10.51 5.79 8.6 7.2 7.2 C 8.6 5.79 10.51 5 12.5 5 L 12.5 5 L 12.5 5 Z  M 12.5 0 L 62.5 0 C 65.81 0 69 1.32 71.34 3.66 C 73.68 6 75 9.19 75 12.5 L 75 62.5 C 75 65.81 73.68 69 71.34 71.34 C 69 73.68 65.81 75 62.5 75 L 12.5 75 C 9.19 75 6 73.68 3.66 71.34 C 1.32 69 0 65.81 0 62.5 L 0 12.5 C 0 9.19 1.32 6 3.66 3.66 C 6 1.32 9.19 0 12.5 0 L 12.5 0 L 12.5 0 Z  M 30 37.5 C 30 35.51 30.79 33.6 32.2 32.2 C 33.6 30.79 35.51 30 37.5 30 C 39.49 30 41.4 30.79 42.8 32.2 C 44.21 33.6 45 35.51 45 37.5 C 45 39.49 44.21 41.4 42.8 42.8 C 41.4 44.21 39.49 45 37.5 45 C 35.51 45 33.6 44.21 32.2 42.8 C 30.79 41.4 30 39.49 30 37.5 L 30 37.5 Z " fill-rule="evenodd" fill="url(#_lgradient_13)"/></svg>