<?xml version="1.0" encoding="UTF-8" standalone="no"?><!-- Generator: Gravit.io --><svg xmlns="http://www.w3.org/2000/svg" xmlns:xlink="http://www.w3.org/1999/xlink" style="isolation:isolate" viewBox="0 0 50 50" width="50pt" height="50pt"><linearGradient id="_lgradient_10" x1="0.14644670536440751" y1="0.1464467053644075" x2="0.8535532946355925" y2="0.8535532946355928" gradientTransform="matrix(50,0,0,50,0,0)" gradientUnits="userSpaceOnUse"><stop offset="0%" stop-opacity="1" style="stop-color:rgb(238,44,44)"/><stop offset="100%" stop-opacity="1" style="stop-color:rgb(101,93,84)"/></linearGradient><path d=" M 5 25 C 5 19.7 7.11 14.61 10.86 10.86 C 14.61 7.11 19.7 5 25 5 C 30.3 5 35.39 7.11 39.14 10.86 C 42.89 14.61 45 19.7 45 25 C 45 30.3 42.89 35.39 39.14 39.14 C 35.39 42.89 30.3 45 25 45 C 19.7 45 14.61 42.89 10.86 39.14 C 7.11 35.39 5 30.3 5 25 L 5 25 Z  M 0 25 C 0 18.37 2.64 12.01 7.32 7.32 C 12.01 2.64 18.37 0 25 0 C 31.63 0 37.99 2.64 42.68 7.32 C 47.36 12.01 50 18.37 50 25 C 50 31.63 47.36 37.99 42.68 42.68 C 37.99 47.36 31.63 50 25 50 C 18.37 50 12.01 47.36 7.32 42.68 C 2.64 37.99 0 31.63 0 25 L 0 25 Z  M 25 21.46 L 19.27 15.73 C 18.8 15.26 18.16 15 17.5 15 C 16.84 15 16.2 15.26 15.73 15.73 C 15.26 16.2 15 16.84 15 17.5 C 15 18.16 15.26 18.8 15.73 19.27 L 21.46 25 L 15.73 30.73 C 15.26 31.2 15 31.84 15 32.5 C 15 33.16 15.26 33.8 15.73 34.27 C 16.2 34.74 16.84 35 17.5 35 C 18.16 35 18.8 34.74 19.27 34.27 L 25 28.54 L 30.73 34.27 C 31.2 34.74 31.84 35 32.5 35 C 33.16 35 33.8 34.74 34.27 34.27 C 34.74 33.8 35 33.16 35 32.5 C 35 31.84 34.74 31.2 34.27 30.73 L 28.54 25 L 34.27 19.27 C 34.74 18.8 35 18.16 35 17.5 C 35 16.84 34.74 16.2 34.27 15.73 C 33.8 15.26 33.16 15 32.5 15 C 31.84 15 31.2 15.26 30.73 15.73 L 25 21.46 Z " fill-rule="evenodd" fill="url(#_lgradient_10)"/></svg>