<?xml version="1.0" encoding="UTF-8" standalone="no"?><!-- Generator: Gravit.io --><svg xmlns="http://www.w3.org/2000/svg" xmlns:xlink="http://www.w3.org/1999/xlink" style="isolation:isolate" viewBox="65.002 91.051 75 75" width="75pt" height="75pt"><g><path d=" M 77.502 93.551 L 127.502 93.551 C 133.021 93.551 137.502 98.032 137.502 103.551 L 137.502 153.551 C 137.502 159.07 133.021 163.551 127.502 163.551 L 77.502 163.551 C 71.983 163.551 67.502 159.07 67.502 153.551 L 67.502 103.551 C 67.502 98.032 71.983 93.551 77.502 93.551 Z " fill="rgb(233,203,175)" fill-opacity="0.15"/><g opacity="0.15"><path d=" M 80.002 128.551 C 80.002 121.1 90.084 115.051 102.502 115.051 C 114.92 115.051 125.002 121.1 125.002 128.551 C 125.002 136.002 114.92 142.051 102.502 142.051 C 90.084 142.051 80.002 136.002 80.002 128.551 Z  M 92.502 128.551 C 92.502 123.032 96.983 118.551 102.502 118.551 C 108.021 118.551 112.502 123.032 112.502 128.551 C 112.502 134.07 108.021 138.551 102.502 138.551 C 96.983 138.551 92.502 134.07 92.502 128.551 Z " fill-rule="evenodd" fill="rgb(221,42,42)"/></g><circle vector-effect="non-scaling-stroke" cx="102.50192042366061" cy="128.550962184219" r="10" fill="rgb(221,42,42)" fill-opacity="0.35"/><linearGradient id="_lgradient_14" x1="0.14644670536440751" y1="0.1464467053644075" x2="0.8535532946355925" y2="0.8535532946355928" gradientTransform="matrix(75,0,0,75,65.002,91.051)" gradientUnits="userSpaceOnUse"><stop offset="0%" stop-opacity="1" style="stop-color:rgb(238,44,44)"/><stop offset="100%" stop-opacity="1" style="stop-color:rgb(101,93,84)"/></linearGradient><path d=" M 95.733 125.322 C 95.256 126.32 95.002 127.423 95.002 128.551 L 95.002 128.551 L 95.002 128.551 C 95.002 129.679 95.256 130.782 95.733 131.78 L 98.962 128.551 L 95.733 125.322 Z  M 99.273 121.782 C 100.271 121.305 101.374 121.051 102.502 121.051 C 103.63 121.051 104.733 121.305 105.731 121.782 L 102.502 125.011 L 99.273 121.782 Z  M 109.271 125.322 C 109.748 126.32 110.002 127.423 110.002 128.551 C 110.002 129.679 109.748 130.782 109.271 131.78 L 106.042 128.551 L 109.271 125.322 Z  M 105.731 135.32 C 104.733 135.797 103.63 136.051 102.502 136.051 C 101.374 136.051 100.271 135.797 99.273 135.32 L 102.502 132.091 L 105.731 135.32 Z  M 95.366 118.297 C 95.024 118.376 94.682 118.456 94.342 118.541 C 92.072 119.091 89.882 119.971 87.862 121.161 C 87.022 121.661 86.232 122.241 85.492 122.881 C 84.862 123.441 84.292 124.071 83.802 124.751 C 83.392 125.331 83.062 125.971 82.822 126.641 C 82.612 127.261 82.502 127.901 82.502 128.551 L 82.502 128.551 L 82.502 128.551 C 82.502 129.201 82.612 129.841 82.822 130.451 C 83.062 131.131 83.392 131.771 83.802 132.351 C 84.292 133.031 84.862 133.661 85.492 134.221 C 86.232 134.861 87.022 135.441 87.862 135.941 C 89.882 137.131 92.072 138.011 94.342 138.561 C 94.682 138.646 95.024 138.726 95.366 138.805 C 94.758 138.392 94.188 137.917 93.662 137.391 C 91.322 135.051 90.002 131.861 90.002 128.551 L 90.002 128.551 C 90.002 125.241 91.322 122.051 93.662 119.711 C 94.188 119.185 94.758 118.71 95.366 118.297 L 95.366 118.297 Z  M 109.638 118.297 C 109.98 118.376 110.321 118.456 110.662 118.541 C 112.932 119.091 115.122 119.971 117.142 121.161 C 117.982 121.661 118.772 122.241 119.512 122.881 C 120.142 123.441 120.712 124.071 121.202 124.751 C 121.612 125.331 121.942 125.971 122.182 126.651 C 122.392 127.261 122.502 127.901 122.502 128.551 C 122.502 129.201 122.392 129.841 122.182 130.451 C 121.942 131.131 121.612 131.771 121.202 132.351 C 120.712 133.031 120.142 133.661 119.512 134.221 C 118.772 134.861 117.982 135.441 117.142 135.941 C 115.122 137.131 112.932 138.011 110.662 138.561 C 110.321 138.646 109.98 138.726 109.638 138.805 C 110.246 138.392 110.816 137.917 111.342 137.391 C 113.682 135.051 115.002 131.861 115.002 128.551 C 115.002 125.241 113.682 122.051 111.342 119.711 C 110.816 119.185 110.246 118.71 109.638 118.297 L 109.638 118.297 Z  M 77.502 128.551 C 77.502 127.351 77.702 126.151 78.092 125.021 C 78.492 123.881 79.042 122.821 79.742 121.841 C 80.452 120.851 81.272 119.931 82.202 119.131 C 83.162 118.271 84.212 117.511 85.322 116.851 C 87.762 115.421 90.402 114.351 93.152 113.681 C 96.212 112.921 99.352 112.541 102.502 112.551 C 105.652 112.541 108.792 112.921 111.852 113.681 C 114.602 114.351 117.242 115.421 119.682 116.851 C 120.792 117.511 121.842 118.271 122.802 119.131 C 123.732 119.931 124.552 120.851 125.262 121.841 C 125.962 122.821 126.512 123.881 126.912 125.011 C 127.302 126.151 127.502 127.351 127.502 128.551 C 127.502 129.751 127.302 130.951 126.912 132.091 C 126.512 133.221 125.962 134.281 125.262 135.261 C 124.552 136.251 123.732 137.171 122.802 137.971 C 121.842 138.831 120.792 139.591 119.682 140.251 C 117.242 141.681 114.602 142.751 111.852 143.421 C 108.792 144.181 105.652 144.561 102.502 144.551 C 99.352 144.561 96.212 144.181 93.152 143.421 C 90.402 142.751 87.762 141.681 85.322 140.251 C 84.212 139.591 83.162 138.831 82.202 137.971 C 81.272 137.171 80.452 136.251 79.742 135.261 C 79.042 134.281 78.492 133.221 78.092 132.091 C 77.702 130.951 77.502 129.751 77.502 128.551 L 77.502 128.551 L 77.502 128.551 L 77.502 128.551 Z  M 77.502 96.051 L 127.502 96.051 C 129.492 96.051 131.402 96.841 132.802 98.251 C 134.212 99.651 135.002 101.561 135.002 103.551 L 135.002 153.551 C 135.002 155.541 134.212 157.451 132.802 158.851 C 131.402 160.261 129.492 161.051 127.502 161.051 L 77.502 161.051 C 75.512 161.051 73.602 160.261 72.202 158.851 C 70.792 157.451 70.002 155.541 70.002 153.551 L 70.002 103.551 C 70.002 101.561 70.792 99.651 72.202 98.251 C 73.602 96.841 75.512 96.051 77.502 96.051 L 77.502 96.051 L 77.502 96.051 L 77.502 96.051 Z  M 77.502 91.051 L 127.502 91.051 C 130.812 91.051 134.002 92.371 136.342 94.711 C 138.682 97.051 140.002 100.241 140.002 103.551 L 140.002 153.551 C 140.002 156.861 138.682 160.051 136.342 162.391 C 134.002 164.731 130.812 166.051 127.502 166.051 L 77.502 166.051 C 74.192 166.051 71.002 164.731 68.662 162.391 C 66.322 160.051 65.002 156.861 65.002 153.551 L 65.002 103.551 C 65.002 100.241 66.322 97.051 68.662 94.711 C 71.002 92.371 74.192 91.051 77.502 91.051 L 77.502 91.051 L 77.502 91.051 L 77.502 91.051 Z " fill-rule="evenodd" fill="url(#_lgradient_14)"/></g></svg>