<?xml version="1.0" encoding="UTF-8" standalone="no"?><!-- Generator: Gravit.io --><svg xmlns="http://www.w3.org/2000/svg" xmlns:xlink="http://www.w3.org/1999/xlink" style="isolation:isolate" viewBox="805.492 461.553 187.5 187.5" width="187.5pt" height="187.5pt"><linearGradient id="_lgradient_2" x1="9.992007221626409e-16" y1="6.661338147750939e-16" x2="0.8958500115182291" y2="0.7162368825291416" gradientTransform="matrix(187.5,0,0,187.5,805.492,461.553)" gradientUnits="userSpaceOnUse"><stop offset="0%" stop-opacity="1" style="stop-color:rgb(101,93,84)"/><stop offset="100%" stop-opacity="1" style="stop-color:rgb(238,44,44)"/></linearGradient><path d=" M 859.512 487.313 L 851.932 474.363 C 866.282 465.963 882.612 461.543 899.242 461.553 C 911.772 461.543 924.182 464.053 935.722 468.933 C 946.852 473.643 956.972 480.473 965.522 489.023 C 974.072 497.573 980.902 507.693 985.612 518.823 C 990.492 530.363 993.002 542.773 992.992 555.303 C 993.002 567.833 990.492 580.243 985.612 591.783 C 980.902 602.913 974.072 613.033 965.522 621.583 C 956.972 630.133 946.852 636.963 935.722 641.673 C 924.182 646.553 911.772 649.063 899.242 649.053 C 886.712 649.063 874.302 646.553 862.762 641.673 C 851.632 636.963 841.512 630.133 832.962 621.583 C 824.412 613.033 817.582 602.913 812.872 591.783 C 807.992 580.243 805.482 567.833 805.492 555.293 L 820.492 555.313 C 820.482 565.833 822.592 576.243 826.682 585.943 C 830.652 595.293 836.382 603.793 843.572 610.973 C 850.752 618.163 859.252 623.903 868.602 627.863 C 878.302 631.953 888.722 634.063 899.242 634.053 C 909.762 634.063 920.182 631.953 929.882 627.863 C 939.232 623.903 947.732 618.163 954.912 610.973 C 962.102 603.793 967.842 595.293 971.802 585.943 C 975.892 576.243 978.002 565.823 977.992 555.303 C 978.002 544.783 975.892 534.363 971.802 524.663 C 967.842 515.313 962.102 506.813 954.912 499.633 C 947.732 492.443 939.232 486.703 929.882 482.743 C 920.182 478.653 909.762 476.543 899.242 476.553 C 885.282 476.543 871.562 480.253 859.512 487.313 Z " fill="url(#_lgradient_2)"/></svg>