<?xml version="1.0" encoding="UTF-8" standalone="no"?><!-- Generator: Gravit.io --><svg xmlns="http://www.w3.org/2000/svg" xmlns:xlink="http://www.w3.org/1999/xlink" style="isolation:isolate" viewBox="0 0 75 75" width="75pt" height="75pt"><path d="M 12.5 2.5 L 62.5 2.5 C 68.019 2.5 72.5 6.981 72.5 12.5 L 72.5 62.5 C 72.5 68.019 68.019 72.5 62.5 72.5 L 12.5 72.5 C 6.981 72.5 2.5 68.019 2.5 62.5 L 2.5 12.5 C 2.5 6.981 6.981 2.5 12.5 2.5 Z" style="stroke:none;fill:#E9CBAF;stroke-miterlimit:10;opacity:0.15;"/><linearGradient id="_lgradient_12" x1="0.14644670536440751" y1="0.1464467053644075" x2="0.8535532946355925" y2="0.8535532946355928" gradientTransform="matrix(75,0,0,75,0,0)" gradientUnits="userSpaceOnUse"><stop offset="0%" stop-opacity="1" style="stop-color:rgb(238,44,44)"/><stop offset="100%" stop-opacity="1" style="stop-color:rgb(101,93,84)"/></linearGradient><path d=" M 12.5 5 L 62.5 5 C 64.49 5 66.4 5.79 67.8 7.2 C 69.21 8.6 70 10.51 70 12.5 L 70 62.5 C 70 64.49 69.21 66.4 67.8 67.8 C 66.4 69.21 64.49 70 62.5 70 L 12.5 70 C 10.51 70 8.6 69.21 7.2 67.8 C 5.79 66.4 5 64.49 5 62.5 L 5 12.5 C 5 10.51 5.79 8.6 7.2 7.2 C 8.6 5.79 10.51 5 12.5 5 L 12.5 5 Z  M 12.5 0 L 62.5 0 C 65.81 0 69 1.32 71.34 3.66 C 73.68 6 75 9.19 75 12.5 L 75 62.5 C 75 65.81 73.68 69 71.34 71.34 C 69 73.68 65.81 75 62.5 75 L 12.5 75 C 9.19 75 6 73.68 3.66 71.34 C 1.32 69 0 65.81 0 62.5 L 0 12.5 C 0 9.19 1.32 6 3.66 3.66 C 6 1.32 9.19 0 12.5 0 L 12.5 0 Z  M 17.5 15 L 22.5 15 C 23.88 15 25 16.12 25 17.5 L 25 17.5 C 25 18.88 23.88 20 22.5 20 L 17.5 20 C 16.12 20 15 18.88 15 17.5 L 15 17.5 C 15 16.12 16.12 15 17.5 15 L 17.5 15 L 17.5 15 L 17.5 15 L 17.5 15 L 17.5 15 L 17.5 15 L 17.5 15 L 17.5 15 L 17.5 15 L 17.5 15 Z  M 32.5 15 L 57.5 15 C 58.88 15 60 16.12 60 17.5 L 60 17.5 C 60 18.88 58.88 20 57.5 20 L 32.5 20 C 31.12 20 30 18.88 30 17.5 L 30 17.5 C 30 16.12 31.12 15 32.5 15 L 32.5 15 L 32.5 15 L 32.5 15 L 32.5 15 L 32.5 15 L 32.5 15 L 32.5 15 L 32.5 15 L 32.5 15 L 32.5 15 Z  M 57.5 55 L 57.5 55 C 58.88 55 60 56.12 60 57.5 L 60 57.5 C 60 58.88 58.88 60 57.5 60 L 57.5 60 C 56.12 60 55 58.88 55 57.5 L 55 57.5 C 55 56.12 56.12 55 57.5 55 L 57.5 55 L 57.5 55 L 57.5 55 L 57.5 55 L 57.5 55 L 57.5 55 L 57.5 55 L 57.5 55 L 57.5 55 Z  M 17.5 55 L 47.5 55 C 48.88 55 50 56.12 50 57.5 L 50 57.5 C 50 58.88 48.88 60 47.5 60 L 17.5 60 C 16.12 60 15 58.88 15 57.5 L 15 57.5 C 15 56.12 16.12 55 17.5 55 L 17.5 55 L 17.5 55 L 17.5 55 L 17.5 55 L 17.5 55 L 17.5 55 L 17.5 55 L 17.5 55 Z  M 37.5 45 L 57.5 45 C 58.88 45 60 46.12 60 47.5 L 60 47.5 C 60 48.88 58.88 50 57.5 50 L 37.5 50 C 36.12 50 35 48.88 35 47.5 L 35 47.5 C 35 46.12 36.12 45 37.5 45 L 37.5 45 L 37.5 45 L 37.5 45 L 37.5 45 L 37.5 45 L 37.5 45 L 37.5 45 Z  M 17.5 45 L 27.5 45 C 28.88 45 30 46.12 30 47.5 L 30 47.5 C 30 48.88 28.88 50 27.5 50 L 17.5 50 C 16.12 50 15 48.88 15 47.5 L 15 47.5 C 15 46.12 16.12 45 17.5 45 L 17.5 45 L 17.5 45 L 17.5 45 L 17.5 45 L 17.5 45 L 17.5 45 Z  M 17.5 35 L 22.5 35 C 23.88 35 25 36.12 25 37.5 L 25 37.5 C 25 38.88 23.88 40 22.5 40 L 17.5 40 C 16.12 40 15 38.88 15 37.5 L 15 37.5 C 15 36.12 16.12 35 17.5 35 L 17.5 35 L 17.5 35 L 17.5 35 L 17.5 35 L 17.5 35 Z  M 32.5 35 L 42.5 35 C 43.88 35 45 36.12 45 37.5 L 45 37.5 C 45 38.88 43.88 40 42.5 40 L 32.5 40 C 31.12 40 30 38.88 30 37.5 L 30 37.5 C 30 36.12 31.12 35 32.5 35 L 32.5 35 L 32.5 35 L 32.5 35 L 32.5 35 Z  M 52.5 35 L 57.5 35 C 58.88 35 60 36.12 60 37.5 L 60 37.5 C 60 38.88 58.88 40 57.5 40 L 52.5 40 C 51.12 40 50 38.88 50 37.5 L 50 37.5 C 50 36.12 51.12 35 52.5 35 L 52.5 35 L 52.5 35 L 52.5 35 Z  M 42.5 25 L 57.5 25 C 58.88 25 60 26.12 60 27.5 L 60 27.5 C 60 28.88 58.88 30 57.5 30 L 42.5 30 C 41.12 30 40 28.88 40 27.5 L 40 27.5 C 40 26.12 41.12 25 42.5 25 L 42.5 25 L 42.5 25 Z  M 17.5 25 L 32.5 25 C 33.88 25 35 26.12 35 27.5 L 35 27.5 C 35 28.88 33.88 30 32.5 30 L 17.5 30 C 16.12 30 15 28.88 15 27.5 L 15 27.5 C 15 26.12 16.12 25 17.5 25 L 17.5 25 Z " fill-rule="evenodd" fill="url(#_lgradient_12)"/></svg>