<?xml version="1.0" encoding="UTF-8" standalone="no"?><!-- Generator: Gravit.io --><svg xmlns="http://www.w3.org/2000/svg" xmlns:xlink="http://www.w3.org/1999/xlink" style="isolation:isolate" viewBox="-60 0 1277.9 400.5" width="1277.9pt" height="400.5pt"><linearGradient id="_lgradient_1" x1="0.1464466094067262" y1="0.14644660940672627" x2="0.8535533905932737" y2="0.8535533905932737" gradientTransform="matrix(400.5,0,0,400.5,366.8,0)" gradientUnits="userSpaceOnUse"><stop offset="0%" stop-opacity="1" style="stop-color:rgb(238,44,44)"/><stop offset="100%" stop-opacity="1" style="stop-color:rgb(101,93,84)"/></linearGradient><path d=" M 366.8 200.25 C 366.79 186.71 368.16 173.2 370.87 159.93 C 373.51 147.04 377.42 134.44 382.55 122.33 C 392.63 98.55 407.21 76.93 425.48 58.68 C 443.73 40.41 465.35 25.83 489.13 15.75 C 501.24 10.62 513.84 6.71 526.72 4.07 C 539.99 1.36 553.5 -0.01 567.05 0 C 580.6 -0.01 594.11 1.36 607.38 4.07 C 620.26 6.71 632.86 10.62 644.97 15.75 C 668.75 25.83 690.37 40.41 708.62 58.68 C 726.89 76.93 741.47 98.55 751.55 122.33 C 756.68 134.44 760.59 147.04 763.23 159.92 C 765.94 173.19 767.31 186.7 767.3 200.25 C 767.31 213.8 765.94 227.31 763.23 240.58 C 760.59 253.46 756.68 266.06 751.55 278.17 C 741.47 301.95 726.89 323.57 708.62 341.82 C 690.37 360.09 668.75 374.67 644.97 384.75 C 632.86 389.88 620.26 393.79 607.38 396.43 C 594.11 399.14 580.6 400.51 567.05 400.5 C 553.5 400.51 539.99 399.14 526.72 396.43 C 513.84 393.79 501.24 389.88 489.13 384.75 C 465.35 374.67 443.73 360.09 425.48 341.82 C 407.21 323.57 392.63 301.95 382.55 278.17 C 377.42 266.06 373.51 253.46 370.87 240.58 C 368.16 227.31 366.79 213.8 366.8 200.25 Z  M 386.8 200.25 C 386.79 188.05 388.02 175.88 390.47 163.93 C 392.84 152.34 396.36 141.02 400.97 130.13 C 410.04 108.71 423.17 89.26 439.62 72.82 C 456.06 56.37 475.51 43.24 496.93 34.17 C 507.82 29.56 519.14 26.04 530.73 23.67 C 542.68 21.22 554.85 19.99 567.05 20 C 579.25 19.99 591.42 21.22 603.37 23.67 C 614.96 26.04 626.28 29.56 637.17 34.17 C 658.59 43.24 678.04 56.37 694.48 72.82 C 710.93 89.26 724.06 108.71 733.13 130.13 C 737.74 141.02 741.26 152.34 743.63 163.93 C 746.08 175.88 747.31 188.05 747.3 200.25 C 747.31 212.45 746.08 224.62 743.63 236.57 C 741.26 248.16 737.74 259.48 733.13 270.37 C 724.06 291.79 710.93 311.24 694.48 327.68 C 678.04 344.13 658.59 357.26 637.17 366.33 C 626.28 370.94 614.96 374.46 603.37 376.83 C 591.42 379.28 579.25 380.51 567.05 380.5 C 554.85 380.51 542.68 379.28 530.73 376.83 C 519.14 374.46 507.82 370.94 496.93 366.33 C 475.51 357.26 456.06 344.13 439.62 327.68 C 423.17 311.24 410.04 291.79 400.97 270.37 C 396.36 259.48 392.84 248.16 390.47 236.57 C 388.02 224.62 386.79 212.45 386.8 200.25 Z " fill-rule="evenodd" fill="url(#_lgradient_1)"/><g><path d=" M 414.843 150.795 L 531.077 150.795 L 531.132 150.755 L 567.05 40.21 L 602.968 150.755 L 603.023 150.795 L 719.257 150.795 L 625.222 219.116 L 625.201 219.18 L 661.119 329.725 L 567.084 261.404 L 567.016 261.404 L 472.981 329.725 L 508.899 219.18 L 508.878 219.116 L 414.843 150.795 Z " fill="rgb(238,44,44)"/><g><path d=" M 567.05 40.21 L 602.968 150.755 L 567.05 200.25 L 567.05 40.21 Z " fill="rgb(238,44,44)"/><path d=" M 567.05 40.21 L 531.132 150.755 L 567.05 200.25 L 567.05 40.21 Z " fill="rgb(221,42,42)"/><path d=" M 719.257 150.795 L 625.222 219.116 L 567.05 200.25 L 719.257 150.795 Z " fill="rgb(238,44,44)"/><path d=" M 719.257 150.795 L 603.023 150.795 L 567.05 200.25 L 719.257 150.795 Z " fill="rgb(221,42,42)"/><path d=" M 661.119 329.725 L 567.084 261.404 L 567.05 200.25 L 661.119 329.725 Z " fill="rgb(238,44,44)"/><path d=" M 661.119 329.725 L 625.201 219.18 L 567.05 200.25 L 661.119 329.725 Z " fill="rgb(221,42,42)"/><path d=" M 472.981 329.725 L 508.899 219.18 L 567.05 200.25 L 472.981 329.725 Z " fill="rgb(238,44,44)"/><path d=" M 472.981 329.725 L 567.016 261.404 L 567.05 200.25 L 472.981 329.725 Z " fill="rgb(221,42,42)"/><path d=" M 414.843 150.795 L 531.077 150.795 L 567.05 200.25 L 414.843 150.795 Z " fill="rgb(238,44,44)"/><path d=" M 414.843 150.795 L 508.878 219.116 L 567.05 200.25 L 414.843 150.795 Z " fill="rgb(221,42,42)"/></g></g><path d=" M 2.16 297.55 L 2.16 305.67 L -60 305.67 L -60 297.55 L -60 297.55 Q -49.92 293.07 -39.84 290.83 L -39.84 290.83 L 31 106.31 L 39.12 106.31 L 109.96 290.83 L 109.96 290.83 Q 115.56 291.95 121.02 293.35 L 121.02 293.35 L 121.02 293.35 Q 126.48 294.75 131.24 297.55 L 131.24 297.55 L 131.24 305.67 L 59.56 305.67 L 59.56 297.55 L 59.56 297.55 Q 65.16 295.31 71.04 293.63 L 71.04 293.63 L 71.04 293.63 Q 76.92 291.95 82.52 290.83 L 82.52 290.83 L 63.48 239.59 L -3.44 239.59 L -21.92 290.83 L -21.92 290.83 Q -10.16 292.51 2.16 297.55 L 2.16 297.55 Z  M 23.72 166.23 L 2.16 225.03 L 58.72 225.03 L 36.6 165.67 L 31.28 141.59 L 30.72 141.59 L 23.72 166.23 Z  M 189.2 218.87 L 189.2 290.83 L 189.2 290.83 Q 195.64 292.23 201.52 293.77 L 201.52 293.77 L 201.52 293.77 Q 207.4 295.31 213 297.55 L 213 297.55 L 213 305.67 L 139.36 305.67 L 139.36 297.55 L 139.36 297.55 Q 145.52 294.75 151.12 293.35 L 151.12 293.35 L 151.12 293.35 Q 156.72 291.95 162.32 290.83 L 162.32 290.83 L 162.32 124.79 L 162.32 124.79 Q 155.04 123.39 149.44 121.57 L 149.44 121.57 L 149.44 121.57 Q 143.84 119.75 139.36 117.79 L 139.36 117.79 L 139.36 109.67 L 164 109.67 L 164 109.67 Q 175.2 109.67 188.5 108.55 L 188.5 108.55 L 188.5 108.55 Q 201.8 107.43 214.4 107.43 L 214.4 107.43 L 214.4 107.43 Q 228.12 107.43 240.02 110.51 L 240.02 110.51 L 240.02 110.51 Q 251.92 113.59 260.6 120.31 L 260.6 120.31 L 260.6 120.31 Q 269.28 127.03 274.18 137.39 L 274.18 137.39 L 274.18 137.39 Q 279.08 147.75 279.08 162.31 L 279.08 162.31 L 279.08 162.31 Q 279.08 182.75 268.3 196.19 L 268.3 196.19 L 268.3 196.19 Q 257.52 209.63 239.04 215.51 L 239.04 215.51 L 239.04 215.51 Q 251.08 234.55 264.24 253.31 L 264.24 253.31 L 264.24 253.31 Q 277.4 272.07 291.68 290.55 L 291.68 290.55 L 306.8 298.67 L 306.8 305.67 L 272.92 305.67 L 262.28 297.83 L 262.28 297.83 Q 254.44 288.03 248 278.65 L 248 278.65 L 248 278.65 Q 241.56 269.27 235.96 259.61 L 235.96 259.61 L 235.96 259.61 Q 230.36 249.95 225.46 240.01 L 225.46 240.01 L 225.46 240.01 Q 220.56 230.07 215.52 218.87 L 215.52 218.87 L 189.2 218.87 Z  M 208.24 121.99 L 208.24 121.99 L 208.24 121.99 Q 201.52 121.99 197.18 122.268 L 197.18 122.268 L 197.18 122.268 Q 192.84 122.546 189.2 123.381 L 189.2 123.381 L 189.2 206.55 L 209.36 206.55 L 209.36 206.55 Q 228.68 206.55 240.02 194.311 L 240.02 194.311 L 240.02 194.311 Q 251.36 182.072 251.36 162.045 L 251.36 162.045 L 251.36 162.045 Q 251.36 141.461 239.32 131.726 L 239.32 131.726 L 239.32 131.726 Q 227.28 121.99 208.24 121.99 Z " fill="rgb(238,44,44)"/><path d=" M 982.98 228.11 L 982.98 292.23 L 982.98 292.23 Q 977.66 295.31 970.52 298.25 L 970.52 298.25 L 970.52 298.25 Q 963.38 301.19 955.4 303.57 L 955.4 303.57 L 955.4 303.57 Q 947.42 305.95 939.44 307.49 L 939.44 307.49 L 939.44 307.49 Q 931.46 309.03 924.46 309.03 L 924.46 309.03 L 924.46 309.03 Q 902.06 309.03 884.14 303.01 L 884.14 303.01 L 884.14 303.01 Q 866.22 296.99 853.62 284.53 L 853.62 284.53 L 853.62 284.53 Q 841.02 272.07 834.16 253.03 L 834.16 253.03 L 834.16 253.03 Q 827.3 233.99 827.3 207.67 L 827.3 207.67 L 827.3 207.67 Q 827.3 180.23 835.28 160.91 L 835.28 160.91 L 835.28 160.91 Q 843.26 141.59 856.56 129.41 L 856.56 129.41 L 856.56 129.41 Q 869.86 117.23 886.8 111.77 L 886.8 111.77 L 886.8 111.77 Q 903.74 106.31 921.38 106.31 L 921.38 106.31 L 921.38 106.31 Q 939.86 106.31 952.6 108.69 L 952.6 108.69 L 952.6 108.69 Q 965.34 111.07 974.86 115.83 L 974.86 115.83 L 974.86 115.83 Q 974.86 120.03 974.58 126.19 L 974.58 126.19 L 974.58 126.19 Q 974.3 132.35 973.74 139.07 L 973.74 139.07 L 973.74 139.07 Q 973.18 145.79 972.34 152.37 L 972.34 152.37 L 972.34 152.37 Q 971.5 158.95 970.66 163.99 L 970.66 163.99 L 963.38 163.99 L 948.82 123.67 L 948.82 123.67 Q 945.74 121.99 938.46 121.43 L 938.46 121.43 L 938.46 121.43 Q 931.18 120.87 924.18 120.87 L 924.18 120.87 L 924.18 120.87 Q 910.18 120.87 897.58 126.05 L 897.58 126.05 L 897.58 126.05 Q 884.98 131.23 875.6 142.01 L 875.6 142.01 L 875.6 142.01 Q 866.22 152.79 860.62 169.17 L 860.62 169.17 L 860.62 169.17 Q 855.02 185.55 855.02 207.67 L 855.02 207.67 L 855.02 207.67 Q 855.02 227.55 860.48 243.51 L 860.48 243.51 L 860.48 243.51 Q 865.94 259.47 875.6 270.81 L 875.6 270.81 L 875.6 270.81 Q 885.26 282.15 898.28 288.31 L 898.28 288.31 L 898.28 288.31 Q 911.3 294.47 926.42 294.47 L 926.42 294.47 L 926.42 294.47 Q 932.02 294.47 937.34 293.35 L 937.34 293.35 L 937.34 293.35 Q 942.66 292.23 947.14 290.69 L 947.14 290.69 L 947.14 290.69 Q 951.62 289.15 954.56 287.47 L 954.56 287.47 L 954.56 287.47 Q 957.5 285.79 958.62 284.67 L 958.62 284.67 L 958.62 228.11 L 958.62 228.11 Q 951.34 227.55 944.76 225.59 L 944.76 225.59 L 944.76 225.59 Q 938.18 223.63 931.74 221.39 L 931.74 221.39 L 931.74 213.27 L 1000.34 213.27 L 1000.34 221.39 L 1000.34 221.39 Q 997.54 223.35 993.62 225.03 L 993.62 225.03 L 993.62 225.03 Q 989.7 226.71 982.98 228.11 L 982.98 228.11 Z  M 1216.5 333.95 L 1217.9 337.87 L 1217.9 337.87 Q 1206.7 347.95 1194.94 355.09 L 1194.94 355.09 L 1194.94 355.09 Q 1183.18 362.23 1169.74 361.95 L 1169.74 361.95 L 1169.74 361.95 Q 1158.26 361.95 1145.66 357.75 L 1145.66 357.75 L 1145.66 357.75 Q 1133.06 353.55 1118.78 347.67 L 1118.78 347.67 L 1118.78 347.67 Q 1104.5 341.79 1088.4 335.35 L 1088.4 335.35 L 1088.4 335.35 Q 1072.3 328.91 1053.54 324.15 L 1053.54 324.15 L 1061.94 318.55 L 1061.94 318.55 Q 1068.1 317.71 1073.98 317.71 L 1073.98 317.71 L 1073.98 317.71 Q 1087.98 317.71 1101.56 321.07 L 1101.56 321.07 L 1101.56 321.07 Q 1115.14 324.43 1128.86 328.35 L 1128.86 328.35 L 1128.86 328.35 Q 1142.58 332.27 1156.58 335.63 L 1156.58 335.63 L 1156.58 335.63 Q 1170.58 338.99 1185.14 338.99 L 1185.14 338.99 L 1185.14 338.99 Q 1192.7 338.99 1200.54 337.87 L 1200.54 337.87 L 1200.54 337.87 Q 1208.38 336.75 1216.5 333.95 L 1216.5 333.95 Z  M 1019.94 207.67 L 1019.94 207.67 L 1019.94 207.67 Q 1019.94 185.83 1025.96 167.21 L 1025.96 167.21 L 1025.96 167.21 Q 1031.98 148.59 1043.32 135.01 L 1043.32 135.01 L 1043.32 135.01 Q 1054.66 121.43 1071.18 113.87 L 1071.18 113.87 L 1071.18 113.87 Q 1087.7 106.31 1108.7 106.31 L 1108.7 106.31 L 1108.7 106.31 Q 1129.7 106.31 1146.22 113.87 L 1146.22 113.87 L 1146.22 113.87 Q 1162.74 121.43 1174.08 135.01 L 1174.08 135.01 L 1174.08 135.01 Q 1185.42 148.59 1191.44 167.21 L 1191.44 167.21 L 1191.44 167.21 Q 1197.46 185.83 1197.46 207.67 L 1197.46 207.67 L 1197.46 207.67 Q 1197.46 229.51 1191.44 248.13 L 1191.44 248.13 L 1191.44 248.13 Q 1185.42 266.75 1174.08 280.33 L 1174.08 280.33 L 1174.08 280.33 Q 1162.74 293.91 1146.22 301.47 L 1146.22 301.47 L 1146.22 301.47 Q 1129.7 309.03 1108.7 309.03 L 1108.7 309.03 L 1108.7 309.03 Q 1087.7 309.03 1071.18 301.47 L 1071.18 301.47 L 1071.18 301.47 Q 1054.66 293.91 1043.32 280.33 L 1043.32 280.33 L 1043.32 280.33 Q 1031.98 266.75 1025.96 248.13 L 1025.96 248.13 L 1025.96 248.13 Q 1019.94 229.51 1019.94 207.67 Z  M 1049.9 207.67 L 1049.9 207.67 L 1049.9 207.67 Q 1049.9 225.59 1053.68 241.41 L 1053.68 241.41 L 1053.68 241.41 Q 1057.46 257.23 1065.02 268.99 L 1065.02 268.99 L 1065.02 268.99 Q 1072.58 280.75 1084.06 287.61 L 1084.06 287.61 L 1084.06 287.61 Q 1095.54 294.47 1111.22 294.47 L 1111.22 294.47 L 1111.22 294.47 Q 1125.5 294.47 1136.14 287.61 L 1136.14 287.61 L 1136.14 287.61 Q 1146.78 280.75 1153.64 268.99 L 1153.64 268.99 L 1153.64 268.99 Q 1160.5 257.23 1164 241.41 L 1164 241.41 L 1164 241.41 Q 1167.5 225.59 1167.5 207.67 L 1167.5 207.67 L 1167.5 207.67 Q 1167.5 189.75 1163.86 173.93 L 1163.86 173.93 L 1163.86 173.93 Q 1160.22 158.11 1152.66 146.35 L 1152.66 146.35 L 1152.66 146.35 Q 1145.1 134.59 1133.62 127.73 L 1133.62 127.73 L 1133.62 127.73 Q 1122.14 120.87 1106.46 120.87 L 1106.46 120.87 L 1106.46 120.87 Q 1091.06 120.87 1080.28 127.73 L 1080.28 127.73 L 1080.28 127.73 Q 1069.5 134.59 1062.78 146.35 L 1062.78 146.35 L 1062.78 146.35 Q 1056.06 158.11 1052.98 173.93 L 1052.98 173.93 L 1052.98 173.93 Q 1049.9 189.75 1049.9 207.67 Z " fill="rgb(101,93,84)"/></svg>