<?xml version="1.0" encoding="UTF-8" standalone="no"?><!-- Generator: Gravit.io --><svg xmlns="http://www.w3.org/2000/svg" xmlns:xlink="http://www.w3.org/1999/xlink" style="isolation:isolate" viewBox="644.776 383.1 75 75" width="75pt" height="75pt"><g><g style="mix-blend-mode:normal;" opacity="0.15"><path d="M 657.276 385.6 L 707.276 385.6 C 712.795 385.6 717.276 390.08 717.276 395.6 L 717.276 445.6 C 717.276 451.119 712.795 455.6 707.276 455.6 L 657.276 455.6 C 651.756 455.6 647.276 451.119 647.276 445.6 L 647.276 395.6 C 647.276 390.08 651.756 385.6 657.276 385.6 Z" style="stroke:none;fill:#E9CBAF;stroke-miterlimit:10;"/></g><g opacity="0.6"><ellipse vector-effect="non-scaling-stroke" cx="682.2756113451169" cy="437.0849964172257" rx="20" ry="11.54700538379251" fill="rgb(238,44,44)"/></g><linearGradient id="_lgradient_7" x1="0.14644670536440751" y1="0.1464467053644075" x2="0.8535532946355925" y2="0.8535532946355928" gradientTransform="matrix(75,0,0,75,644.776,383.1)" gradientUnits="userSpaceOnUse"><stop offset="0%" stop-opacity="1" style="stop-color:rgb(238,44,44)"/><stop offset="100%" stop-opacity="1" style="stop-color:rgb(101,93,84)"/></linearGradient><path d=" M 657.276 388.1 L 707.276 388.1 C 709.266 388.1 711.176 388.89 712.576 390.3 C 713.986 391.7 714.776 393.61 714.776 395.6 L 714.776 445.6 C 714.776 447.59 713.986 449.5 712.576 450.9 C 711.176 452.31 709.266 453.1 707.276 453.1 L 657.276 453.1 C 655.286 453.1 653.376 452.31 651.976 450.9 C 650.566 449.5 649.776 447.59 649.776 445.6 L 649.776 395.6 C 649.776 393.61 650.566 391.7 651.976 390.3 C 653.376 388.89 655.286 388.1 657.276 388.1 L 657.276 388.1 Z  M 657.276 383.1 L 707.276 383.1 C 710.586 383.1 713.776 384.42 716.116 386.76 C 718.456 389.1 719.776 392.29 719.776 395.6 L 719.776 445.6 C 719.776 448.91 718.456 452.1 716.116 454.44 C 713.776 456.78 710.586 458.1 707.276 458.1 L 657.276 458.1 C 653.966 458.1 650.776 456.78 648.436 454.44 C 646.096 452.1 644.776 448.91 644.776 445.6 L 644.776 395.6 C 644.776 392.29 646.096 389.1 648.436 386.76 C 650.776 384.42 653.966 383.1 657.276 383.1 L 657.276 383.1 Z  M 677.276 407.567 C 677.276 404.808 679.516 402.567 682.276 402.567 C 685.035 402.567 687.276 404.808 687.276 407.567 C 687.276 410.327 685.035 412.567 682.276 412.567 C 679.516 412.567 677.276 410.327 677.276 407.567 L 677.276 407.567 Z  M 667.276 407.567 C 667.276 399.289 673.997 392.567 682.276 392.567 C 690.554 392.567 697.276 399.289 697.276 407.567 Q 697.276 415.846 682.844 436.744 C 682.53 437.199 682.021 437.199 681.707 436.744 Q 667.276 415.846 667.276 407.567 L 667.276 407.567 Z " fill-rule="evenodd" fill="url(#_lgradient_7)"/></g></svg>