<?xml version="1.0" encoding="UTF-8" standalone="no"?><!-- Generator: Gravit.io --><svg xmlns="http://www.w3.org/2000/svg" xmlns:xlink="http://www.w3.org/1999/xlink" style="isolation:isolate" viewBox="0 0 54.48 75" width="54.48pt" height="75pt"><g><path d=" M 4.26 14.52 C 3.8 14.99 3.16 15.26 2.5 15.26 C 1.83 15.26 1.2 14.99 0.73 14.52 C 0.26 14.06 0 13.42 0 12.76 C 0 12.09 0.26 11.46 0.73 10.99 C 7.76 3.96 17.3 0 27.24 0 C 37.18 0 46.72 3.96 53.75 10.99 C 54.22 11.46 54.48 12.09 54.48 12.76 C 54.48 13.42 54.22 14.06 53.75 14.52 C 53.28 14.99 52.65 15.26 51.98 15.26 C 51.32 15.26 50.68 14.99 50.22 14.52 C 44.13 8.43 35.86 5 27.24 5 C 18.62 5 10.35 8.43 4.26 14.52 L 4.26 14.52 L 4.26 14.52 Z  M 50.22 60.48 C 50.68 60.01 51.32 59.74 51.98 59.74 C 52.65 59.74 53.28 60.01 53.75 60.48 C 54.22 60.94 54.48 61.58 54.48 62.24 C 54.48 62.91 54.22 63.54 53.75 64.01 C 46.72 71.04 37.18 75 27.24 75 C 17.3 75 7.76 71.04 0.73 64.01 C 0.26 63.54 0 62.91 0 62.24 C 0 61.58 0.26 60.94 0.73 60.48 C 1.2 60.01 1.83 59.74 2.5 59.74 C 3.16 59.74 3.8 60.01 4.26 60.48 C 10.35 66.57 18.62 70 27.24 70 C 35.86 70 44.13 66.57 50.22 60.48 L 50.22 60.48 L 50.22 60.48 Z  M 5.24 37.5 C 5.24 31.67 7.56 26.07 11.68 21.94 C 15.81 17.82 21.41 15.5 27.24 15.5 C 33.07 15.5 38.67 17.82 42.8 21.94 C 46.92 26.07 49.24 31.67 49.24 37.5 C 49.24 43.33 46.92 48.93 42.8 53.06 C 38.67 57.18 33.07 59.5 27.24 59.5 C 21.41 59.5 15.81 57.18 11.68 53.06 C 7.56 48.93 5.24 43.33 5.24 37.5 L 5.24 37.5 L 5.24 37.5 Z  M 0.24 37.5 C 0.24 30.34 3.09 23.47 8.15 18.41 C 13.21 13.35 20.08 10.5 27.24 10.5 C 34.4 10.5 41.27 13.35 46.33 18.41 C 51.39 23.47 54.24 30.34 54.24 37.5 C 54.24 44.66 51.39 51.53 46.33 56.59 C 41.27 61.65 34.4 64.5 27.24 64.5 C 20.08 64.5 13.21 61.65 8.15 56.59 C 3.09 51.53 0.24 44.66 0.24 37.5 L 0.24 37.5 L 0.24 37.5 Z  M 19.011 35.844 L 26.561 43.394 L 35.001 26.494 C 35.301 25.904 35.821 25.454 36.451 25.244 C 37.081 25.034 37.771 25.084 38.361 25.374 C 38.951 25.674 39.401 26.194 39.611 26.824 C 39.821 27.454 39.771 28.144 39.481 28.734 L 29.721 48.254 C 29.251 49.234 28.261 49.864 27.171 49.884 C 26.391 49.884 25.641 49.574 25.101 49.014 L 15.471 39.384 C 15.001 38.914 14.741 38.274 14.741 37.614 C 14.741 36.954 15.001 36.314 15.471 35.844 C 15.941 35.374 16.581 35.114 17.241 35.114 C 17.901 35.114 18.541 35.374 19.011 35.844 Z " fill-rule="evenodd" fill="rgb(221,42,42)"/><circle vector-effect="non-scaling-stroke" cx="27.23999694824215" cy="37.50000056150088" r="24.5" fill="rgb(238,44,44)" fill-opacity="0.25"/></g></svg>