<?xml version="1.0" encoding="UTF-8" standalone="no"?><!-- Generator: Gravit.io --><svg xmlns="http://www.w3.org/2000/svg" xmlns:xlink="http://www.w3.org/1999/xlink" style="isolation:isolate" viewBox="683.5 406.979 40 38.042" width="40pt" height="38.042pt"><g><path d=" M 683.5 421.51 L 698.773 421.51 L 698.78 421.504 L 703.5 406.979 L 708.22 421.504 L 708.227 421.51 L 723.5 421.51 L 711.144 430.487 L 711.141 430.496 L 715.861 445.021 L 703.504 436.044 L 703.496 436.044 L 691.139 445.021 L 695.859 430.496 L 695.856 430.487 L 683.5 421.51 Z " fill="rgb(238,44,44)"/><g><path d=" M 703.5 406.979 L 708.22 421.504 L 703.5 428.008 L 703.5 406.979 Z " fill="rgb(238,44,44)"/><path d=" M 703.5 406.979 L 698.78 421.504 L 703.5 428.008 L 703.5 406.979 Z " fill="rgb(221,42,42)"/><path d=" M 723.5 421.51 L 711.144 430.487 L 703.5 428.008 L 723.5 421.51 Z " fill="rgb(238,44,44)"/><path d=" M 723.5 421.51 L 708.227 421.51 L 703.5 428.008 L 723.5 421.51 Z " fill="rgb(221,42,42)"/><path d=" M 715.861 445.021 L 703.504 436.044 L 703.5 428.008 L 715.861 445.021 Z " fill="rgb(238,44,44)"/><path d=" M 715.861 445.021 L 711.141 430.496 L 703.5 428.008 L 715.861 445.021 Z " fill="rgb(221,42,42)"/><path d=" M 691.139 445.021 L 695.859 430.496 L 703.5 428.008 L 691.139 445.021 Z " fill="rgb(238,44,44)"/><path d=" M 691.139 445.021 L 703.496 436.044 L 703.5 428.008 L 691.139 445.021 Z " fill="rgb(221,42,42)"/><path d=" M 683.5 421.51 L 698.773 421.51 L 703.5 428.008 L 683.5 421.51 Z " fill="rgb(238,44,44)"/><path d=" M 683.5 421.51 L 695.856 430.487 L 703.5 428.008 L 683.5 421.51 Z " fill="rgb(221,42,42)"/></g></g></svg>