<?xml version="1.0" encoding="UTF-8" standalone="no"?><!-- Generator: Gravit.io --><svg xmlns="http://www.w3.org/2000/svg" xmlns:xlink="http://www.w3.org/1999/xlink" style="isolation:isolate" viewBox="645.5 403.6 103 44.8" width="103pt" height="44.8pt"><linearGradient id="_lgradient_3" x1="0" y1="0.5" x2="1" y2="0.5" gradientTransform="matrix(103,0,0,44.8,645.5,403.6)" gradientUnits="userSpaceOnUse"><stop offset="0%" stop-opacity="1" style="stop-color:rgb(238,44,44)"/><stop offset="100%" stop-opacity="1" style="stop-color:rgb(101,93,84)"/></linearGradient><path d=" M 652 406.6 L 742 406.6 C 742.93 406.6 743.82 406.97 744.47 407.63 C 745.13 408.28 745.5 409.17 745.5 410.1 L 745.5 441.9 C 745.5 442.83 745.13 443.72 744.47 444.37 C 743.82 445.03 742.93 445.4 742 445.4 L 652 445.4 C 651.07 445.4 650.18 445.03 649.53 444.37 C 648.87 443.72 648.5 442.83 648.5 441.9 L 648.5 410.1 C 648.5 409.17 648.87 408.28 649.53 407.63 C 650.18 406.97 651.07 406.6 652 406.6 L 652 406.6 Z  M 652 403.6 L 742 403.6 C 743.72 403.6 745.38 404.29 746.6 405.5 C 747.81 406.72 748.5 408.38 748.5 410.1 L 748.5 441.9 C 748.5 443.62 747.81 445.28 746.6 446.5 C 745.38 447.71 743.72 448.4 742 448.4 L 652 448.4 C 650.28 448.4 648.62 447.71 647.4 446.5 C 646.19 445.28 645.5 443.62 645.5 441.9 L 645.5 410.1 C 645.5 408.38 646.19 406.72 647.4 405.5 C 648.62 404.29 650.28 403.6 652 403.6 L 652 403.6 Z  M 663.768 434.34 L 663.768 435.036 L 657.696 435.036 L 657.696 434.34 L 657.696 434.34 Q 658.656 433.956 659.664 433.764 L 659.664 433.764 L 659.664 419.532 L 659.664 419.532 Q 658.536 419.364 657.696 418.932 L 657.696 418.932 L 657.696 418.236 L 663.768 418.236 L 663.768 418.932 L 663.768 418.932 Q 663.36 419.148 662.904 419.292 L 662.904 419.292 L 662.904 419.292 Q 662.448 419.436 661.968 419.532 L 661.968 419.532 L 661.968 425.796 L 669.504 425.796 L 669.504 419.532 L 669.504 419.532 Q 669 419.412 668.556 419.268 L 668.556 419.268 L 668.556 419.268 Q 668.112 419.124 667.704 418.932 L 667.704 418.932 L 667.704 418.236 L 673.776 418.236 L 673.776 418.932 L 673.776 418.932 Q 673.344 419.172 672.828 419.304 L 672.828 419.304 L 672.828 419.304 Q 672.312 419.436 671.808 419.532 L 671.808 419.532 L 671.808 433.764 L 671.808 433.764 Q 672.36 433.86 672.864 434.004 L 672.864 434.004 L 672.864 434.004 Q 673.368 434.148 673.776 434.34 L 673.776 434.34 L 673.776 435.036 L 667.704 435.036 L 667.704 434.34 L 667.704 434.34 Q 668.568 433.956 669.504 433.764 L 669.504 433.764 L 669.504 427.044 L 661.968 427.044 L 661.968 433.764 L 661.968 433.764 Q 662.448 433.86 662.904 434.004 L 662.904 434.004 L 662.904 434.004 Q 663.36 434.148 663.768 434.34 L 663.768 434.34 L 663.768 434.34 L 663.768 434.34 Z  M 679.208 433.836 L 679.208 433.836 L 679.208 433.836 Q 679.808 433.836 680.264 433.596 L 680.264 433.596 L 680.264 433.596 Q 680.72 433.356 681.032 433.02 L 681.032 433.02 L 681.032 433.02 Q 681.344 432.684 681.536 432.336 L 681.536 432.336 L 681.536 432.336 Q 681.728 431.988 681.8 431.748 L 681.8 431.748 L 681.8 429.228 L 681.8 429.228 Q 680.408 429.228 679.52 429.372 L 679.52 429.372 L 679.52 429.372 Q 678.632 429.516 678.128 429.828 L 678.128 429.828 L 678.128 429.828 Q 677.624 430.14 677.432 430.608 L 677.432 430.608 L 677.432 430.608 Q 677.24 431.076 677.24 431.676 L 677.24 431.676 L 677.24 431.676 Q 677.24 432.708 677.768 433.272 L 677.768 433.272 L 677.768 433.272 Q 678.296 433.836 679.208 433.836 L 679.208 433.836 Z  M 686.36 423.66 L 686.36 423.036 L 691.52 423.036 L 691.52 423.66 L 691.52 423.66 Q 691.28 423.828 690.92 423.984 L 690.92 423.984 L 690.92 423.984 Q 690.56 424.14 690.104 424.236 L 690.104 424.236 L 690.104 427.116 L 690.104 427.116 Q 690.104 428.244 690.584 428.928 L 690.584 428.928 L 690.584 428.928 Q 691.064 429.612 692.192 429.612 L 692.192 429.612 L 692.192 429.612 Q 692.864 429.612 693.5 429.408 L 693.5 429.408 L 693.5 429.408 Q 694.136 429.204 694.712 428.868 L 694.712 428.868 L 694.712 424.236 L 694.712 424.236 Q 693.992 424.092 693.296 423.66 L 693.296 423.66 L 693.296 423.036 L 698.456 423.036 L 698.456 423.66 L 698.456 423.66 Q 697.808 424.068 696.872 424.236 L 696.872 424.236 L 696.872 433.86 L 696.872 433.86 Q 697.352 433.98 697.736 434.112 L 697.736 434.112 L 697.736 434.112 Q 698.12 434.244 698.456 434.436 L 698.456 434.436 L 698.456 435.036 L 692.792 435.036 L 692.792 434.436 L 692.792 434.436 Q 693.776 434.028 694.712 433.86 L 694.712 433.86 L 694.712 429.564 L 694.712 429.564 Q 694.136 430.188 693.344 430.584 L 693.344 430.584 L 693.344 430.584 Q 692.552 430.98 691.352 430.98 L 691.352 430.98 L 691.352 430.98 Q 689.72 430.98 688.832 430.068 L 688.832 430.068 L 688.832 430.068 Q 687.944 429.156 687.944 427.596 L 687.944 427.596 L 687.944 424.236 L 687.944 424.236 Q 687.032 424.068 686.36 423.66 L 686.36 423.66 L 686.36 423.66 L 686.36 423.66 Z  M 704.208 433.836 L 704.208 433.836 L 704.208 433.836 Q 704.808 433.836 705.264 433.596 L 705.264 433.596 L 705.264 433.596 Q 705.72 433.356 706.032 433.02 L 706.032 433.02 L 706.032 433.02 Q 706.344 432.684 706.536 432.336 L 706.536 432.336 L 706.536 432.336 Q 706.728 431.988 706.8 431.748 L 706.8 431.748 L 706.8 429.228 L 706.8 429.228 Q 705.408 429.228 704.52 429.372 L 704.52 429.372 L 704.52 429.372 Q 703.632 429.516 703.128 429.828 L 703.128 429.828 L 703.128 429.828 Q 702.624 430.14 702.432 430.608 L 702.432 430.608 L 702.432 430.608 Q 702.24 431.076 702.24 431.676 L 702.24 431.676 L 702.24 431.676 Q 702.24 432.708 702.768 433.272 L 702.768 433.272 L 702.768 433.272 Q 703.296 433.836 704.208 433.836 L 704.208 433.836 Z  M 719.616 434.436 L 719.616 435.036 L 714.288 435.036 L 714.288 434.436 L 714.288 434.436 Q 715.032 434.052 715.872 433.86 L 715.872 433.86 L 715.872 424.092 L 713.64 424.092 L 712.584 426.972 L 711.96 426.972 L 711.96 426.972 Q 711.84 425.94 711.768 424.944 L 711.768 424.944 L 711.768 424.944 Q 711.696 423.948 711.672 423.036 L 711.672 423.036 L 722.232 423.036 L 722.232 423.036 Q 722.208 423.9 722.148 424.92 L 722.148 424.92 L 722.148 424.92 Q 722.088 425.94 721.944 426.972 L 721.944 426.972 L 721.32 426.972 L 720.264 424.092 L 718.032 424.092 L 718.032 433.86 L 718.032 433.86 Q 719.16 434.148 719.616 434.436 L 719.616 434.436 L 719.616 434.436 L 719.616 434.436 Z  M 727.68 428.892 L 727.68 434.004 L 727.68 434.004 Q 727.992 434.028 728.304 434.052 L 728.304 434.052 L 728.304 434.052 Q 728.616 434.076 728.952 434.076 L 728.952 434.076 L 728.952 434.076 Q 730.344 434.076 731.124 433.38 L 731.124 433.38 L 731.124 433.38 Q 731.904 432.684 731.904 431.196 L 731.904 431.196 L 731.904 431.196 Q 731.904 430.524 731.688 430.056 L 731.688 430.056 L 731.688 430.056 Q 731.472 429.588 731.112 429.312 L 731.112 429.312 L 731.112 429.312 Q 730.752 429.036 730.26 428.916 L 730.26 428.916 L 730.26 428.916 Q 729.768 428.796 729.216 428.796 L 729.216 428.796 L 729.216 428.796 Q 728.832 428.796 728.436 428.808 L 728.436 428.808 L 728.436 428.808 Q 728.04 428.82 727.68 428.892 L 727.68 428.892 L 727.68 428.892 L 727.68 428.892 Z  M 683.84 431.892 L 683.84 431.892 L 683.84 431.892 Q 683.84 432.42 683.864 432.804 L 683.864 432.804 L 683.864 432.804 Q 683.888 433.188 683.912 433.62 L 683.912 433.62 L 685.568 433.86 L 685.568 434.364 L 685.568 434.364 Q 684.968 434.676 684.236 434.916 L 684.236 434.916 L 684.236 434.916 Q 683.504 435.156 682.832 435.276 L 682.832 435.276 L 682.232 435.276 L 682.232 435.276 Q 681.992 434.724 681.944 434.064 L 681.944 434.064 L 681.944 434.064 Q 681.896 433.404 681.872 432.612 L 681.872 432.612 L 681.752 432.612 L 681.752 432.612 Q 681.656 433.092 681.38 433.584 L 681.38 433.584 L 681.38 433.584 Q 681.104 434.076 680.66 434.46 L 680.66 434.46 L 680.66 434.46 Q 680.216 434.844 679.616 435.084 L 679.616 435.084 L 679.616 435.084 Q 679.016 435.324 678.248 435.324 L 678.248 435.324 L 678.248 435.324 Q 676.784 435.324 675.86 434.436 L 675.86 434.436 L 675.86 434.436 Q 674.936 433.548 674.936 432.108 L 674.936 432.108 L 674.936 432.108 Q 674.936 431.004 675.38 430.296 L 675.38 430.296 L 675.38 430.296 Q 675.824 429.588 676.688 429.18 L 676.688 429.18 L 676.688 429.18 Q 677.552 428.772 678.824 428.592 L 678.824 428.592 L 678.824 428.592 Q 680.096 428.412 681.776 428.316 L 681.776 428.316 L 681.776 428.316 Q 681.872 427.284 681.836 426.456 L 681.836 426.456 L 681.836 426.456 Q 681.8 425.628 681.572 425.04 L 681.572 425.04 L 681.572 425.04 Q 681.344 424.452 680.9 424.128 L 680.9 424.128 L 680.9 424.128 Q 680.456 423.804 679.736 423.804 L 679.736 423.804 L 679.736 423.804 Q 679.4 423.804 678.98 423.84 L 678.98 423.84 L 678.98 423.84 Q 678.56 423.876 678.152 424.044 L 678.152 424.044 L 677.024 426.924 L 676.4 426.924 L 676.4 426.924 Q 676.16 426.204 675.98 425.436 L 675.98 425.436 L 675.98 425.436 Q 675.8 424.668 675.752 423.924 L 675.752 423.924 L 675.752 423.924 Q 676.664 423.372 677.78 423.06 L 677.78 423.06 L 677.78 423.06 Q 678.896 422.748 680.264 422.748 L 680.264 422.748 L 680.264 422.748 Q 681.488 422.748 682.22 423.096 L 682.22 423.096 L 682.22 423.096 Q 682.952 423.444 683.336 423.996 L 683.336 423.996 L 683.336 423.996 Q 683.72 424.548 683.84 425.22 L 683.84 425.22 L 683.84 425.22 Q 683.96 425.892 683.96 426.564 L 683.96 426.564 L 683.96 426.564 Q 683.96 428.004 683.9 429.336 L 683.9 429.336 L 683.9 429.336 Q 683.84 430.668 683.84 431.892 L 683.84 431.892 Z  M 708.84 431.892 L 708.84 431.892 L 708.84 431.892 Q 708.84 432.42 708.864 432.804 L 708.864 432.804 L 708.864 432.804 Q 708.888 433.188 708.912 433.62 L 708.912 433.62 L 710.568 433.86 L 710.568 434.364 L 710.568 434.364 Q 709.968 434.676 709.236 434.916 L 709.236 434.916 L 709.236 434.916 Q 708.504 435.156 707.832 435.276 L 707.832 435.276 L 707.232 435.276 L 707.232 435.276 Q 706.992 434.724 706.944 434.064 L 706.944 434.064 L 706.944 434.064 Q 706.896 433.404 706.872 432.612 L 706.872 432.612 L 706.752 432.612 L 706.752 432.612 Q 706.656 433.092 706.38 433.584 L 706.38 433.584 L 706.38 433.584 Q 706.104 434.076 705.66 434.46 L 705.66 434.46 L 705.66 434.46 Q 705.216 434.844 704.616 435.084 L 704.616 435.084 L 704.616 435.084 Q 704.016 435.324 703.248 435.324 L 703.248 435.324 L 703.248 435.324 Q 701.784 435.324 700.86 434.436 L 700.86 434.436 L 700.86 434.436 Q 699.936 433.548 699.936 432.108 L 699.936 432.108 L 699.936 432.108 Q 699.936 431.004 700.38 430.296 L 700.38 430.296 L 700.38 430.296 Q 700.824 429.588 701.688 429.18 L 701.688 429.18 L 701.688 429.18 Q 702.552 428.772 703.824 428.592 L 703.824 428.592 L 703.824 428.592 Q 705.096 428.412 706.776 428.316 L 706.776 428.316 L 706.776 428.316 Q 706.872 427.284 706.836 426.456 L 706.836 426.456 L 706.836 426.456 Q 706.8 425.628 706.572 425.04 L 706.572 425.04 L 706.572 425.04 Q 706.344 424.452 705.9 424.128 L 705.9 424.128 L 705.9 424.128 Q 705.456 423.804 704.736 423.804 L 704.736 423.804 L 704.736 423.804 Q 704.4 423.804 703.98 423.84 L 703.98 423.84 L 703.98 423.84 Q 703.56 423.876 703.152 424.044 L 703.152 424.044 L 702.024 426.924 L 701.4 426.924 L 701.4 426.924 Q 701.16 426.204 700.98 425.436 L 700.98 425.436 L 700.98 425.436 Q 700.8 424.668 700.752 423.924 L 700.752 423.924 L 700.752 423.924 Q 701.664 423.372 702.78 423.06 L 702.78 423.06 L 702.78 423.06 Q 703.896 422.748 705.264 422.748 L 705.264 422.748 L 705.264 422.748 Q 706.488 422.748 707.22 423.096 L 707.22 423.096 L 707.22 423.096 Q 707.952 423.444 708.336 423.996 L 708.336 423.996 L 708.336 423.996 Q 708.72 424.548 708.84 425.22 L 708.84 425.22 L 708.84 425.22 Q 708.96 425.892 708.96 426.564 L 708.96 426.564 L 708.96 426.564 Q 708.96 428.004 708.9 429.336 L 708.9 429.336 L 708.9 429.336 Q 708.84 430.668 708.84 431.892 L 708.84 431.892 Z  M 727.68 424.236 L 727.68 427.932 L 727.68 427.932 Q 728.088 427.884 728.592 427.812 L 728.592 427.812 L 728.592 427.812 Q 729.096 427.74 730.056 427.74 L 730.056 427.74 L 730.056 427.74 Q 732.024 427.74 733.152 428.58 L 733.152 428.58 L 733.152 428.58 Q 734.28 429.42 734.28 431.22 L 734.28 431.22 L 734.28 431.22 Q 734.28 432.18 733.908 432.912 L 733.908 432.912 L 733.908 432.912 Q 733.536 433.644 732.888 434.136 L 732.888 434.136 L 732.888 434.136 Q 732.24 434.628 731.328 434.88 L 731.328 434.88 L 731.328 434.88 Q 730.416 435.132 729.336 435.132 L 729.336 435.132 L 729.336 435.132 Q 728.688 435.132 727.884 435.084 L 727.884 435.084 L 727.884 435.084 Q 727.08 435.036 726.168 435.036 L 726.168 435.036 L 723.936 435.036 L 723.936 434.436 L 723.936 434.436 Q 724.296 434.244 724.704 434.112 L 724.704 434.112 L 724.704 434.112 Q 725.112 433.98 725.52 433.86 L 725.52 433.86 L 725.52 424.236 L 725.52 424.236 Q 725.064 424.14 724.68 423.996 L 724.68 423.996 L 724.68 423.996 Q 724.296 423.852 723.936 423.66 L 723.936 423.66 L 723.936 423.036 L 729.12 423.036 L 729.12 423.66 L 729.12 423.66 Q 728.544 423.996 727.68 424.236 L 727.68 424.236 L 727.68 424.236 L 727.68 424.236 Z " fill-rule="evenodd" fill="url(#_lgradient_3)"/></svg>