<?xml version="1.0" encoding="UTF-8" standalone="no"?><!-- Generator: Gravit.io --><svg xmlns="http://www.w3.org/2000/svg" xmlns:xlink="http://www.w3.org/1999/xlink" style="isolation:isolate" viewBox="0 0 1000 1000" width="1000pt" height="1000pt"><path d=" M 0 0 L 1000 0 L 1000 270.27 L 756.757 270.27 L 756.757 513.514 L 513.514 513.514 L 513.514 756.757 L 270.27 756.757 L 270.27 1000 L 0 1000 L 0 0 Z " id="border" fill="rgb(255,255,255)"/><linearGradient id="_lgradient_1" x1="0.1464466094067262" y1="0.14644660940672627" x2="0.8535533905932737" y2="0.8535533905932737" gradientTransform="matrix(945.946,0,0,945.946,27.027,27.027)" gradientUnits="userSpaceOnUse"><stop offset="0%" stop-opacity="1" style="stop-color:rgb(253,191,140)"/><stop offset="100%" stop-opacity="1" style="stop-color:rgb(223,206,112)"/></linearGradient><path d=" M 243.243 27.027 L 243.243 243.243 L 27.027 243.243 L 27.027 27.027 L 243.243 27.027 Z  M 486.486 27.027 L 486.486 243.243 L 270.27 243.243 L 270.27 27.027 L 486.486 27.027 Z  M 729.73 27.027 L 729.73 243.243 L 513.514 243.243 L 513.514 27.027 L 729.73 27.027 Z  M 972.973 27.027 L 972.973 243.243 L 756.757 243.243 L 756.757 27.027 L 972.973 27.027 Z  M 243.243 270.27 L 243.243 486.486 L 27.027 486.486 L 27.027 270.27 L 243.243 270.27 Z  M 486.486 270.27 L 486.486 486.486 L 270.27 486.486 L 270.27 270.27 L 486.486 270.27 Z  M 729.73 270.27 L 729.73 486.486 L 513.514 486.486 L 513.514 270.27 L 729.73 270.27 Z  M 243.243 513.514 L 243.243 729.73 L 27.027 729.73 L 27.027 513.514 L 243.243 513.514 Z  M 486.486 513.514 L 486.486 729.73 L 270.27 729.73 L 270.27 513.514 L 486.486 513.514 Z  M 27.027 756.757 L 243.243 756.757 L 243.243 972.973 L 27.027 972.973 L 27.027 756.757 Z " fill-rule="evenodd" id="quadrate" fill="url(#_lgradient_1)"/></svg>