<?xml version="1.0"?>
<svg xmlns="http://www.w3.org/2000/svg" height="512px" viewBox="0 0 480 480.8" width="512px" class="mdl-js"><g><path d="m480.398438 232.800781c-.796876-12-1.597657-24.800781-4-36.800781 0-.800781 0-.800781 0-1.601562-.796876-5.597657-2.398438-11.199219-4-16 0-.796876-.796876-2.398438-.796876-3.199219-1.601562-4.800781-2.402343-8.800781-4-12.800781 0-.796876-.800781-2.398438-.800781-3.199219-1.601562-4.800781-3.199219-9.597657-5.601562-13.597657-.800781-1.601562-1.597657-3.203124-2.398438-5.601562-1.601562-4-4-8-5.601562-12-.800781-1.601562-1.597657-3.199219-3.199219-4.800781-1.601562-3.199219-4-6.398438-5.601562-9.597657-.796876-1.601562-2.398438-3.203124-3.199219-4.800781-2.398438-4-5.597657-8-8-12-.800781-.800781-.800781-1.601562-1.597657-1.601562 0 0 0 0-.800781 0-44.800781-57.597657-111.199219-92-182.402343-94.398438v-.800781c-2.398438 0-5.597657 0-8 0-2.398438 0-5.597657 0-8 0-128.796876 4-232 110.398438-232 240s103.203124 236 232 240h8v.800781c58.402343 0 115.203124-21.601562 158.402343-60h.800781c.796876-.800781.796876-.800781 1.597657-1.601562 3.199219-3.199219 6.402343-6.398438 9.601562-9.597657 1.597657-1.601562 3.199219-3.203124 4.800781-4.800781 2.398438-2.402343 4.796876-5.601562 7.199219-8 1.597657-2.402343 3.199219-4 5.597657-6.402343 2.402343-3.199219 4.800781-5.597657 6.402343-8.796876.800781-1.601562 2.398438-3.203124 3.199219-4.800781 2.398438-4 5.601562-8 8-12 0-.800781.800781-.800781.800781-1.601562v-.800781c22.398438-37.597657 33.597657-79.199219 33.597657-121.597657 0-2.402343 0-5.601562 0-8zm-248 86.398438c-40-4-72-38.398438-72-79.199219 0-41.601562 31.203124-75.199219 72-79.199219zm0-174.398438c-48.796876 4-88 45.597657-88 95.199219 0 50.398438 38.402343 91.199219 88 95.199219v55.199219c-80-3.199219-143.199219-69.597657-143.199219-150.398438s64-147.199219 143.199219-151.199219zm0-72c-88.796876 4-159.199219 77.597657-159.199219 167.199219s70.402343 163.199219 159.199219 167.199219v56.800781c-120-4-216-103.199219-216-224s96-220 216-224zm192.800781 41.597657c1.601562 2.402343 3.199219 4.800781 4.800781 7.203124 1.601562 2.398438 3.199219 4.796876 4.800781 7.199219 1.597657 2.398438 2.398438 4.800781 4 6.398438.800781 1.601562 1.597657 4 3.199219 5.601562.800781 2.398438 2.398438 4.800781 3.199219 6.398438.800781 1.601562 1.601562 3.199219 2.402343 4.800781 1.597657 4 3.199219 7.199219 4.796876 11.199219.800781 1.601562.800781 2.402343 1.601562 4 .800781 3.199219 2.398438 6.402343 3.199219 9.601562 0 1.597657.800781 2.398438.800781 4 2.398438 8.800781 4 18.398438 5.601562 28v.800781c.796876 4.796876.796876 9.597657 1.597657 14.398438h-11.199219l-45.601562-65.601562v-26.398438l15.203124-19.199219c.796876 0 .796876.800781 1.597657 1.597657zm-176.800781 53.601562c20.800781 18.398438 32.800781 44.800781 32 72.800781.800781 28-11.199219 54.398438-32 72.800781zm0 164.800781 2.402343-1.601562c29.597657-20.800781 46.398438-54.398438 45.597657-90.398438.800781-36-16-69.601562-45.597657-90.402343l-2.402343-1.597657v-52.800781l4 2.398438c78.402343 52 100 158.402343 47.203124 237.601562-12.800781 19.199219-28.800781 35.199219-47.203124 47.199219l-4 2.402343zm0 125.597657v-53.597657l12.800781-8c86.402343-57.601562 109.601562-173.601562 52-260-13.597657-20.800781-31.199219-38.402343-52-52l-12.800781-8v-53.601562l8.800781 5.601562c73.601562 44.800781 119.199219 125.597657 119.199219 212 0 5.597657 0 10.398438-.796876 15.199219 0 1.601562 0 4-.800781 5.601562 0 3.199219-.800781 6.398438-.800781 10.398438 0 1.601562-.800781 4-.800781 5.601562-.800781 3.199219-.800781 6.398438-1.597657 9.597657 0 1.601562-.800781 3.199219-.800781 5.601562-.800781 3.199219-1.601562 6.398438-2.402343 10.398438 0 1.601562-.796876 3.199219-1.597657 4-.800781 4-2.402343 7.199219-3.199219 11.199219 0 .800781-.800781 1.601562-.800781 3.203124-1.601562 4-3.199219 8-4.800781 12 0 .796876-.800781.796876-.800781 1.597657-1.597657 4-4 8.800781-5.597657 12.800781 0 0 0 .800781-.800781.800781-20.800781 43.199219-53.601562 79.199219-94.402343 104zm84-385.597657h15.203124l16 32h-8.800781c-1.601562-2.402343-3.199219-4.800781-4.800781-7.199219l-.800781-1.601562c-2.398438-4-5.597657-8.800781-8.800781-12.800781 0-.800781-.796876-.800781-1.597657-1.597657-1.601562-2.402343-4-5.601562-6.402343-8.800781zm-60 389.597657c36-24 66.402343-56 87.203124-93.597657h11.199219l14.398438 43.199219c-32 27.199219-71.199219 44.800781-112.800781 50.398438zm160-106.398438c-.796876.800781-1.597657 2.398438-1.597657 3.199219-1.601562 2.402343-3.199219 4.800781-4.800781 7.199219-1.601562 1.601562-2.398438 4-4 5.601562-.800781 1.601562-1.601562 2.398438-3.199219 4-1.601562 1.601562-3.199219 4-4.800781 5.601562-.800781.796876-1.601562 2.398438-2.398438 3.199219-4 4.800781-8.800781 9.597657-13.601562 14.398438l-13.601562-41.597657c-1.597657-2.402343-4.796876-4.800781-8-4.800781h-8.796876c6.398438-14.402343 12-28.800781 16-44 0-.800781.796876-2.402343.796876-3.199219.800781-4 1.601562-8 2.402343-11.203124 0-1.597657.800781-3.199219.800781-5.597657.796876-3.199219 1.597657-7.199219 1.597657-10.402343 0-1.597657.800781-4 .800781-5.597657.800781-3.199219.800781-7.199219.800781-10.402343 0-1.597657 0-3.199219.800781-4.796876 0-5.601562.796876-10.402343.796876-16h4l36 50.398438zm16-32v-35.199219c0-1.601562-.796876-3.199219-1.597657-4.800781l-40-56c-1.601562-1.601562-4-3.199219-6.402343-3.199219h-8.796876c-2.402343-36-12-72-28.800781-104h13.597657c4.800781 0 8-3.199219 8-8 0-1.601562 0-2.402343-.796876-4l-24-48c-1.601562-2.402343-4-4-7.203124-4h-34.398438c-13.601562-14.402343-29.601562-27.199219-45.601562-37.601562 56 8 106.402343 36.800781 141.601562 80l-20 24.800781c-.800781 1.601562-1.601562 3.199219-1.601562 4.800781v32c0 1.597657.800781 3.199219 1.601562 4.800781l48 72c1.601562 2.398438 4 3.199219 6.398438 3.199219h16c0 28.800781-5.597657 56.800781-16 83.199219zm0 0" data-original="#000000" class="active-path" data-old_color="#ffffff" fill="#ffffff"/></g> </svg>
