<?xml version="1.0" encoding="UTF-8" standalone="no"?><!-- Generator: Gravit.io --><svg xmlns="http://www.w3.org/2000/svg" xmlns:xlink="http://www.w3.org/1999/xlink" style="isolation:isolate" viewBox="0 0 640 100" width="640pt" height="100pt"><linearGradient id="_lgradient_6" x1="0" y1="0.5" x2="1" y2="0.5" gradientTransform="matrix(640,0,0,100,0,0)" gradientUnits="userSpaceOnUse"><stop offset="0%" stop-opacity="1" style="stop-color:rgb(253,191,140)"/><stop offset="50.0030517578125%" stop-opacity="1" style="stop-color:rgb(223,206,112)"/><stop offset="100%" stop-opacity="1" style="stop-color:rgb(253,191,140)"/></linearGradient><path d=" M 90 10 L 90 90 L 10 90 L 10 10 L 90 10 L 90 10 Z  M 180 10 L 180 90 L 100 90 L 100 10 L 180 10 L 180 10 Z  M 270 10 L 270 90 L 190 90 L 190 10 L 270 10 L 270 10 Z  M 360 10 L 360 90 L 280 90 L 280 10 L 360 10 L 360 10 Z  M 450 10 L 450 90 L 370 90 L 370 10 L 450 10 L 450 10 Z  M 540 10 L 540 90 L 460 90 L 460 10 L 540 10 L 540 10 Z  M 550 10 L 630 10 L 630 90 L 550 90 L 550 10 L 550 10 Z  M 640 0 L 640 100 L 0 100 L 0 0 L 640 0 L 640 0 Z  M 525.332 15 L 525.332 85 L 509.941 85 L 485.098 32.045 L 484.746 32.045 L 484.746 32.045 Q 485.488 46.074 485.488 52.059 L 485.488 52.059 L 485.488 85 L 474.668 85 L 474.668 15 L 489.941 15 L 514.746 67.428 L 515.02 67.428 L 515.02 67.428 Q 514.434 53.782 514.434 48.133 L 514.434 48.133 L 514.434 15 L 525.332 15 L 525.332 15 L 525.332 15 Z  M 42.637 56.008 L 57.52 56.008 L 57.52 56.008 Q 51.777 33.454 51.055 30.497 L 51.055 30.497 L 51.055 30.497 Q 50.332 27.541 50.02 25.824 L 50.02 25.824 L 50.02 25.824 Q 48.73 31.928 42.637 56.008 L 42.637 56.008 L 42.637 56.008 L 42.637 56.008 L 42.637 56.008 L 42.637 56.008 L 42.637 56.008 L 42.637 56.008 L 42.637 56.008 Z  M 248.613 65.16 L 248.613 65.16 L 248.613 65.16 Q 248.613 74.381 243.047 79.691 L 243.047 79.691 L 243.047 79.691 Q 237.48 85 227.559 85 L 227.559 85 L 227.559 85 Q 218.418 85 211.387 80.902 L 211.387 80.902 L 211.387 67.488 L 211.387 67.488 Q 217.168 70.562 221.172 71.82 L 221.172 71.82 L 221.172 71.82 Q 225.176 73.077 228.496 73.077 L 228.496 73.077 L 228.496 73.077 Q 232.48 73.077 234.609 71.261 L 234.609 71.261 L 234.609 71.261 Q 236.738 69.444 236.738 65.858 L 236.738 65.858 L 236.738 65.858 Q 236.738 63.856 235.801 62.295 L 235.801 62.295 L 235.801 62.295 Q 234.863 60.735 233.047 59.291 L 233.047 59.291 L 233.047 59.291 Q 231.23 57.848 225.645 54.681 L 225.645 54.681 L 225.645 54.681 Q 220.41 51.747 217.793 49.045 L 217.793 49.045 L 217.793 49.045 Q 215.176 46.344 213.613 42.758 L 213.613 42.758 L 213.613 42.758 Q 212.051 39.172 212.051 34.375 L 212.051 34.375 L 212.051 34.375 Q 212.051 25.339 217.188 20.17 L 217.188 20.17 L 217.188 20.17 Q 222.324 15 231.387 15 L 231.387 15 L 231.387 15 Q 235.84 15 239.883 16.257 L 239.883 16.257 L 239.883 16.257 Q 243.926 17.515 248.34 19.797 L 248.34 19.797 L 244.434 31.021 L 244.434 31.021 Q 239.863 28.786 236.875 27.901 L 236.875 27.901 L 236.875 27.901 Q 233.887 27.016 230.996 27.016 L 230.996 27.016 L 230.996 27.016 Q 227.559 27.016 225.723 28.925 L 225.723 28.925 L 225.723 28.925 Q 223.887 30.835 223.887 33.909 L 223.887 33.909 L 223.887 33.909 Q 223.887 35.818 224.629 37.239 L 224.629 37.239 L 224.629 37.239 Q 225.371 38.659 226.992 39.987 L 226.992 39.987 L 226.992 39.987 Q 228.613 41.314 234.668 44.76 L 234.668 44.76 L 234.668 44.76 Q 242.676 49.325 245.645 53.912 L 245.645 53.912 L 245.645 53.912 Q 248.613 58.5 248.613 65.16 L 248.613 65.16 L 248.613 65.16 L 248.613 65.16 L 248.613 65.16 L 248.613 65.16 Z  M 326.055 27.353 L 326.055 85 L 313.945 85 L 313.945 27.353 L 298.438 27.353 L 298.438 15 L 341.563 15 L 341.563 27.353 L 326.055 27.353 L 326.055 27.353 L 326.055 27.353 L 326.055 27.353 L 326.055 27.353 Z  M 402.637 56.008 L 417.52 56.008 L 417.52 56.008 Q 411.777 33.454 411.055 30.497 L 411.055 30.497 L 411.055 30.497 Q 410.332 27.541 410.02 25.824 L 410.02 25.824 L 410.02 25.824 Q 408.73 31.928 402.637 56.008 L 402.637 56.008 L 402.637 56.008 L 402.637 56.008 L 402.637 56.008 L 402.637 56.008 Z  M 129.297 27.161 L 129.297 46.074 L 133.203 46.074 L 133.203 46.074 Q 138.945 46.074 141.68 43.728 L 141.68 43.728 L 141.68 43.728 Q 144.414 41.382 144.414 36.354 L 144.414 36.354 L 144.414 36.354 Q 144.414 31.375 141.621 29.268 L 141.621 29.268 L 141.621 29.268 Q 138.828 27.161 132.969 27.161 L 132.969 27.161 L 129.297 27.161 L 129.297 27.161 L 129.297 27.161 L 129.297 27.161 L 129.297 27.161 L 129.297 27.161 L 129.297 27.161 L 129.297 27.161 Z  M 601.113 49.713 L 601.113 49.713 L 601.113 49.713 Q 601.113 27.161 584.863 27.161 L 584.863 27.161 L 578.418 27.161 L 578.418 72.743 L 583.613 72.743 L 583.613 72.743 Q 601.113 72.743 601.113 49.713 L 601.113 49.713 L 601.113 49.713 Z  M 135.742 58.14 L 129.297 58.14 L 129.297 85 L 117.188 85 L 117.188 15 L 133.828 15 L 133.828 15 Q 145.469 15 151.055 20.195 L 151.055 20.195 L 151.055 20.195 Q 156.641 25.39 156.641 35.971 L 156.641 35.971 L 156.641 35.971 Q 156.641 42.148 153.867 46.96 L 153.867 46.96 L 153.867 46.96 Q 151.094 51.772 146.016 54.501 L 146.016 54.501 L 146.016 54.501 Q 158.906 78.105 162.813 85 L 162.813 85 L 149.375 85 L 135.742 58.14 L 135.742 58.14 L 135.742 58.14 L 135.742 58.14 L 135.742 58.14 L 135.742 58.14 L 135.742 58.14 L 135.742 58.14 Z  M 437.598 85 L 424.551 85 L 420.41 68.406 L 399.59 68.406 L 395.449 85 L 382.402 85 L 402.559 15 L 417.363 15 L 437.598 85 L 437.598 85 L 437.598 85 L 437.598 85 L 437.598 85 Z  M 77.598 85 L 64.551 85 L 60.41 68.406 L 39.59 68.406 L 35.449 85 L 22.402 85 L 42.559 15 L 57.363 15 L 77.598 85 L 77.598 85 L 77.598 85 L 77.598 85 L 77.598 85 L 77.598 85 L 77.598 85 L 77.598 85 Z  M 613.691 49.33 L 613.691 49.33 L 613.691 49.33 Q 613.691 66.614 605.664 75.807 L 605.664 75.807 L 605.664 75.807 Q 597.637 85 582.48 85 L 582.48 85 L 566.309 85 L 566.309 15 L 584.238 15 L 584.238 15 Q 598.223 15 605.957 24.049 L 605.957 24.049 L 605.957 24.049 Q 613.691 33.098 613.691 49.33 L 613.691 49.33 L 613.691 49.33 Z " fill-rule="evenodd" id="element" fill="url(#_lgradient_6)"/></svg>