<?xml version="1.0" encoding="UTF-8" standalone="no"?><!-- Generator: Gravit.io --><svg xmlns="http://www.w3.org/2000/svg" xmlns:xlink="http://www.w3.org/1999/xlink" style="isolation:isolate" viewBox="-38.635 -542 1646.743 1209.816" width="1646.743pt" height="1209.816pt"><g id="painted  cells"><path d=" M 1133 333.2 L 1182 500 L 1576 500 L 1480 333.2 L 1133 333.2 Z " id="(3;0)" fill="rgb(255,240,183)"/><path d=" M 441 333.2 L 490 166.6 L 788 166.6 L 788 333.2 L 441 333.2 Z " id="(1;1)" fill="rgb(227,240,176)"/><path d=" M 94 333.2 L 441 333.2 L 394 500 L 0 500 L 94 333.2 Z " id="(0;0)" fill="rgb(255,201,201)"/></g><linearGradient id="_lgradient_24" x1="0" y1="0.5" x2="1" y2="0.5" gradientTransform="matrix(1619.26,0,0,525,-21.63,-12.5)" gradientUnits="userSpaceOnUse"><stop offset="0%" stop-opacity="1" style="stop-color:rgb(222,207,111)"/><stop offset="100%" stop-opacity="1" style="stop-color:rgb(254,189,139)"/></linearGradient><path d=" M 203.588 171.6 L 483.382 171.6 L 438.281 328.2 L 438.281 328.2 L 113.387 328.2 L 203.588 171.6 Z  M 209.348 161.6 L 486.262 161.6 L 529.198 12.5 L 295.23 12.5 L 209.348 161.6 Z  M 539.604 12.5 L 496.657 161.6 L 783 161.6 L 783 12.5 L 539.604 12.5 Z  M 793 12.5 L 793 161.6 L 1079.343 161.6 L 1036.396 12.5 L 793 12.5 Z  M 1046.802 12.5 L 1089.738 161.6 L 1366.652 161.6 L 1280.77 12.5 L 1280.77 12.5 L 1046.802 12.5 Z  M 1372.412 171.6 L 1092.618 171.6 L 1137.719 328.2 L 1462.613 328.2 L 1372.412 171.6 Z  M 1468.373 338.2 L 1140.599 338.2 L 1183.604 487.5 L 1554.37 487.5 L 1468.373 338.2 Z  M 1173.198 487.5 L 1130.204 338.2 L 793 338.2 L 793 487.5 L 1173.198 487.5 Z  M 783 487.5 L 783 338.2 L 445.796 338.2 L 402.802 487.5 L 783 487.5 Z  M 392.396 487.5 L 435.401 338.2 L 107.627 338.2 L 21.63 487.5 L 392.396 487.5 Z  M 448.676 328.2 L 493.777 171.6 L 783 171.6 L 783 328.2 L 448.676 328.2 L 448.676 328.2 Z  M 793 328.2 L 793 171.6 L 1082.223 171.6 L 1127.324 328.2 L 793 328.2 L 793 328.2 Z  M 1295.23 -12.5 L 1597.63 512.5 L -21.63 512.5 L 280.77 -12.5 L 1295.23 -12.5 L 1295.23 -12.5 Z " fill-rule="evenodd" id="matrix" fill="url(#_lgradient_24)"/><g id="circles"><linearGradient id="_lgradient_25" x1="0" y1="0.5" x2="1" y2="0.5" gradientTransform="matrix(100,0,0,100,99,284)" gradientUnits="userSpaceOnUse"><stop offset="1.3043478260869565%" stop-opacity="1" style="stop-color:rgb(224,206,113)"/><stop offset="100%" stop-opacity="1" style="stop-color:rgb(253,188,139)"/></linearGradient><circle vector-effect="non-scaling-stroke" cx="149" cy="334" r="50" id="Эллипс" fill="url(#_lgradient_25)"/><linearGradient id="_lgradient_26" x1="0" y1="0.5" x2="1" y2="0.5" gradientTransform="matrix(50,0,0,50,137,81)" gradientUnits="userSpaceOnUse"><stop offset="1.3043478260869565%" stop-opacity="1" style="stop-color:rgb(224,206,113)"/><stop offset="100%" stop-opacity="1" style="stop-color:rgb(253,188,139)"/></linearGradient><circle vector-effect="non-scaling-stroke" cx="162" cy="106" r="25" id="Эллипс" fill="url(#_lgradient_26)"/><linearGradient id="_lgradient_27" x1="0" y1="0.5" x2="1" y2="0.5" gradientTransform="matrix(50,0,0,50,74,-134)" gradientUnits="userSpaceOnUse"><stop offset="1.3043478260869565%" stop-opacity="1" style="stop-color:rgb(224,206,113)"/><stop offset="100%" stop-opacity="1" style="stop-color:rgb(253,188,139)"/></linearGradient><circle vector-effect="non-scaling-stroke" cx="99" cy="-109" r="25" id="Эллипс" fill="url(#_lgradient_27)"/><linearGradient id="_lgradient_28" x1="0" y1="0.5" x2="1" y2="0.5" gradientTransform="matrix(75,0,0,75,488.5,376.5)" gradientUnits="userSpaceOnUse"><stop offset="1.3043478260869565%" stop-opacity="1" style="stop-color:rgb(224,206,113)"/><stop offset="100%" stop-opacity="1" style="stop-color:rgb(253,188,139)"/></linearGradient><circle vector-effect="non-scaling-stroke" cx="526" cy="414" r="37.5" id="Эллипс" fill="url(#_lgradient_28)"/><linearGradient id="_lgradient_29" x1="0" y1="0.5" x2="1" y2="0.5" gradientTransform="matrix(50,0,0,50,575,-542)" gradientUnits="userSpaceOnUse"><stop offset="1.3043478260869565%" stop-opacity="1" style="stop-color:rgb(224,206,113)"/><stop offset="100%" stop-opacity="1" style="stop-color:rgb(253,188,139)"/></linearGradient><circle vector-effect="non-scaling-stroke" cx="600" cy="-517" r="25" id="Эллипс" fill="url(#_lgradient_29)"/><linearGradient id="_lgradient_30" x1="0" y1="0.5" x2="1" y2="0.5" gradientTransform="matrix(25,0,0,25,347.5,-158.5)" gradientUnits="userSpaceOnUse"><stop offset="1.3043478260869565%" stop-opacity="1" style="stop-color:rgb(224,206,113)"/><stop offset="100%" stop-opacity="1" style="stop-color:rgb(253,188,139)"/></linearGradient><circle vector-effect="non-scaling-stroke" cx="359.99999999999994" cy="-146" r="12.5" id="Эллипс" fill="url(#_lgradient_30)"/><linearGradient id="_lgradient_31" x1="0" y1="0.5" x2="1" y2="0.5" gradientTransform="matrix(75,0,0,75,1501.5,228.5)" gradientUnits="userSpaceOnUse"><stop offset="1.3043478260869565%" stop-opacity="1" style="stop-color:rgb(224,206,113)"/><stop offset="100%" stop-opacity="1" style="stop-color:rgb(253,188,139)"/></linearGradient><circle vector-effect="non-scaling-stroke" cx="1539" cy="266" r="37.5" id="Эллипс" fill="url(#_lgradient_31)"/><linearGradient id="_lgradient_32" x1="0" y1="0.5" x2="1" y2="0.5" gradientTransform="matrix(50,0,0,50,1268.5,-230)" gradientUnits="userSpaceOnUse"><stop offset="1.3043478260869565%" stop-opacity="1" style="stop-color:rgb(224,206,113)"/><stop offset="100%" stop-opacity="1" style="stop-color:rgb(253,188,139)"/></linearGradient><circle vector-effect="non-scaling-stroke" cx="1293.5000182215745" cy="-205" r="25" id="Эллипс" fill="url(#_lgradient_32)"/><linearGradient id="_lgradient_33" x1="0" y1="0.5" x2="1" y2="0.5" gradientTransform="matrix(25,0,0,25,1326.5,-48.5)" gradientUnits="userSpaceOnUse"><stop offset="1.3043478260869565%" stop-opacity="1" style="stop-color:rgb(224,206,113)"/><stop offset="100%" stop-opacity="1" style="stop-color:rgb(253,188,139)"/></linearGradient><circle vector-effect="non-scaling-stroke" cx="1338.9999999999998" cy="-36" r="12.5" id="Эллипс" fill="url(#_lgradient_33)"/><linearGradient id="_lgradient_34" x1="0" y1="0.5" x2="1" y2="0.5" gradientTransform="matrix(25,0,0,25,1459.5,-89.5)" gradientUnits="userSpaceOnUse"><stop offset="1.3043478260869565%" stop-opacity="1" style="stop-color:rgb(224,206,113)"/><stop offset="100%" stop-opacity="1" style="stop-color:rgb(253,188,139)"/></linearGradient><circle vector-effect="non-scaling-stroke" cx="1471.9999999999998" cy="-77" r="12.5" id="Эллипс" fill="url(#_lgradient_34)"/></g><g id="text"><linearGradient id="_lgradient_35" x1="0" y1="0.5" x2="1" y2="0.5" gradientTransform="matrix(1646.743,0,0,215.561,-38.635,452.255)" gradientUnits="userSpaceOnUse"><stop offset="0%" stop-opacity="1" style="stop-color:rgb(171,69,1)"/><stop offset="100%" stop-opacity="1" style="stop-color:rgb(255,127,42)"/></linearGradient><path d=" M 118.592 609.157 L 118.592 609.157 L 118.592 609.157 Q 118.592 636.837 94.666 652.327 L 94.666 652.327 L 94.666 652.327 Q 70.74 667.816 29.725 667.816 L 29.725 667.816 L 29.725 667.816 Q -14.709 667.816 -38.635 658.207 L -38.635 658.207 L -38.635 634.686 L -38.635 634.686 Q -23.254 640.136 -5.139 643.291 L -5.139 643.291 L -5.139 643.291 Q 12.977 646.446 30.75 646.446 L 30.75 646.446 L 30.75 646.446 Q 59.803 646.446 74.5 637.196 L 74.5 637.196 L 74.5 637.196 Q 89.197 627.945 89.197 611.452 L 89.197 611.452 L 89.197 611.452 Q 89.197 600.552 83.985 593.596 L 83.985 593.596 L 83.985 593.596 Q 78.772 586.64 66.553 580.76 L 66.553 580.76 L 66.553 580.76 Q 54.334 574.88 29.383 567.422 L 29.383 567.422 L 29.383 567.422 Q -5.48 556.952 -20.434 542.61 L -20.434 542.61 L -20.434 542.61 Q -35.388 528.268 -35.388 505.177 L -35.388 505.177 L -35.388 505.177 Q -35.388 480.939 -13.684 466.597 L -13.684 466.597 L -13.684 466.597 Q 8.021 452.255 43.738 452.255 L 43.738 452.255 L 43.738 452.255 Q 80.994 452.255 112.269 463.729 L 112.269 463.729 L 103.211 484.955 L 103.211 484.955 Q 72.278 474.055 43.055 474.055 L 43.055 474.055 L 43.055 474.055 Q 19.983 474.055 6.995 482.373 L 6.995 482.373 L 6.995 482.373 Q -5.993 490.692 -5.993 505.464 L -5.993 505.464 L -5.993 505.464 Q -5.993 516.364 -1.208 523.32 L -1.208 523.32 L -1.208 523.32 Q 3.577 530.276 14.942 536.084 L 14.942 536.084 L 14.942 536.084 Q 26.307 541.893 49.72 548.92 L 49.72 548.92 L 49.72 548.92 Q 89.026 560.681 103.809 574.162 L 103.809 574.162 L 103.809 574.162 Q 118.592 587.644 118.592 609.157 Z  M 386.595 476.923 L 386.595 664.948 L 357.542 664.948 L 357.542 476.923 L 278.416 476.923 L 278.416 455.267 L 465.721 455.267 L 465.721 476.923 L 386.595 476.923 Z  M 830.452 664.948 L 800.374 664.948 L 769.271 598.257 L 669.124 598.257 L 638.362 664.948 L 608.968 664.948 L 707.747 454.406 L 732.186 454.406 L 830.452 664.948 Z  M 679.378 576.314 L 760.213 576.314 L 731.16 511.344 L 731.16 511.344 Q 725.521 499.01 719.539 481.082 L 719.539 481.082 L 719.539 481.082 Q 715.779 494.851 708.772 511.344 L 708.772 511.344 L 679.378 576.314 Z  M 1199.969 455.267 L 1199.969 664.948 L 1166.814 664.948 L 1030.267 488.971 L 1028.899 488.971 L 1028.899 488.971 Q 1031.634 519.949 1031.634 545.765 L 1031.634 545.765 L 1031.634 664.948 L 1004.803 664.948 L 1004.803 455.267 L 1037.615 455.267 L 1173.821 630.527 L 1175.188 630.527 L 1175.188 630.527 Q 1174.847 626.654 1173.65 605.643 L 1173.65 605.643 L 1173.65 605.643 Q 1172.454 584.632 1172.796 575.597 L 1172.796 575.597 L 1172.796 455.267 L 1199.969 455.267 Z  M 1608.108 558.099 L 1608.108 558.099 L 1608.108 558.099 Q 1608.108 610.018 1574.527 637.483 L 1574.527 637.483 L 1574.527 637.483 Q 1540.945 664.948 1477.884 664.948 L 1477.884 664.948 L 1408.67 664.948 L 1408.67 455.267 L 1485.232 455.267 L 1485.232 455.267 Q 1543.509 455.267 1575.809 482.373 L 1575.809 482.373 L 1575.809 482.373 Q 1608.108 509.48 1608.108 558.099 Z  M 1577.347 558.96 L 1577.347 558.96 L 1577.347 558.96 Q 1577.347 517.942 1552.823 497.146 L 1552.823 497.146 L 1552.823 497.146 Q 1528.299 476.35 1479.935 476.35 L 1479.935 476.35 L 1437.723 476.35 L 1437.723 643.865 L 1473.099 643.865 L 1473.099 643.865 Q 1525.052 643.865 1551.199 622.423 L 1551.199 622.423 L 1551.199 622.423 Q 1577.347 600.982 1577.347 558.96 Z " id="STAND" fill="url(#_lgradient_35)"/><radialGradient id="_rgradient_2" fx="0.5" fy="0.5" cx="0.5" cy="0.5" r="0.5" gradientTransform="matrix(996.875,0,0,684.26,282.5,-465.43)" gradientUnits="userSpaceOnUse"><stop offset="0%" stop-opacity="1" style="stop-color:rgb(251,193,54)"/><stop offset="100%" stop-opacity="1" style="stop-color:rgb(229,140,65)"/></radialGradient><path d=" M 793.047 218.83 L 718.438 218.83 L 649.688 7.679 L 423.125 7.679 L 355.156 218.83 L 282.5 218.83 L 505.547 -465.43 L 570.391 -465.43 L 793.047 218.83 Z  M 447.344 -68.298 L 628.203 -68.298 L 564.141 -274.788 L 536.797 -376.868 L 536.797 -376.868 Q 525.078 -320.934 512.188 -274.788 L 512.188 -274.788 L 447.344 -68.298 Z  M 943.438 -388.52 L 943.438 -135.419 L 1028.984 -135.419 L 1028.984 -135.419 Q 1098.516 -135.419 1130.547 -168.047 L 1130.547 -168.047 L 1130.547 -168.047 Q 1162.578 -200.675 1162.578 -264.999 L 1162.578 -264.999 L 1162.578 -264.999 Q 1162.578 -329.324 1130.156 -358.922 L 1130.156 -358.922 L 1130.156 -358.922 Q 1097.734 -388.52 1025.078 -388.52 L 1025.078 -388.52 L 943.438 -388.52 Z  M 1057.109 -62.705 L 943.438 -62.705 L 943.438 218.83 L 871.563 218.83 L 871.563 -462.633 L 1028.984 -462.633 L 1028.984 -462.633 Q 1135.234 -462.633 1186.211 -414.39 L 1186.211 -414.39 L 1186.211 -414.39 Q 1237.188 -366.147 1237.188 -269.195 L 1237.188 -269.195 L 1237.188 -269.195 Q 1237.188 -133.555 1122.734 -86.477 L 1122.734 -86.477 L 1279.375 218.83 L 1195.391 218.83 L 1057.109 -62.705 Z " id="AR" fill="url(#_rgradient_2)"/></g></svg>