<?xml version="1.0" encoding="UTF-8" standalone="no"?><!-- Generator: Gravit.io --><svg xmlns="http://www.w3.org/2000/svg" xmlns:xlink="http://www.w3.org/1999/xlink" style="isolation:isolate" viewBox="405.293 25.435 466 466" width="466pt" height="466pt"><circle vector-effect="non-scaling-stroke" cx="638.2925560107503" cy="258.43464671386437" r="233" fill="rgb(2,62,88)" fill-opacity="0.75"/><path d=" M 708.293 388.435 L 708.293 388.435 C 708.293 382.915 703.812 378.435 698.293 378.435 L 648.293 378.435 L 648.293 317.815 C 687.733 312.887 718.293 279.201 718.293 248.435 C 718.293 242.915 713.812 238.435 708.293 238.435 L 708.293 238.435 C 702.773 238.435 698.293 242.915 698.293 248.435 C 698.293 271.55 671.407 298.435 638.293 298.435 C 605.178 298.435 578.293 271.55 578.293 248.435 C 578.293 242.915 573.812 238.435 568.293 238.435 L 568.293 238.435 C 562.773 238.435 558.293 242.915 558.293 248.435 C 558.293 279.201 588.852 312.887 628.293 317.815 L 628.293 378.435 L 578.293 378.435 C 572.773 378.435 568.293 382.915 568.293 388.435 L 568.293 388.435 C 568.293 393.954 572.773 398.435 578.293 398.435 L 698.293 398.435 C 703.812 398.435 708.293 393.954 708.293 388.435 Z  M 588.293 168.435 L 588.293 228.435 C 588.293 256.03 610.697 278.435 638.293 278.435 C 665.888 278.435 688.293 256.03 688.293 228.435 L 688.293 168.435 C 688.293 140.839 665.888 118.435 638.293 118.435 C 610.697 118.435 588.293 140.839 588.293 168.435 Z " fill-rule="evenodd" fill="rgb(138,191,181)"/><path d=" M 405.293 258.435 C 405.293 129.838 509.696 25.435 638.293 25.435 C 766.889 25.435 871.293 129.838 871.293 258.435 C 871.293 387.031 766.889 491.435 638.293 491.435 C 509.696 491.435 405.293 387.031 405.293 258.435 Z  M 425.293 258.435 C 425.293 140.877 520.735 45.435 638.293 45.435 C 755.85 45.435 851.293 140.877 851.293 258.435 C 851.293 375.993 755.85 471.435 638.293 471.435 C 520.735 471.435 425.293 375.993 425.293 258.435 Z " fill-rule="evenodd" fill="rgb(138,191,181)"/></svg>