<?xml version="1.0" encoding="UTF-8" standalone="no"?><!-- Generator: Gravit.io --><svg xmlns="http://www.w3.org/2000/svg" xmlns:xlink="http://www.w3.org/1999/xlink" style="isolation:isolate" viewBox="462 256 1000 1000" width="1000pt" height="1000pt"><g id="angleSquares"><path d=" M 1462 256 L 462 256 L 462 526.27 L 705.243 526.27 L 705.243 769.514 L 948.486 769.514 L 948.486 1012.757 L 1191.73 1012.757 L 1191.73 1256 L 1462 1256 L 1462 256 Z " id="border" fill="rgb(255,255,255)"/><linearGradient id="_lgradient_20" x1="0.14644660940672624" y1="0.14644660940672624" x2="0.8535533905932737" y2="0.8535533905932741" gradientTransform="matrix(-945.946,0,0,945.946,1434.973,283.027)" gradientUnits="userSpaceOnUse"><stop offset="0%" stop-opacity="1" style="stop-color:rgb(253,191,140)"/><stop offset="100%" stop-opacity="1" style="stop-color:rgb(223,206,112)"/></linearGradient><path d=" M 1218.757 283.027 L 1218.757 499.243 L 1434.973 499.243 L 1434.973 283.027 L 1218.757 283.027 Z  M 975.514 283.027 L 975.514 499.243 L 1191.73 499.243 L 1191.73 283.027 L 975.514 283.027 Z  M 732.27 283.027 L 732.27 499.243 L 948.486 499.243 L 948.486 283.027 L 732.27 283.027 Z  M 489.027 283.027 L 489.027 499.243 L 705.243 499.243 L 705.243 283.027 L 489.027 283.027 Z  M 1218.757 526.27 L 1218.757 742.486 L 1434.973 742.486 L 1434.973 526.27 L 1218.757 526.27 Z  M 975.514 526.27 L 975.514 742.486 L 1191.73 742.486 L 1191.73 526.27 L 975.514 526.27 Z  M 732.27 526.27 L 732.27 742.486 L 948.486 742.486 L 948.486 526.27 L 732.27 526.27 Z  M 1218.757 769.514 L 1218.757 985.73 L 1434.973 985.73 L 1434.973 769.514 L 1218.757 769.514 Z  M 975.514 769.514 L 975.514 985.73 L 1191.73 985.73 L 1191.73 769.514 L 975.514 769.514 Z  M 1434.973 1012.757 L 1218.757 1012.757 L 1218.757 1228.973 L 1434.973 1228.973 L 1434.973 1012.757 Z " fill-rule="evenodd" id="quadrate" fill="url(#_lgradient_20)"/></g></svg>