<?xml version="1.0" standalone="no"?><!-- Generator: Gravit.io --><svg xmlns="http://www.w3.org/2000/svg" xmlns:xlink="http://www.w3.org/1999/xlink" style="isolation:isolate" viewBox="0 0 512 512" width="512" height="512"><defs><clipPath id="_clipPath_EtOPMCvCOXf8liQDeGCKnbOid0mLKdHF"><rect width="512" height="512"/></clipPath></defs><g clip-path="url(#_clipPath_EtOPMCvCOXf8liQDeGCKnbOid0mLKdHF)"><path d=" M 256.003 0.003 C 114.616 0.003 0 114.607 0 256.006 C 0 397.381 114.616 511.997 256.003 511.997 C 397.384 511.997 512 397.381 512 256.006 C 512 114.607 397.384 0.003 256.003 0.003 Z " fill="rgb(255,255,255)"/><g><path d=" M 195.686 150.062 C 192.459 145.931 188.177 143.864 182.837 143.864 C 178.099 143.864 174.875 144.771 173.163 146.586 C 171.448 148.4 167.77 153.236 162.128 161.098 C 156.483 168.958 150.01 176.063 142.704 182.411 C 135.397 188.759 125.647 194.807 113.454 200.55 C 105.292 204.381 99.597 207.503 96.373 209.922 C 93.146 212.341 91.535 216.12 91.535 221.259 C 91.535 225.694 93.172 229.599 96.448 232.975 C 99.723 236.352 103.478 238.038 107.71 238.038 C 116.576 238.038 133.808 228.213 159.407 208.562 L 159.407 346.119 C 159.407 354.183 161.271 360.28 165 364.41 C 168.727 368.541 173.665 370.608 179.814 370.608 C 193.619 370.608 200.522 360.481 200.522 340.225 L 200.522 167.144 C 200.522 159.888 198.91 154.196 195.686 150.062 Z " fill="rgb(21,21,21)"/><path d=" M 374.662 150.062 C 371.435 145.931 367.153 143.864 361.813 143.864 C 357.074 143.864 353.851 144.771 352.139 146.586 C 350.424 148.4 346.746 153.236 341.104 161.098 C 335.459 168.958 328.985 176.063 321.68 182.411 C 314.373 188.759 304.622 194.807 292.43 200.55 C 284.268 204.381 278.572 207.503 275.349 209.922 C 272.122 212.341 270.511 216.12 270.511 221.259 C 270.511 225.694 272.148 229.599 275.424 232.975 C 278.698 236.352 282.454 238.038 286.685 238.038 C 295.552 238.038 312.784 228.213 338.383 208.562 L 338.383 346.119 C 338.383 354.183 340.247 360.28 343.976 364.41 C 347.702 368.541 352.641 370.608 358.789 370.608 C 372.595 370.608 379.498 360.481 379.498 340.225 L 379.498 167.144 C 379.498 159.888 377.885 154.196 374.662 150.062 Z " fill="rgb(21,21,21)"/></g></g></svg>