<?xml version="1.0" encoding="UTF-8" standalone="no"?><!-- Generator: Gravit.io --><svg xmlns="http://www.w3.org/2000/svg" xmlns:xlink="http://www.w3.org/1999/xlink" style="isolation:isolate" viewBox="370 129.5 460 525" width="460pt" height="525pt"><path d=" M 370 129.5 L 830 129.5 L 830 654.5 L 370 654.5 L 370 129.5 Z  M 474.678 481.048 L 501.958 496.798 L 501.958 496.798 Q 513.325 503.36 519.235 501.698 L 519.235 501.698 L 519.235 501.698 Q 525.146 500.036 525.146 490.411 L 525.146 490.411 L 525.146 490.411 Q 525.146 471.511 501.958 458.124 L 501.958 458.124 L 474.678 442.374 L 474.678 481.048 L 474.678 481.048 L 474.678 481.048 L 474.678 481.048 L 474.678 481.048 L 474.678 481.048 Z  M 655.217 417.526 L 749.029 363.363 L 749.029 485.86 L 729.63 497.06 L 729.63 393.813 L 674.616 425.575 L 674.616 528.822 L 655.217 540.022 L 655.217 417.526 L 655.217 417.526 L 655.217 417.526 Z  M 711.38 274.958 L 692.587 285.808 L 622.117 245.297 L 645.454 299.021 L 636.664 304.096 L 544.521 291.147 L 613.931 331.22 L 595.289 341.983 L 489.204 280.735 L 505.421 271.372 L 617.569 287.646 L 588.927 223.16 L 604.992 213.885 L 711.38 274.958 L 711.38 274.958 L 711.38 274.958 Z  M 600 380.448 L 420.008 276.527 L 420.008 276.527 L 600 172.602 L 779.992 276.527 L 600 380.448 L 600 380.448 L 600 380.448 L 600 380.448 L 600 380.448 Z  M 610 605.612 L 610 397.772 L 790 293.852 L 790 501.692 L 610 605.612 L 610 605.612 L 610 605.612 L 610 605.612 L 610 605.612 Z  M 455.279 487.347 L 455.279 364.851 L 537.876 412.538 L 537.876 431.263 L 474.678 394.775 L 474.678 424.874 L 506.05 442.987 L 506.05 442.987 Q 525.146 454.012 535.073 468.93 L 535.073 468.93 L 535.073 468.93 Q 544.999 483.849 544.999 501.173 L 544.999 501.173 L 544.999 501.173 Q 544.999 519.373 534.088 522.96 L 534.088 522.96 L 534.088 522.96 Q 523.176 526.547 503.019 514.91 L 503.019 514.91 L 455.279 487.347 L 455.279 487.347 L 455.279 487.347 L 455.279 487.347 L 455.279 487.347 L 455.279 487.347 Z  M 590 397.772 L 410 293.852 L 410 293.852 L 410 293.852 L 410 501.692 L 590 605.612 L 590 397.772 L 590 397.772 L 590 397.772 L 590 397.772 L 590 397.772 Z  M 390 513.242 L 390 270.758 L 600 149.512 L 810 270.758 L 810 513.242 L 600 634.488 L 390 513.242 L 390 513.242 L 390 513.242 L 390 513.242 L 390 513.242 Z " fill-rule="evenodd" id="preloader mask" fill="rgb(0,0,0)"/></svg>