<?xml version="1.0" encoding="UTF-8" standalone="no"?><!-- Generator: Gravit.io --><svg xmlns="http://www.w3.org/2000/svg" xmlns:xlink="http://www.w3.org/1999/xlink" style="isolation:isolate" viewBox="836.096 39 259.808 599.998" width="259.808pt" height="599.998pt"><g><path d=" M 836.096 39 L 1095.904 189 L 1095.904 488.998 L 836.096 638.998 L 836.096 39 Z " fill="rgb(244,55,55)"/><g><g><path d=" M 1030.351 201.152 L 1031.553 201.846 C 1036.001 204.414 1036.001 208.584 1031.553 211.152 L 874.466 301.846 C 870.018 304.414 862.796 304.414 858.348 301.846 L 857.146 301.152 C 852.698 298.584 852.698 294.414 857.146 291.846 L 1014.233 201.152 C 1018.681 198.584 1025.903 198.584 1030.351 201.152 Z  M 1031.553 176.152 L 1030.351 176.846 C 1025.903 179.414 1018.681 179.414 1014.233 176.846 L 857.147 86.153 C 852.699 83.585 852.699 79.415 857.147 76.847 L 858.349 76.153 C 862.797 73.585 870.02 73.585 874.468 76.153 L 1031.553 166.846 C 1036.001 169.414 1036.001 173.584 1031.553 176.152 Z " fill-rule="evenodd" fill="rgb(0,82,255)"/><path d=" M 1029.66 202.36 L 1030.86 203.05 C 1030.87 203.06 1030.88 203.07 1030.89 203.07 C 1031.69 203.51 1032.39 204.12 1032.93 204.85 C 1033.28 205.33 1033.48 205.9 1033.49 206.5 C 1033.48 207.09 1033.28 207.67 1032.93 208.15 C 1032.39 208.88 1031.69 209.49 1030.89 209.93 C 1030.88 209.93 1030.87 209.94 1030.86 209.94 L 873.78 300.63 C 872.72 301.23 871.58 301.67 870.39 301.93 C 869.08 302.23 867.75 302.38 866.41 302.38 C 865.07 302.38 863.73 302.23 862.43 301.93 C 861.24 301.67 860.1 301.23 859.04 300.63 L 857.85 299.94 C 857.83 299.94 857.82 299.93 857.81 299.93 C 857.01 299.49 856.31 298.88 855.77 298.15 C 855.42 297.67 855.22 297.09 855.21 296.5 C 855.22 295.9 855.42 295.33 855.77 294.85 C 856.31 294.12 857.01 293.51 857.81 293.07 C 857.82 293.07 857.83 293.06 857.85 293.05 L 1014.93 202.36 C 1015.98 201.77 1017.13 201.33 1018.31 201.07 C 1019.62 200.77 1020.95 200.62 1022.29 200.62 C 1023.63 200.62 1024.97 200.77 1026.27 201.07 C 1027.46 201.33 1028.6 201.77 1029.66 202.36 L 1029.66 202.36 Z  M 1031.05 199.94 L 1032.24 200.63 C 1033.39 201.26 1034.4 202.14 1035.18 203.2 C 1035.88 204.15 1036.27 205.31 1036.29 206.5 C 1036.27 207.69 1035.88 208.84 1035.18 209.8 C 1034.4 210.86 1033.39 211.74 1032.24 212.37 L 875.17 303.05 C 875.16 303.06 875.16 303.06 875.15 303.06 C 873.86 303.79 872.46 304.33 871.01 304.65 C 869.5 305 867.96 305.17 866.41 305.17 C 864.86 305.17 863.32 305 861.81 304.65 C 860.36 304.33 858.96 303.79 857.66 303.06 C 857.66 303.06 857.66 303.06 857.65 303.05 L 856.46 302.37 C 855.31 301.74 854.3 300.86 853.52 299.8 C 852.82 298.84 852.43 297.69 852.42 296.5 C 852.43 295.31 852.82 294.15 853.52 293.2 C 854.3 292.14 855.31 291.26 856.46 290.63 L 1013.54 199.94 C 1013.54 199.94 1013.54 199.94 1013.55 199.94 C 1014.85 199.21 1016.24 198.67 1017.69 198.35 C 1019.2 198 1020.75 197.83 1022.29 197.83 C 1023.84 197.83 1025.38 198 1026.89 198.35 C 1028.34 198.67 1029.74 199.21 1031.04 199.94 C 1031.04 199.94 1031.05 199.94 1031.05 199.94 L 1031.05 199.94 Z  M 1030.86 174.94 L 1029.66 175.63 C 1028.6 176.23 1027.46 176.67 1026.27 176.93 C 1024.97 177.23 1023.63 177.38 1022.29 177.38 C 1020.95 177.38 1019.62 177.23 1018.31 176.93 C 1017.13 176.67 1015.98 176.23 1014.93 175.63 L 857.85 84.94 C 857.84 84.94 857.83 84.93 857.82 84.93 C 857.01 84.49 856.32 83.88 855.77 83.15 C 855.42 82.67 855.23 82.09 855.21 81.5 C 855.23 80.91 855.42 80.33 855.77 79.85 C 856.32 79.12 857.01 78.51 857.82 78.07 C 857.83 78.07 857.84 78.06 857.85 78.06 L 859.04 77.37 C 860.1 76.77 861.24 76.33 862.43 76.07 C 863.73 75.77 865.07 75.62 866.41 75.62 C 867.75 75.62 869.09 75.77 870.39 76.07 C 871.58 76.33 872.72 76.77 873.78 77.37 L 1030.86 168.05 C 1030.87 168.06 1030.88 168.07 1030.89 168.07 C 1031.69 168.51 1032.39 169.12 1032.93 169.85 C 1033.28 170.33 1033.48 170.9 1033.49 171.5 C 1033.48 172.09 1033.28 172.67 1032.93 173.15 C 1032.39 173.88 1031.69 174.49 1030.89 174.93 C 1030.88 174.93 1030.87 174.94 1030.86 174.94 L 1030.86 174.94 Z  M 1032.24 177.37 L 1031.05 178.05 C 1031.05 178.06 1031.04 178.06 1031.04 178.06 C 1029.74 178.79 1028.34 179.33 1026.89 179.65 C 1025.38 180 1023.84 180.17 1022.29 180.17 C 1020.75 180.17 1019.2 180 1017.69 179.65 C 1016.24 179.33 1014.85 178.79 1013.55 178.06 C 1013.54 178.06 1013.54 178.06 1013.54 178.05 L 856.47 87.37 C 855.31 86.74 854.3 85.86 853.52 84.8 C 852.82 83.84 852.43 82.69 852.42 81.5 C 852.43 80.31 852.82 79.16 853.52 78.2 C 854.3 77.14 855.31 76.26 856.47 75.63 L 857.65 74.94 C 857.66 74.94 857.66 74.94 857.67 74.94 C 858.96 74.21 860.36 73.67 861.81 73.35 C 863.32 73 864.86 72.83 866.41 72.83 C 867.96 72.83 869.5 73 871.01 73.35 C 872.46 73.67 873.86 74.21 875.15 74.94 C 875.16 74.94 875.16 74.94 875.17 74.94 L 1032.24 165.63 C 1033.39 166.26 1034.4 167.14 1035.18 168.2 C 1035.88 169.15 1036.27 170.31 1036.29 171.5 C 1036.27 172.69 1035.88 173.84 1035.18 174.8 C 1034.4 175.86 1033.39 176.74 1032.24 177.37 L 1032.24 177.37 Z " fill-rule="evenodd" fill="rgb(255,255,255)"/></g><g><path d=" M 919.324 167.759 L 889.783 163.177 L 919.324 158.213 L 919.324 149.303 L 889.783 144.34 L 919.324 139.758 L 919.324 129.575 L 864.21 139.758 L 864.21 148.667 L 893.641 153.758 L 864.21 158.85 L 864.21 167.759 L 919.324 177.941 L 919.324 167.759 Z  M 920.867 200.406 C 920.867 196.206 918.221 193.024 914.143 191.306 L 941.369 191.305 L 941.369 181.76 L 864.21 181.76 L 864.21 191.306 L 894.302 191.306 C 902.128 191.306 905.655 193.724 905.655 197.224 C 905.655 200.279 902.459 202.761 895.625 202.761 L 864.21 202.761 L 864.21 212.307 L 898.05 212.307 C 912.93 212.307 920.867 206.834 920.867 200.406 Z  M 919.323 238.271 L 885.594 232.289 L 919.323 225.225 L 919.323 214.725 L 866.745 227.389 C 860.021 225.989 857.596 223.889 857.596 219.434 L 842.165 219.434 C 841.393 228.344 848.337 234.008 865.863 237.572 L 919.323 248.454 L 919.323 238.271 Z " fill="rgb(0,82,255)"/><path d=" M 920.72 179.62 L 862.81 168.92 L 862.81 157.67 L 885.45 153.76 L 862.81 149.84 L 862.81 138.6 L 920.72 127.9 L 920.72 140.95 L 898.53 144.39 L 920.72 148.12 L 920.72 159.39 L 898.53 163.12 L 920.72 166.56 L 920.72 179.62 Z  M 917.93 176.26 L 865.61 166.6 L 865.61 160.02 L 901.83 153.76 L 865.61 147.49 L 865.61 140.92 L 917.93 131.25 L 917.93 138.56 L 881.03 144.28 L 917.93 150.48 L 917.93 157.03 L 881.03 163.23 L 917.93 168.96 L 917.93 176.26 Z  M 918.9 192.7 C 919.35 193.13 919.77 193.59 920.14 194.08 C 921.52 195.9 922.27 198.12 922.26 200.41 C 922.26 200.41 922.26 200.42 922.26 200.42 C 922.24 202.34 921.64 204.21 920.54 205.78 C 919.95 206.62 919.26 207.38 918.48 208.05 C 917.63 208.79 916.7 209.44 915.72 209.99 C 914.62 210.6 913.47 211.12 912.28 211.55 C 910.94 212.03 909.57 212.42 908.18 212.72 C 906.62 213.05 905.03 213.3 903.44 213.45 C 901.65 213.62 899.85 213.71 898.05 213.7 L 862.81 213.7 L 862.81 201.36 L 895.62 201.36 C 895.63 201.36 895.64 201.36 895.64 201.36 C 897.04 201.38 898.43 201.24 899.79 200.96 C 900.75 200.77 901.66 200.42 902.5 199.93 C 903.05 199.61 903.52 199.17 903.87 198.64 C 904.12 198.21 904.26 197.72 904.26 197.23 L 904.26 197.22 L 904.26 197.22 C 904.26 197.22 904.26 197.22 904.26 197.21 C 904.26 196.64 904.11 196.07 903.81 195.58 C 903.41 194.99 902.88 194.51 902.26 194.19 C 901.28 193.66 900.22 193.3 899.13 193.11 C 897.54 192.82 895.93 192.68 894.32 192.7 C 894.31 192.7 894.31 192.7 894.3 192.7 L 894.3 192.7 L 862.81 192.7 L 862.81 180.36 L 942.76 180.36 L 942.76 192.7 L 918.9 192.7 Z  M 922.26 200.41 C 922.26 200.41 922.26 200.41 922.26 200.41 L 922.26 200.41 L 922.26 200.41 C 922.26 200.41 922.26 200.41 922.26 200.41 Z  M 907.05 197.23 C 907.06 196.11 906.75 195.02 906.16 194.07 C 905.5 193.08 904.61 192.27 903.57 191.72 C 902.33 191.06 901 190.6 899.62 190.36 C 897.87 190.04 896.08 189.89 894.29 189.91 C 894.29 189.91 894.29 189.91 894.29 189.91 L 894.3 189.91 L 894.3 189.91 L 894.29 189.91 L 865.61 189.91 L 865.61 183.16 L 939.97 183.16 L 939.97 189.91 L 914.14 189.91 C 913.82 189.91 913.51 190.02 913.26 190.23 C 913.01 190.43 912.84 190.72 912.77 191.03 C 912.71 191.35 912.76 191.68 912.91 191.96 C 913.06 192.25 913.31 192.47 913.61 192.59 C 914.49 192.96 915.32 193.43 916.09 193.99 C 916.78 194.49 917.4 195.09 917.93 195.77 C 918.93 197.1 919.47 198.73 919.47 200.4 C 919.47 200.4 919.47 200.4 919.47 200.4 C 919.47 200.4 919.47 200.4 919.47 200.41 L 919.47 200.39 C 919.47 200.39 919.47 200.4 919.47 200.4 C 919.46 201.75 919.03 203.07 918.25 204.18 C 917.8 204.83 917.26 205.42 916.66 205.94 C 915.95 206.55 915.18 207.09 914.36 207.55 C 913.39 208.09 912.38 208.55 911.34 208.92 C 910.12 209.36 908.87 209.72 907.6 209.99 C 906.14 210.3 904.66 210.53 903.17 210.67 C 901.47 210.83 899.76 210.91 898.05 210.91 C 898.05 210.91 898.05 210.91 898.05 210.91 L 865.61 210.91 L 865.61 204.16 L 895.62 204.16 C 897.21 204.17 898.8 204.02 900.36 203.69 C 901.6 203.44 902.8 202.98 903.9 202.35 C 904.85 201.8 905.64 201.04 906.23 200.12 C 906.77 199.25 907.05 198.25 907.05 197.23 C 907.05 197.23 907.05 197.22 907.05 197.22 L 907.05 197.22 L 907.05 197.23 C 907.05 197.23 907.05 197.23 907.05 197.23 Z  M 907.05 197.22 M 920.72 250.16 L 865.59 238.94 C 863.61 238.54 861.65 238.08 859.7 237.56 C 857.99 237.1 856.31 236.57 854.65 235.97 C 853.2 235.45 851.78 234.84 850.41 234.16 C 849.2 233.56 848.03 232.86 846.93 232.08 C 845.95 231.39 845.03 230.59 844.21 229.71 C 843.45 228.89 842.79 227.98 842.25 227 C 841.22 225.07 840.69 222.91 840.71 220.73 C 840.71 220.25 840.73 219.78 840.77 219.31 C 840.8 218.96 840.96 218.64 841.22 218.41 C 841.48 218.17 841.82 218.04 842.16 218.04 L 858.99 218.04 L 858.99 219.43 C 858.99 219.45 858.99 219.46 858.99 219.47 C 858.97 220.28 859.11 221.09 859.38 221.86 C 859.64 222.49 860.04 223.05 860.55 223.49 C 861.27 224.08 862.09 224.55 862.97 224.87 C 864.19 225.33 865.44 225.7 866.72 225.96 L 920.72 212.95 L 920.72 226.36 L 892.95 232.18 L 920.72 237.1 L 920.72 250.16 Z  M 843.5 220.83 L 856.28 220.83 C 856.37 221.52 856.53 222.2 856.78 222.86 C 857.2 223.93 857.88 224.88 858.75 225.62 C 859.72 226.43 860.81 227.06 861.99 227.49 C 863.45 228.04 864.95 228.47 866.48 228.76 C 866.68 228.8 866.88 228.79 867.07 228.75 L 917.93 216.5 L 917.93 224.09 L 878.24 232.4 L 917.93 239.44 L 917.93 246.74 L 866.14 236.2 C 866.14 236.2 866.14 236.2 866.14 236.2 C 864.22 235.82 862.31 235.37 860.42 234.86 C 858.79 234.43 857.18 233.92 855.6 233.35 C 854.25 232.86 852.93 232.3 851.65 231.66 C 850.57 231.12 849.53 230.5 848.55 229.81 C 847.71 229.22 846.95 228.55 846.25 227.8 C 845.65 227.16 845.13 226.44 844.7 225.67 C 843.91 224.18 843.5 222.52 843.5 220.83 Z " fill-rule="evenodd" fill="rgb(255,255,255)"/></g><g><g><path d=" M 1039.612 196.499 C 1032.443 192.36 1032.443 185.639 1039.612 181.499 C 1046.782 177.36 1058.424 177.36 1065.593 181.499 C 1072.763 185.638 1072.763 192.36 1065.593 196.499 C 1058.423 200.638 1046.782 200.638 1039.612 196.499 Z " fill="rgb(0,82,255)"/><path d=" M 1038.92 197.71 C 1038.01 197.19 1037.14 196.58 1036.35 195.89 C 1035.63 195.28 1035 194.58 1034.45 193.81 C 1033.43 192.41 1032.87 190.73 1032.84 189 C 1032.87 187.27 1033.43 185.59 1034.45 184.19 C 1035 183.42 1035.63 182.72 1036.35 182.11 C 1037.14 181.42 1038.01 180.81 1038.92 180.28 C 1040.94 179.15 1043.12 178.31 1045.38 177.81 C 1047.75 177.26 1050.17 176.99 1052.6 177 C 1055.03 176.99 1057.46 177.26 1059.83 177.81 C 1062.09 178.31 1064.26 179.15 1066.28 180.28 C 1067.2 180.81 1068.06 181.42 1068.86 182.11 C 1069.57 182.72 1070.21 183.42 1070.76 184.19 C 1071.78 185.59 1072.34 187.27 1072.37 189 C 1072.34 190.73 1071.78 192.41 1070.76 193.81 C 1070.21 194.58 1069.57 195.28 1068.86 195.89 C 1068.06 196.58 1067.2 197.19 1066.28 197.71 C 1064.26 198.85 1062.09 199.68 1059.83 200.19 C 1057.46 200.73 1055.03 201.01 1052.6 201 C 1050.17 201.01 1047.75 200.73 1045.38 200.19 C 1043.12 199.68 1040.94 198.85 1038.92 197.71 Z  M 1040.3 195.28 C 1039.54 194.85 1038.83 194.35 1038.17 193.78 C 1037.62 193.31 1037.13 192.77 1036.71 192.17 C 1036.04 191.25 1035.66 190.14 1035.63 189 C 1035.66 187.86 1036.04 186.75 1036.71 185.82 C 1037.13 185.23 1037.62 184.69 1038.17 184.22 C 1038.83 183.65 1039.54 183.15 1040.3 182.71 C 1042.08 181.71 1044 180.98 1046 180.53 C 1048.16 180.03 1050.38 179.78 1052.6 179.79 C 1054.83 179.78 1057.04 180.03 1059.21 180.53 C 1061.2 180.98 1063.12 181.71 1064.91 182.71 C 1065.66 183.15 1066.37 183.65 1067.03 184.22 C 1067.58 184.69 1068.07 185.23 1068.49 185.82 C 1069.17 186.75 1069.55 187.86 1069.57 189 C 1069.55 190.14 1069.17 191.25 1068.49 192.17 C 1068.07 192.77 1067.58 193.31 1067.03 193.78 C 1066.37 194.35 1065.66 194.85 1064.91 195.28 C 1063.12 196.29 1061.2 197.02 1059.21 197.47 C 1057.04 197.97 1054.83 198.22 1052.6 198.21 C 1050.38 198.22 1048.16 197.97 1046 197.47 C 1044 197.02 1042.08 196.29 1040.3 195.28 Z " fill-rule="evenodd" fill="rgb(255,255,255)"/></g><g><g><path d=" M 836.098 74.604 C 840.8 74.604 845.503 73.57 849.088 71.5 C 856.258 67.361 856.258 60.639 849.088 56.5 C 845.503 54.43 840.801 53.395 836.098 53.395 L 836.098 74.604 Z " fill="rgb(0,82,255)"/><path d=" M 836.098 75.665 C 841.464 75.664 846.604 74.434 850.387 72.25 C 854.172 70.065 856.302 67.095 856.311 64 C 856.302 60.905 854.172 57.935 850.387 55.75 C 846.605 53.566 841.464 52.336 836.098 52.335 L 836.098 54.456 C 836.714 54.456 837.33 54.476 837.942 54.515 L 837.942 54.515 L 837.942 54.515 C 841.666 54.755 845.139 55.72 847.789 57.25 L 847.789 57.25 C 850.889 59.04 852.639 61.47 852.639 64 C 852.639 66.53 850.889 68.96 847.789 70.75 C 845.139 72.28 841.666 73.245 837.942 73.485 L 837.942 73.485 C 837.329 73.524 836.714 73.544 836.098 73.544 L 836.098 75.665 Z " fill="rgb(255,255,255)"/></g><g><g><path d=" M 836.096 324.604 C 840.799 324.604 845.502 323.569 849.087 321.499 C 856.256 317.36 856.256 310.638 849.087 306.499 C 845.502 304.429 840.799 303.395 836.096 303.395 L 836.096 324.604 Z " fill="rgb(0,82,255)"/><path d=" M 836.096 325.664 C 841.462 325.663 846.603 324.433 850.386 322.249 C 854.17 320.064 856.301 317.094 856.309 313.999 C 856.301 310.904 854.17 307.934 850.386 305.749 C 846.603 303.565 841.463 302.336 836.096 302.334 L 836.096 304.455 C 836.712 304.455 837.328 304.475 837.941 304.514 L 837.941 304.514 L 837.941 304.514 C 841.665 304.754 845.138 305.719 847.788 307.249 L 847.788 307.249 C 850.888 309.039 852.637 311.469 852.637 313.999 C 852.637 316.529 850.888 318.959 847.788 320.749 C 845.138 322.279 841.665 323.244 837.941 323.484 L 837.941 323.484 C 837.328 323.523 836.712 323.543 836.096 323.543 L 836.096 325.664 Z " fill="rgb(255,255,255)"/></g></g></g></g></g><g><g><path d=" M 844.756 358.999 C 844.756 350.721 850.577 340.639 857.747 336.499 C 864.916 332.36 870.737 335.721 870.737 343.999 C 870.737 352.278 864.916 362.36 857.747 366.499 C 850.577 370.639 844.756 367.278 844.756 358.999 L 844.756 358.999 L 844.756 358.999 Z  M 1061.263 233.999 C 1061.263 225.721 1067.084 215.639 1074.253 211.499 C 1081.423 207.36 1087.244 210.721 1087.244 218.999 C 1087.244 227.278 1081.423 237.36 1074.253 241.499 C 1067.084 245.639 1061.263 242.278 1061.263 233.999 L 1061.263 233.999 L 1061.263 233.999 Z  M 1061.263 483.998 C 1061.263 475.719 1067.084 465.637 1074.253 461.498 C 1081.423 457.359 1087.244 460.719 1087.244 468.998 C 1087.244 477.276 1081.423 487.358 1074.253 491.498 C 1067.084 495.637 1061.263 492.276 1061.263 483.998 L 1061.263 483.998 Z  M 844.756 608.998 C 844.756 600.719 850.577 590.637 857.747 586.498 C 864.916 582.359 870.737 585.719 870.737 593.998 C 870.737 602.276 864.916 612.358 857.747 616.498 C 850.577 620.637 844.756 617.276 844.756 608.998 Z " fill-rule="evenodd" fill="rgb(0,82,255)" vector-effect="non-scaling-stroke" stroke-width="2.792" stroke="rgb(255,255,255)" stroke-linejoin="miter" stroke-linecap="square" stroke-miterlimit="3"/><path d=" M 846.15 359.02 C 846.17 356.97 846.5 354.94 847.11 352.99 C 847.76 350.86 848.65 348.82 849.77 346.9 C 850.88 344.97 852.2 343.17 853.72 341.55 C 855.1 340.04 856.7 338.74 858.46 337.7 C 859.32 337.2 860.23 336.79 861.19 336.5 C 861.95 336.26 862.75 336.13 863.56 336.12 C 864.36 336.12 865.15 336.29 865.88 336.62 C 866.56 336.95 867.17 337.43 867.64 338.02 C 868.2 338.75 868.62 339.57 868.87 340.46 C 869.2 341.6 869.36 342.79 869.34 343.98 C 869.32 346.03 869 348.06 868.38 350.01 C 867.73 352.14 866.84 354.18 865.72 356.11 C 864.62 358.03 863.29 359.83 861.78 361.46 C 860.39 362.96 858.8 364.26 857.04 365.3 C 856.18 365.8 855.26 366.21 854.31 366.5 C 853.54 366.74 852.74 366.87 851.94 366.88 C 851.14 366.88 850.35 366.72 849.62 366.38 C 848.93 366.06 848.33 365.58 847.85 364.98 C 847.29 364.25 846.87 363.43 846.62 362.55 C 846.3 361.4 846.14 360.21 846.15 359.02 L 846.15 359.02 L 846.15 359.02 L 846.15 359.02 Z  M 1062.66 234.02 C 1062.68 231.97 1063 229.94 1063.62 227.99 C 1064.27 225.86 1065.16 223.82 1066.28 221.9 C 1067.38 219.97 1068.71 218.17 1070.22 216.55 C 1071.61 215.04 1073.2 213.74 1074.96 212.7 C 1075.82 212.2 1076.74 211.79 1077.69 211.5 C 1078.46 211.26 1079.26 211.13 1080.06 211.12 C 1080.86 211.12 1081.65 211.29 1082.38 211.62 C 1083.07 211.95 1083.67 212.43 1084.15 213.02 C 1084.71 213.75 1085.13 214.57 1085.38 215.46 C 1085.7 216.6 1085.86 217.79 1085.85 218.98 C 1085.83 221.03 1085.5 223.06 1084.89 225.01 C 1084.24 227.14 1083.35 229.18 1082.23 231.11 C 1081.12 233.03 1079.8 234.83 1078.28 236.46 C 1076.9 237.96 1075.3 239.26 1073.54 240.3 C 1072.68 240.8 1071.77 241.21 1070.81 241.5 C 1070.05 241.74 1069.25 241.87 1068.44 241.88 C 1067.64 241.88 1066.85 241.72 1066.12 241.38 C 1065.44 241.06 1064.83 240.58 1064.36 239.98 C 1063.8 239.25 1063.38 238.43 1063.13 237.55 C 1062.8 236.4 1062.64 235.21 1062.66 234.02 L 1062.66 234.02 L 1062.66 234.02 L 1062.66 234.02 Z  M 1062.66 484.02 C 1062.68 481.97 1063 479.94 1063.62 477.99 C 1064.27 475.86 1065.16 473.82 1066.28 471.89 C 1067.38 469.97 1068.71 468.17 1070.22 466.54 C 1071.61 465.04 1073.2 463.74 1074.96 462.7 C 1075.82 462.2 1076.74 461.79 1077.69 461.5 C 1078.46 461.26 1079.26 461.13 1080.06 461.12 C 1080.86 461.12 1081.65 461.28 1082.38 461.62 C 1083.07 461.94 1083.67 462.42 1084.15 463.02 C 1084.71 463.75 1085.13 464.57 1085.38 465.45 C 1085.7 466.6 1085.86 467.79 1085.85 468.98 C 1085.83 471.03 1085.5 473.06 1084.89 475.01 C 1084.24 477.14 1083.35 479.18 1082.23 481.1 C 1081.12 483.03 1079.8 484.83 1078.28 486.45 C 1076.9 487.96 1075.3 489.26 1073.54 490.3 C 1072.68 490.8 1071.77 491.21 1070.81 491.5 C 1070.05 491.74 1069.25 491.87 1068.44 491.88 C 1067.64 491.88 1066.85 491.71 1066.12 491.38 C 1065.44 491.05 1064.83 490.57 1064.36 489.98 C 1063.8 489.25 1063.38 488.43 1063.13 487.54 C 1062.8 486.4 1062.64 485.21 1062.66 484.02 L 1062.66 484.02 L 1062.66 484.02 Z  M 843.36 358.98 C 843.39 356.67 843.75 354.37 844.45 352.16 C 845.16 349.84 846.13 347.6 847.35 345.5 C 848.56 343.39 850.01 341.43 851.67 339.65 C 853.23 337.94 855.04 336.48 857.04 335.3 C 858.08 334.68 859.2 334.19 860.36 333.83 C 861.39 333.51 862.45 333.34 863.53 333.33 C 864.75 333.32 865.95 333.58 867.06 334.09 C 868.14 334.6 869.09 335.36 869.84 336.3 C 870.62 337.31 871.21 338.46 871.56 339.69 C 871.96 341.1 872.15 342.55 872.13 344.02 C 872.11 346.33 871.74 348.63 871.05 350.84 C 870.34 353.16 869.36 355.4 868.14 357.5 C 866.93 359.61 865.48 361.57 863.83 363.35 C 862.26 365.06 860.45 366.52 858.46 367.7 C 857.41 368.32 856.3 368.81 855.14 369.17 C 854.11 369.49 853.04 369.66 851.96 369.67 C 850.75 369.68 849.54 369.42 848.44 368.91 C 847.35 368.4 846.4 367.64 845.66 366.7 C 844.87 365.69 844.29 364.54 843.94 363.31 C 843.54 361.9 843.34 360.45 843.36 358.98 L 843.36 358.98 L 843.36 358.98 L 843.36 358.98 Z  M 1059.87 233.98 C 1059.89 231.67 1060.26 229.37 1060.95 227.16 C 1061.66 224.84 1062.64 222.6 1063.86 220.5 C 1065.07 218.39 1066.52 216.43 1068.17 214.65 C 1069.74 212.94 1071.55 211.48 1073.54 210.3 C 1074.59 209.68 1075.7 209.19 1076.86 208.83 C 1077.89 208.51 1078.96 208.34 1080.04 208.33 C 1081.25 208.32 1082.46 208.58 1083.56 209.09 C 1084.65 209.6 1085.6 210.36 1086.34 211.3 C 1087.13 212.31 1087.71 213.46 1088.06 214.69 C 1088.46 216.1 1088.66 217.55 1088.64 219.02 C 1088.61 221.33 1088.25 223.63 1087.56 225.84 C 1086.84 228.16 1085.87 230.4 1084.65 232.5 C 1083.44 234.61 1081.99 236.57 1080.33 238.35 C 1078.77 240.06 1076.96 241.52 1074.96 242.7 C 1073.92 243.32 1072.8 243.81 1071.64 244.17 C 1070.61 244.49 1069.55 244.66 1068.47 244.67 C 1067.25 244.68 1066.05 244.42 1064.94 243.91 C 1063.86 243.4 1062.91 242.64 1062.16 241.7 C 1061.38 240.69 1060.79 239.54 1060.44 238.31 C 1060.04 236.9 1059.85 235.45 1059.87 233.98 L 1059.87 233.98 L 1059.87 233.98 L 1059.87 233.98 Z  M 1059.87 483.98 C 1059.89 481.67 1060.26 479.37 1060.95 477.15 C 1061.66 474.84 1062.64 472.6 1063.86 470.5 C 1065.07 468.39 1066.52 466.43 1068.17 464.65 C 1069.74 462.94 1071.55 461.48 1073.54 460.3 C 1074.59 459.68 1075.7 459.19 1076.86 458.83 C 1077.89 458.51 1078.96 458.34 1080.04 458.33 C 1081.25 458.32 1082.46 458.58 1083.56 459.09 C 1084.65 459.6 1085.6 460.36 1086.34 461.3 C 1087.13 462.31 1087.71 463.46 1088.06 464.69 C 1088.46 466.1 1088.66 467.55 1088.64 469.02 C 1088.61 471.33 1088.25 473.63 1087.56 475.84 C 1086.84 478.16 1085.87 480.4 1084.65 482.5 C 1083.44 484.61 1081.99 486.57 1080.33 488.35 C 1078.77 490.06 1076.96 491.52 1074.96 492.7 C 1073.92 493.32 1072.8 493.81 1071.64 494.17 C 1070.61 494.49 1069.55 494.66 1068.47 494.67 C 1067.25 494.68 1066.05 494.42 1064.94 493.91 C 1063.86 493.4 1062.91 492.64 1062.16 491.7 C 1061.38 490.69 1060.79 489.54 1060.44 488.31 C 1060.04 486.9 1059.85 485.45 1059.87 483.98 L 1059.87 483.98 L 1059.87 483.98 Z  M 846.15 609.02 C 846.17 606.97 846.5 604.94 847.11 602.99 C 847.76 600.86 848.65 598.82 849.77 596.89 C 850.88 594.97 852.2 593.17 853.72 591.54 C 855.1 590.04 856.7 588.74 858.46 587.7 C 859.32 587.2 860.23 586.79 861.19 586.5 C 861.95 586.26 862.75 586.13 863.56 586.12 C 864.36 586.12 865.15 586.28 865.88 586.62 C 866.56 586.94 867.17 587.42 867.64 588.02 C 868.2 588.75 868.62 589.57 868.87 590.45 C 869.2 591.6 869.36 592.79 869.34 593.98 C 869.32 596.03 869 598.06 868.38 600.01 C 867.73 602.14 866.84 604.18 865.72 606.1 C 864.62 608.03 863.29 609.83 861.78 611.45 C 860.39 612.96 858.8 614.26 857.04 615.3 C 856.18 615.8 855.26 616.21 854.31 616.5 C 853.54 616.74 852.74 616.87 851.94 616.88 C 851.14 616.88 850.35 616.71 849.62 616.38 C 848.93 616.05 848.33 615.57 847.85 614.98 C 847.29 614.25 846.87 613.43 846.62 612.54 C 846.3 611.4 846.14 610.21 846.15 609.02 L 846.15 609.02 Z  M 843.36 608.98 C 843.39 606.67 843.75 604.37 844.45 602.15 C 845.16 599.84 846.13 597.6 847.35 595.5 C 848.56 593.39 850.01 591.43 851.67 589.65 C 853.23 587.94 855.04 586.48 857.04 585.3 C 858.08 584.68 859.2 584.19 860.36 583.83 C 861.39 583.51 862.45 583.34 863.53 583.33 C 864.75 583.32 865.95 583.58 867.06 584.09 C 868.14 584.6 869.09 585.36 869.84 586.3 C 870.62 587.31 871.21 588.46 871.56 589.69 C 871.96 591.1 872.15 592.55 872.13 594.02 C 872.11 596.33 871.74 598.63 871.05 600.84 C 870.34 603.16 869.36 605.4 868.14 607.5 C 866.93 609.61 865.48 611.57 863.83 613.35 C 862.26 615.06 860.45 616.52 858.46 617.7 C 857.41 618.32 856.3 618.81 855.14 619.17 C 854.11 619.49 853.04 619.66 851.96 619.67 C 850.75 619.68 849.54 619.42 848.44 618.91 C 847.35 618.4 846.4 617.64 845.66 616.7 C 844.87 615.69 844.29 614.54 843.94 613.31 C 843.54 611.9 843.34 610.45 843.36 608.98 L 843.36 608.98 Z " fill-rule="evenodd" fill="rgb(255,255,255)"/></g><g><path d=" M 1052.603 488.304 L 1052.603 489.692 C 1052.603 494.828 1048.991 501.083 1044.543 503.651 L 887.457 594.345 C 883.009 596.913 879.397 594.828 879.397 589.692 L 879.397 588.304 C 879.397 583.168 883.009 576.913 887.457 574.345 L 1044.543 483.651 C 1048.991 481.083 1052.603 483.168 1052.603 488.304 L 1052.603 488.304 L 1052.603 488.304 Z  M 857.146 376.846 L 858.348 376.152 C 862.796 373.584 866.407 375.669 866.407 380.805 L 866.407 562.192 C 866.407 567.328 862.796 573.583 858.348 576.151 L 857.146 576.845 C 852.698 579.413 849.087 577.328 849.087 572.192 L 849.087 390.805 C 849.087 385.669 852.698 379.414 857.146 376.846 L 857.146 376.846 L 857.146 376.846 Z  M 1073.652 251.846 L 1074.854 251.152 C 1079.302 248.584 1082.913 250.669 1082.913 255.805 L 1082.913 437.192 C 1082.913 442.328 1079.302 448.583 1074.854 451.151 L 1073.652 451.845 C 1069.204 454.413 1065.593 452.328 1065.593 447.192 L 1065.593 265.805 C 1065.593 260.669 1069.204 254.414 1073.652 251.846 L 1073.652 251.846 Z  M 879.397 339.693 L 879.397 338.305 C 879.397 333.169 883.009 326.914 887.457 324.346 L 1044.543 233.652 C 1048.991 231.084 1052.603 233.169 1052.603 238.305 L 1052.603 239.693 C 1052.603 244.829 1048.991 251.084 1044.543 253.652 L 887.457 344.346 C 883.009 346.914 879.397 344.829 879.397 339.693 Z " fill-rule="evenodd" fill="rgb(0,82,255)"/><path d=" M 1051.21 488.3 L 1051.21 489.68 C 1051.19 490.9 1051 492.11 1050.64 493.26 C 1050.24 494.55 1049.71 495.78 1049.03 496.94 C 1048.37 498.1 1047.57 499.18 1046.65 500.16 C 1045.83 501.06 1044.88 501.83 1043.84 502.45 L 886.76 593.14 C 886.76 593.14 886.75 593.14 886.75 593.14 C 886.25 593.43 885.72 593.67 885.17 593.84 C 884.74 593.97 884.29 594.04 883.85 594.05 C 883.43 594.05 883.02 593.97 882.64 593.79 C 882.29 593.62 881.98 593.38 881.74 593.07 C 881.43 592.68 881.2 592.23 881.07 591.75 C 880.88 591.08 880.78 590.4 880.79 589.71 C 880.79 589.7 880.79 589.7 880.79 589.69 L 880.79 588.3 C 880.79 583.05 883.61 578.18 888.15 575.55 L 1045.24 484.86 C 1045.24 484.86 1045.25 484.86 1045.25 484.85 C 1045.75 484.56 1046.28 484.33 1046.83 484.15 C 1047.26 484.02 1047.71 483.95 1048.15 483.95 C 1048.57 483.94 1048.98 484.03 1049.36 484.2 C 1049.71 484.37 1050.02 484.62 1050.26 484.92 C 1050.57 485.32 1050.8 485.77 1050.93 486.25 C 1051.12 486.91 1051.22 487.6 1051.21 488.29 C 1051.21 488.29 1051.21 488.3 1051.21 488.3 L 1051.21 488.3 L 1051.21 488.3 L 1051.21 488.3 Z  M 857.85 378.05 L 859.05 377.36 C 859.05 377.36 859.05 377.36 859.06 377.36 C 859.55 377.06 860.09 376.83 860.64 376.66 C 861.07 376.52 861.51 376.45 861.96 376.45 C 862.37 376.44 862.79 376.53 863.17 376.7 C 863.52 376.87 863.83 377.12 864.07 377.42 C 864.38 377.82 864.6 378.27 864.74 378.75 C 864.93 379.41 865.02 380.1 865.01 380.79 C 865.01 380.79 865.01 380.8 865.01 380.81 L 865.01 562.18 C 865 563.4 864.8 564.61 864.44 565.77 C 864.05 567.05 863.51 568.28 862.84 569.44 C 862.17 570.6 861.37 571.68 860.46 572.66 C 859.64 573.56 858.69 574.33 857.64 574.95 L 856.45 575.64 C 856.44 575.64 856.44 575.64 856.44 575.64 C 855.94 575.94 855.41 576.17 854.85 576.34 C 854.43 576.47 853.98 576.54 853.54 576.55 C 853.12 576.55 852.71 576.47 852.33 576.29 C 851.98 576.12 851.67 575.88 851.42 575.57 C 851.12 575.18 850.89 574.73 850.75 574.25 C 850.57 573.58 850.47 572.9 850.48 572.21 C 850.48 572.2 850.48 572.2 850.48 572.19 L 850.48 390.81 C 850.5 389.6 850.69 388.39 851.05 387.23 C 851.45 385.95 851.98 384.72 852.66 383.56 C 853.32 382.4 854.12 381.32 855.03 380.34 C 855.86 379.44 856.8 378.67 857.85 378.05 L 857.85 378.05 L 857.85 378.05 L 857.85 378.05 Z  M 1074.36 253.05 L 1075.55 252.36 C 1075.56 252.36 1075.56 252.36 1075.56 252.36 C 1076.06 252.06 1076.59 251.83 1077.15 251.66 C 1077.57 251.52 1078.02 251.45 1078.46 251.45 C 1078.88 251.44 1079.29 251.53 1079.67 251.7 C 1080.02 251.87 1080.33 252.12 1080.58 252.42 C 1080.88 252.82 1081.11 253.27 1081.25 253.75 C 1081.43 254.41 1081.53 255.1 1081.52 255.79 C 1081.52 255.79 1081.52 255.8 1081.52 255.81 L 1081.52 437.18 C 1081.5 438.4 1081.31 439.61 1080.95 440.77 C 1080.55 442.05 1080.02 443.28 1079.34 444.44 C 1078.68 445.6 1077.88 446.68 1076.97 447.66 C 1076.14 448.56 1075.2 449.33 1074.15 449.95 L 1072.95 450.64 C 1072.95 450.64 1072.95 450.64 1072.94 450.64 C 1072.45 450.94 1071.91 451.17 1071.36 451.34 C 1070.93 451.47 1070.49 451.54 1070.04 451.55 C 1069.63 451.55 1069.21 451.47 1068.83 451.29 C 1068.48 451.12 1068.17 450.88 1067.93 450.57 C 1067.62 450.18 1067.4 449.73 1067.26 449.25 C 1067.07 448.58 1066.98 447.9 1066.99 447.21 C 1066.99 447.2 1066.99 447.2 1066.99 447.19 L 1066.99 265.81 C 1067 264.6 1067.2 263.39 1067.56 262.23 C 1067.95 260.95 1068.49 259.72 1069.16 258.56 C 1069.83 257.4 1070.63 256.32 1071.54 255.34 C 1072.36 254.44 1073.31 253.67 1074.36 253.05 L 1074.36 253.05 L 1074.36 253.05 Z  M 878 589.68 L 878 588.3 C 878 582.05 881.35 576.26 886.76 573.14 L 1043.84 482.44 C 1044.52 482.04 1045.25 481.72 1046.01 481.49 C 1046.69 481.27 1047.41 481.16 1048.13 481.16 C 1048.96 481.15 1049.79 481.32 1050.54 481.67 C 1051.29 482.03 1051.95 482.55 1052.46 483.2 C 1052.99 483.88 1053.38 484.66 1053.62 485.49 C 1053.88 486.4 1054.01 487.36 1054 488.31 L 1054 489.69 C 1054 489.7 1054 489.7 1054 489.71 C 1053.98 491.19 1053.75 492.67 1053.3 494.09 C 1052.85 495.57 1052.23 496.99 1051.45 498.33 C 1050.68 499.67 1049.76 500.92 1048.7 502.06 C 1047.7 503.15 1046.53 504.09 1045.25 504.85 C 1045.25 504.85 1045.25 504.86 1045.24 504.86 L 888.16 595.55 C 887.48 595.95 886.75 596.27 885.99 596.51 C 885.31 596.72 884.59 596.83 883.87 596.84 C 883.04 596.85 882.21 596.67 881.46 596.32 C 880.71 595.97 880.05 595.45 879.54 594.8 C 879.01 594.12 878.62 593.34 878.38 592.51 C 878.12 591.59 877.99 590.64 878 589.68 L 878 589.68 L 878 589.68 L 878 589.68 Z  M 856.45 375.64 L 857.65 374.95 C 858.33 374.55 859.05 374.22 859.81 373.99 C 860.5 373.78 861.21 373.66 861.93 373.66 C 862.76 373.65 863.59 373.83 864.35 374.17 C 865.1 374.53 865.75 375.05 866.27 375.7 C 866.8 376.38 867.19 377.16 867.42 377.99 C 867.69 378.91 867.81 379.86 867.8 380.81 L 867.8 562.19 C 867.8 562.2 867.8 562.2 867.8 562.21 C 867.79 563.69 867.55 565.17 867.11 566.59 C 866.65 568.07 866.03 569.49 865.25 570.83 C 864.48 572.17 863.56 573.42 862.51 574.56 C 861.5 575.65 860.34 576.59 859.06 577.35 C 859.05 577.35 859.05 577.36 859.05 577.36 L 857.85 578.05 C 857.17 578.45 856.44 578.77 855.68 579.01 C 855 579.22 854.28 579.33 853.56 579.34 C 852.73 579.35 851.9 579.17 851.15 578.82 C 850.4 578.47 849.74 577.95 849.23 577.3 C 848.7 576.62 848.3 575.84 848.07 575.01 C 847.81 574.09 847.68 573.14 847.69 572.18 L 847.69 390.81 C 847.69 390.8 847.69 390.8 847.69 390.79 C 847.71 389.3 847.94 387.82 848.39 386.41 C 848.84 384.93 849.46 383.5 850.24 382.16 C 851.01 380.82 851.93 379.57 852.99 378.44 C 853.99 377.34 855.15 376.4 856.43 375.64 C 856.44 375.64 856.44 375.64 856.45 375.64 L 856.45 375.64 L 856.45 375.64 L 856.45 375.64 Z  M 1072.95 250.64 L 1074.15 249.95 C 1074.83 249.55 1075.56 249.22 1076.32 248.99 C 1077 248.78 1077.72 248.66 1078.44 248.66 C 1079.27 248.65 1080.1 248.83 1080.85 249.17 C 1081.6 249.53 1082.26 250.05 1082.77 250.7 C 1083.3 251.38 1083.7 252.16 1083.93 252.99 C 1084.19 253.91 1084.32 254.86 1084.31 255.81 L 1084.31 437.19 C 1084.31 437.2 1084.31 437.2 1084.31 437.21 C 1084.29 438.69 1084.06 440.17 1083.61 441.59 C 1083.16 443.07 1082.54 444.49 1081.76 445.83 C 1080.99 447.17 1080.07 448.42 1079.01 449.56 C 1078.01 450.65 1076.85 451.59 1075.57 452.35 C 1075.56 452.35 1075.56 452.36 1075.55 452.36 L 1074.35 453.05 C 1073.67 453.45 1072.95 453.77 1072.19 454.01 C 1071.5 454.22 1070.79 454.33 1070.07 454.34 C 1069.24 454.35 1068.41 454.17 1067.65 453.82 C 1066.9 453.47 1066.25 452.95 1065.73 452.3 C 1065.2 451.62 1064.81 450.84 1064.58 450.01 C 1064.31 449.09 1064.19 448.14 1064.2 447.18 L 1064.2 265.81 C 1064.2 265.8 1064.2 265.8 1064.2 265.79 C 1064.21 264.3 1064.45 262.82 1064.89 261.41 C 1065.35 259.93 1065.97 258.5 1066.75 257.16 C 1067.52 255.82 1068.44 254.57 1069.49 253.44 C 1070.5 252.34 1071.66 251.4 1072.94 250.64 C 1072.95 250.64 1072.95 250.64 1072.95 250.64 L 1072.95 250.64 L 1072.95 250.64 Z  M 880.79 339.69 L 880.79 338.31 C 880.81 337.1 881 335.89 881.36 334.73 C 881.76 333.45 882.29 332.22 882.97 331.06 C 883.63 329.9 884.43 328.82 885.35 327.84 C 886.17 326.94 887.12 326.17 888.16 325.55 L 1045.24 234.86 C 1045.24 234.86 1045.25 234.86 1045.25 234.86 C 1045.75 234.56 1046.28 234.33 1046.83 234.16 C 1047.26 234.02 1047.71 233.95 1048.15 233.95 C 1048.57 233.94 1048.98 234.03 1049.36 234.2 C 1049.71 234.37 1050.02 234.62 1050.26 234.92 C 1050.57 235.32 1050.8 235.77 1050.93 236.25 C 1051.12 236.91 1051.22 237.6 1051.21 238.29 C 1051.21 238.29 1051.21 238.3 1051.21 238.31 L 1051.21 239.69 C 1051.21 244.95 1048.39 249.82 1043.85 252.44 L 886.76 343.14 C 886.76 343.14 886.75 343.14 886.75 343.14 C 886.25 343.44 885.72 343.67 885.17 343.84 C 884.74 343.98 884.29 344.05 883.85 344.05 C 883.43 344.05 883.02 343.97 882.64 343.79 C 882.29 343.63 881.98 343.38 881.74 343.07 C 881.43 342.68 881.2 342.23 881.07 341.75 C 880.88 341.09 880.78 340.4 880.79 339.71 C 880.79 339.7 880.79 339.7 880.79 339.69 L 880.79 339.69 Z  M 878 339.69 L 878 338.31 C 878 338.3 878 338.3 878 338.29 C 878.02 336.8 878.25 335.32 878.7 333.91 C 879.15 332.43 879.77 331 880.55 329.66 C 881.32 328.32 882.24 327.07 883.3 325.94 C 884.3 324.84 885.47 323.9 886.75 323.15 C 886.75 323.14 886.75 323.14 886.76 323.14 L 1043.84 232.45 C 1044.52 232.05 1045.25 231.72 1046.01 231.49 C 1046.69 231.28 1047.41 231.16 1048.13 231.16 C 1048.96 231.15 1049.79 231.33 1050.54 231.67 C 1051.29 232.03 1051.95 232.55 1052.46 233.2 C 1052.99 233.88 1053.38 234.66 1053.62 235.49 C 1053.88 236.41 1054.01 237.36 1054 238.31 L 1054 239.69 C 1054 245.94 1050.65 251.74 1045.24 254.86 L 888.16 345.55 C 887.48 345.95 886.75 346.27 885.99 346.51 C 885.31 346.72 884.59 346.83 883.87 346.84 C 883.04 346.85 882.21 346.67 881.46 346.32 C 880.71 345.97 880.05 345.45 879.54 344.8 C 879.01 344.12 878.62 343.34 878.38 342.51 C 878.12 341.59 877.99 340.64 878 339.69 L 878 339.69 Z " fill-rule="evenodd" fill="rgb(255,255,255)"/></g><g><path d=" M 899.628 433.819 L 913.813 425.629 L 922.699 383.329 L 931.584 415.369 L 945.77 407.179 L 960.812 335.494 L 947.718 343.054 L 938.287 392.599 L 927.765 354.574 L 917.632 360.424 L 907.11 410.599 L 897.679 371.944 L 884.585 379.504 L 899.628 433.819 L 899.628 433.819 L 899.628 433.819 Z  M 1017.875 302.549 L 1017.875 326.669 L 1000.728 336.569 L 1000.728 312.449 L 988.257 319.649 L 988.257 382.649 L 1000.728 375.449 L 1000.728 350.429 L 1017.875 340.529 L 1017.875 365.549 L 1030.346 358.349 L 1030.346 295.349 L 1017.875 302.549 L 1017.875 302.549 L 1017.875 302.549 Z  M 947.251 443.324 L 933.065 451.513 L 922.699 481.798 L 912.332 463.483 L 898.147 471.673 L 916.463 499.888 L 916.463 524.098 L 928.934 516.898 L 928.934 492.688 L 947.251 443.324 L 947.251 443.324 Z  M 1003.066 451.598 L 1015.537 444.398 C 1015.537 438.188 1028.007 426.848 1028.007 413.438 C 1028.007 401.738 1019.122 400.568 1010.237 405.698 C 1001.585 410.693 994.025 420.278 990.595 431.528 L 1001.351 432.428 C 1002.91 427.298 1005.482 422.483 1009.769 420.008 C 1013.744 417.713 1015.537 418.748 1015.537 421.898 C 1015.537 429.818 1003.066 441.068 1003.066 451.598 L 1003.066 451.598 Z  M 1009.301 471.758 C 1013.354 469.418 1016.706 463.613 1016.706 458.933 C 1016.706 454.253 1013.354 452.318 1009.301 454.658 C 1005.248 456.998 1001.897 462.803 1001.897 467.483 C 1001.897 472.163 1005.248 474.098 1009.301 471.758 L 1009.301 471.758 Z " fill-rule="evenodd" fill="rgb(0,82,255)"/><path d=" M 886.22 380.17 L 896.76 374.08 L 907.21 416.91 L 918.87 361.32 L 926.9 356.68 L 938.54 398.74 L 948.97 343.94 L 958.8 338.27 L 944.53 406.28 L 932.45 413.26 L 922.51 377.43 L 912.58 424.73 L 900.49 431.71 L 886.22 380.17 L 886.22 380.17 L 886.22 380.17 L 886.22 380.17 Z  M 1028.95 297.77 L 1028.95 357.54 L 1019.27 363.13 L 1019.27 338.11 L 999.33 349.62 L 999.33 374.64 L 989.65 380.23 L 989.65 320.46 L 999.33 314.87 L 999.33 338.99 L 1019.27 327.47 L 1019.27 303.36 L 1028.95 297.77 L 1028.95 297.77 L 1028.95 297.77 L 1028.95 297.77 Z  M 927.54 492.44 L 927.54 516.09 L 917.86 521.68 L 917.86 499.47 L 900.12 472.15 L 911.81 465.4 L 923.01 485.19 L 934.22 452.46 L 944.59 446.47 L 927.54 492.44 L 927.54 492.44 L 927.54 492.44 Z  M 882.95 378.84 L 898.59 369.8 L 907.01 404.29 L 916.39 359.53 L 928.63 352.46 L 938.04 386.46 L 946.47 342.16 L 962.82 332.72 L 947.01 408.08 L 930.72 417.48 L 922.89 389.23 L 915.05 426.53 L 898.76 435.93 L 882.95 378.84 L 882.95 378.84 L 882.95 378.84 L 882.95 378.84 Z  M 1031.74 292.93 L 1031.74 359.15 L 1016.48 367.97 L 1016.48 342.95 L 1002.12 351.23 L 1002.12 376.25 L 986.86 385.07 L 986.86 318.84 L 1002.12 310.03 L 1002.12 334.15 L 1016.48 325.86 L 1016.48 301.74 L 1031.74 292.93 L 1031.74 292.93 L 1031.74 292.93 L 1031.74 292.93 Z  M 930.33 492.94 L 930.33 517.7 L 915.07 526.52 L 915.07 500.3 L 896.18 471.2 L 912.85 461.57 L 922.38 478.41 L 931.91 450.57 L 949.91 440.18 L 930.33 492.94 L 930.33 492.94 L 930.33 492.94 Z  M 1016.93 421.92 C 1016.94 421.37 1016.88 420.81 1016.76 420.27 C 1016.65 419.75 1016.45 419.26 1016.15 418.81 C 1015.84 418.35 1015.41 417.97 1014.9 417.72 C 1014.39 417.48 1013.83 417.36 1013.27 417.37 C 1012.58 417.39 1011.91 417.52 1011.27 417.76 C 1010.5 418.04 1009.76 418.39 1009.06 418.81 C 1007.89 419.49 1006.81 420.33 1005.87 421.3 C 1004.92 422.27 1004.08 423.33 1003.36 424.48 C 1002.62 425.64 1001.98 426.86 1001.44 428.12 C 1001.04 429.05 1000.68 429.99 1000.36 430.94 L 992.47 430.28 C 994.11 425.54 996.51 421.1 999.57 417.12 C 1001.17 415.02 1002.97 413.07 1004.94 411.3 C 1006.78 409.63 1008.79 408.16 1010.94 406.9 C 1012.37 406.07 1013.88 405.39 1015.45 404.88 C 1016.76 404.45 1018.13 404.22 1019.5 404.2 C 1020.49 404.19 1021.46 404.36 1022.38 404.72 C 1023.21 405.05 1023.94 405.57 1024.53 406.24 C 1025.22 407.05 1025.73 408 1026.03 409.02 C 1026.44 410.45 1026.64 411.93 1026.61 413.42 C 1026.6 415.28 1026.37 417.13 1025.91 418.93 C 1025.45 420.74 1024.84 422.51 1024.08 424.21 C 1023.32 425.91 1022.48 427.58 1021.56 429.19 C 1020.68 430.74 1019.76 432.28 1018.83 433.8 C 1018.24 434.76 1017.66 435.73 1017.09 436.7 C 1016.57 437.58 1016.08 438.48 1015.62 439.39 C 1015.2 440.21 1014.85 441.05 1014.57 441.92 C 1014.39 442.45 1014.27 443 1014.2 443.56 L 1004.71 449.04 C 1004.79 448.59 1004.9 448.15 1005.02 447.72 C 1005.41 446.32 1005.92 444.96 1006.53 443.65 C 1007.19 442.25 1007.91 440.87 1008.69 439.52 C 1009.49 438.14 1010.31 436.77 1011.15 435.42 C 1011.87 434.26 1012.57 433.1 1013.25 431.92 C 1013.91 430.81 1014.52 429.68 1015.08 428.52 C 1015.61 427.45 1016.05 426.34 1016.4 425.2 C 1016.74 424.14 1016.91 423.03 1016.93 421.92 L 1016.93 421.92 Z  M 1003.29 467.5 C 1003.31 466.4 1003.48 465.31 1003.81 464.26 C 1004.18 463.08 1004.67 461.95 1005.29 460.89 C 1005.9 459.83 1006.63 458.84 1007.46 457.94 C 1008.2 457.12 1009.06 456.42 1010.01 455.86 C 1010.45 455.6 1010.93 455.39 1011.42 455.24 C 1011.79 455.12 1012.19 455.06 1012.58 455.06 C 1012.95 455.06 1013.32 455.13 1013.66 455.29 C 1013.97 455.43 1014.24 455.65 1014.46 455.92 C 1014.73 456.27 1014.94 456.67 1015.06 457.09 C 1015.23 457.69 1015.32 458.3 1015.31 458.92 C 1015.3 460.02 1015.12 461.11 1014.79 462.17 C 1014.43 463.34 1013.93 464.47 1013.31 465.53 C 1012.7 466.59 1011.98 467.58 1011.14 468.48 C 1010.4 469.29 1009.54 469.99 1008.59 470.56 C 1008.15 470.82 1007.68 471.02 1007.19 471.17 C 1006.81 471.29 1006.41 471.35 1006.02 471.36 C 1005.65 471.36 1005.28 471.28 1004.94 471.13 C 1004.63 470.98 1004.36 470.77 1004.14 470.5 C 1003.87 470.15 1003.66 469.75 1003.54 469.32 C 1003.37 468.73 1003.29 468.12 1003.29 467.5 L 1003.29 467.5 Z  M 1014.14 421.88 C 1014.15 421.54 1014.11 421.2 1014.04 420.87 C 1014 420.69 1013.93 420.52 1013.83 420.37 C 1013.79 420.31 1013.74 420.27 1013.68 420.23 C 1013.57 420.18 1013.45 420.16 1013.33 420.16 C 1012.96 420.17 1012.59 420.25 1012.24 420.38 C 1011.62 420.6 1011.04 420.88 1010.48 421.21 C 1009.52 421.77 1008.64 422.45 1007.86 423.25 C 1007.05 424.08 1006.33 424.99 1005.72 425.97 C 1005.06 427.01 1004.49 428.1 1004 429.22 C 1003.5 430.4 1003.06 431.6 1002.69 432.83 C 1002.6 433.14 1002.4 433.4 1002.14 433.58 C 1001.87 433.76 1001.55 433.85 1001.23 433.82 L 990.48 432.92 C 990.06 432.88 989.68 432.66 989.44 432.31 C 989.2 431.96 989.14 431.52 989.26 431.12 C 990.99 425.44 993.73 420.12 997.35 415.42 C 999.06 413.18 1000.97 411.11 1003.06 409.22 C 1005.05 407.43 1007.22 405.84 1009.53 404.49 C 1011.13 403.56 1012.82 402.8 1014.59 402.23 C 1016.16 401.71 1017.81 401.43 1019.47 401.41 C 1020.81 401.39 1022.15 401.63 1023.4 402.12 C 1024.65 402.62 1025.76 403.4 1026.65 404.41 C 1027.6 405.53 1028.3 406.84 1028.71 408.24 C 1029.2 409.94 1029.43 411.69 1029.4 413.45 C 1029.39 415.53 1029.13 417.6 1028.61 419.62 C 1028.12 421.58 1027.45 423.5 1026.63 425.34 C 1025.83 427.13 1024.95 428.88 1023.99 430.57 C 1023.09 432.15 1022.16 433.72 1021.2 435.27 C 1020.62 436.21 1020.05 437.16 1019.49 438.12 C 1019 438.94 1018.54 439.79 1018.11 440.65 C 1017.76 441.34 1017.46 442.06 1017.22 442.8 C 1017.04 443.32 1016.94 443.87 1016.93 444.43 C 1016.92 444.92 1016.66 445.36 1016.23 445.61 L 1003.76 452.81 C 1003.33 453.06 1002.79 453.06 1002.36 452.8 C 1001.93 452.55 1001.67 452.08 1001.67 451.58 C 1001.69 450.02 1001.91 448.47 1002.33 446.96 C 1002.77 445.42 1003.32 443.92 1004.01 442.47 C 1004.7 440.99 1005.46 439.54 1006.28 438.12 C 1007.09 436.72 1007.92 435.33 1008.78 433.95 C 1009.48 432.81 1010.17 431.66 1010.85 430.51 C 1011.47 429.46 1012.04 428.38 1012.58 427.29 C 1013.04 426.35 1013.43 425.37 1013.74 424.37 C 1013.99 423.56 1014.13 422.72 1014.14 421.88 L 1014.14 421.88 Z  M 1000.5 467.47 C 1000.52 466.09 1000.74 464.72 1001.15 463.41 C 1001.57 462.05 1002.15 460.73 1002.87 459.5 C 1003.58 458.25 1004.43 457.1 1005.41 456.05 C 1006.34 455.03 1007.41 454.16 1008.59 453.46 C 1009.22 453.09 1009.89 452.79 1010.59 452.57 C 1011.23 452.38 1011.89 452.27 1012.56 452.27 C 1013.34 452.26 1014.12 452.43 1014.83 452.75 C 1015.54 453.08 1016.16 453.57 1016.65 454.18 C 1017.15 454.82 1017.52 455.54 1017.74 456.32 C 1017.99 457.17 1018.11 458.06 1018.1 458.95 C 1018.09 460.32 1017.87 461.69 1017.45 463 C 1017.03 464.37 1016.45 465.68 1015.73 466.92 C 1015.02 468.16 1014.17 469.32 1013.2 470.37 C 1012.27 471.39 1011.19 472.26 1010.01 472.96 C 1009.38 473.33 1008.71 473.63 1008.01 473.84 C 1007.37 474.04 1006.71 474.14 1006.04 474.15 C 1005.26 474.16 1004.48 473.99 1003.77 473.66 C 1003.06 473.33 1002.44 472.84 1001.96 472.23 C 1001.46 471.6 1001.08 470.88 1000.86 470.1 C 1000.61 469.24 1000.49 468.36 1000.5 467.47 L 1000.5 467.47 Z " fill-rule="evenodd" fill="rgb(255,255,255)"/></g></g></g></svg>