<?xml version="1.0" encoding="UTF-8" standalone="no"?><!-- Generator: Gravit.io --><svg xmlns="http://www.w3.org/2000/svg" xmlns:xlink="http://www.w3.org/1999/xlink" style="isolation:isolate" viewBox="140.19238 75.0014 259.80762 599.99768" width="259.80762pt" height="599.99768pt"><g><path d=" M 400 75.001 L 140.192 225.001 L 140.192 524.999 L 400 674.999 L 400 75.001 Z " fill="rgb(0,82,255)"/><g><g><path d=" M 148.853 255.001 C 148.853 246.722 154.673 243.362 161.843 247.501 C 169.013 251.64 174.833 261.722 174.833 270.001 C 174.833 278.279 169.013 281.64 161.843 277.501 C 154.673 273.361 148.853 263.279 148.853 255.001 L 148.853 255.001 L 148.853 255.001 Z  M 365.359 380.001 C 365.359 371.722 371.18 368.362 378.349 372.501 C 385.519 376.64 391.34 386.722 391.34 395.001 C 391.34 403.279 385.519 406.64 378.349 402.501 C 371.18 398.361 365.359 388.279 365.359 380.001 L 365.359 380.001 L 365.359 380.001 Z  M 365.359 629.999 C 365.359 621.721 371.18 618.36 378.349 622.499 C 385.519 626.639 391.34 636.721 391.34 644.999 C 391.34 653.278 385.519 656.638 378.349 652.499 C 371.18 648.36 365.359 638.278 365.359 629.999 L 365.359 629.999 Z  M 148.853 504.999 C 148.853 496.721 154.673 493.36 161.843 497.499 C 169.013 501.639 174.833 511.721 174.833 519.999 C 174.833 528.278 169.013 531.638 161.843 527.499 C 154.673 523.36 148.853 513.278 148.853 504.999 Z " fill-rule="evenodd" fill="rgb(244,55,55)"/><path d=" M 150.25 254.98 C 150.23 253.79 150.39 252.6 150.72 251.46 C 150.97 250.57 151.39 249.75 151.95 249.02 C 152.42 248.43 153.03 247.95 153.71 247.62 C 154.44 247.29 155.23 247.12 156.03 247.12 C 156.84 247.13 157.64 247.26 158.4 247.5 C 159.36 247.79 160.27 248.2 161.13 248.7 C 162.89 249.74 164.49 251.04 165.87 252.55 C 167.39 254.17 168.71 255.97 169.82 257.9 C 170.94 259.82 171.83 261.86 172.48 263.99 C 173.09 265.94 173.42 267.97 173.44 270.02 C 173.45 271.21 173.29 272.4 172.97 273.55 C 172.72 274.43 172.3 275.25 171.74 275.98 C 171.26 276.58 170.66 277.06 169.97 277.38 C 169.24 277.72 168.45 277.88 167.65 277.88 C 166.85 277.87 166.05 277.74 165.28 277.5 C 164.33 277.21 163.41 276.8 162.55 276.3 C 160.79 275.26 159.2 273.96 157.81 272.46 C 156.3 270.83 154.97 269.03 153.87 267.11 C 152.75 265.18 151.86 263.14 151.21 261.01 C 150.59 259.06 150.27 257.03 150.25 254.98 L 150.25 254.98 L 150.25 254.98 L 150.25 254.98 Z  M 366.75 379.98 C 366.74 378.79 366.9 377.6 367.23 376.46 C 367.48 375.57 367.89 374.75 368.46 374.02 C 368.93 373.43 369.53 372.95 370.22 372.62 C 370.95 372.29 371.74 372.12 372.54 372.12 C 373.34 372.13 374.14 372.26 374.91 372.5 C 375.86 372.79 376.78 373.2 377.64 373.7 C 379.4 374.74 381 376.04 382.38 377.55 C 383.9 379.17 385.22 380.97 386.32 382.9 C 387.44 384.82 388.33 386.86 388.98 388.99 C 389.6 390.94 389.92 392.97 389.94 395.02 C 389.96 396.21 389.8 397.4 389.47 398.55 C 389.22 399.43 388.81 400.25 388.24 400.98 C 387.77 401.58 387.17 402.06 386.48 402.38 C 385.75 402.72 384.96 402.88 384.16 402.88 C 383.36 402.87 382.56 402.74 381.79 402.5 C 380.84 402.21 379.92 401.8 379.06 401.3 C 377.3 400.26 375.7 398.96 374.32 397.46 C 372.8 395.83 371.48 394.03 370.37 392.11 C 369.26 390.18 368.36 388.14 367.71 386.01 C 367.1 384.06 366.78 382.03 366.75 379.98 L 366.75 379.98 L 366.75 379.98 L 366.75 379.98 Z  M 366.75 629.98 C 366.74 628.79 366.9 627.6 367.23 626.46 C 367.48 625.57 367.89 624.75 368.46 624.02 C 368.93 623.42 369.53 622.94 370.22 622.62 C 370.95 622.28 371.74 622.12 372.54 622.12 C 373.34 622.13 374.14 622.26 374.91 622.5 C 375.86 622.79 376.78 623.2 377.64 623.7 C 379.4 624.74 381 626.04 382.38 627.54 C 383.9 629.17 385.22 630.97 386.32 632.89 C 387.44 634.82 388.33 636.86 388.98 638.99 C 389.6 640.94 389.92 642.97 389.94 645.02 C 389.96 646.21 389.8 647.4 389.47 648.54 C 389.22 649.43 388.81 650.25 388.24 650.98 C 387.77 651.57 387.17 652.05 386.48 652.38 C 385.75 652.71 384.96 652.88 384.16 652.88 C 383.36 652.87 382.56 652.74 381.79 652.5 C 380.84 652.21 379.92 651.8 379.06 651.3 C 377.3 650.26 375.7 648.96 374.32 647.45 C 372.8 645.83 371.48 644.03 370.37 642.1 C 369.26 640.18 368.36 638.14 367.71 636.01 C 367.1 634.06 366.78 632.03 366.75 629.98 L 366.75 629.98 L 366.75 629.98 Z  M 147.46 255.02 C 147.44 253.55 147.63 252.1 148.03 250.69 C 148.38 249.46 148.97 248.31 149.75 247.3 C 150.5 246.36 151.45 245.6 152.53 245.09 C 153.64 244.58 154.84 244.32 156.06 244.33 C 157.14 244.34 158.2 244.51 159.23 244.83 C 160.39 245.19 161.51 245.68 162.55 246.3 C 164.55 247.48 166.36 248.94 167.92 250.65 C 169.58 252.43 171.03 254.39 172.24 256.5 C 173.46 258.6 174.43 260.84 175.15 263.16 C 175.84 265.37 176.2 267.67 176.23 269.98 C 176.25 271.45 176.05 272.9 175.65 274.31 C 175.3 275.54 174.72 276.69 173.93 277.7 C 173.19 278.64 172.24 279.4 171.15 279.91 C 170.05 280.42 168.84 280.68 167.63 280.67 C 166.55 280.66 165.48 280.49 164.45 280.17 C 163.29 279.81 162.18 279.32 161.13 278.7 C 159.14 277.52 157.33 276.06 155.76 274.35 C 154.11 272.57 152.66 270.61 151.45 268.5 C 150.23 266.4 149.25 264.16 148.54 261.84 C 147.85 259.63 147.48 257.33 147.46 255.02 L 147.46 255.02 L 147.46 255.02 L 147.46 255.02 Z  M 363.96 380.02 C 363.95 378.55 364.14 377.1 364.54 375.69 C 364.89 374.46 365.47 373.31 366.26 372.3 C 367 371.36 367.95 370.6 369.04 370.09 C 370.15 369.58 371.35 369.32 372.57 369.33 C 373.64 369.34 374.71 369.51 375.74 369.83 C 376.9 370.19 378.01 370.68 379.06 371.3 C 381.05 372.48 382.86 373.94 384.43 375.65 C 386.09 377.43 387.53 379.39 388.74 381.5 C 389.96 383.6 390.94 385.84 391.65 388.16 C 392.35 390.37 392.71 392.67 392.74 394.98 C 392.75 396.45 392.56 397.9 392.16 399.31 C 391.81 400.54 391.23 401.69 390.44 402.7 C 389.7 403.64 388.74 404.4 387.66 404.91 C 386.55 405.42 385.35 405.68 384.13 405.67 C 383.06 405.66 381.99 405.49 380.96 405.17 C 379.8 404.81 378.69 404.32 377.64 403.7 C 375.65 402.52 373.84 401.06 372.27 399.35 C 370.61 397.57 369.17 395.61 367.96 393.5 C 366.74 391.4 365.76 389.16 365.05 386.84 C 364.35 384.63 363.99 382.33 363.96 380.02 L 363.96 380.02 L 363.96 380.02 L 363.96 380.02 Z  M 363.96 630.02 C 363.95 628.55 364.14 627.1 364.54 625.69 C 364.89 624.46 365.47 623.31 366.26 622.3 C 367 621.36 367.95 620.6 369.04 620.09 C 370.15 619.58 371.35 619.32 372.57 619.33 C 373.64 619.34 374.71 619.51 375.74 619.83 C 376.9 620.19 378.01 620.68 379.06 621.3 C 381.05 622.48 382.86 623.94 384.43 625.65 C 386.09 627.43 387.53 629.39 388.74 631.5 C 389.96 633.6 390.94 635.84 391.65 638.16 C 392.35 640.37 392.71 642.67 392.74 644.98 C 392.75 646.45 392.56 647.9 392.16 649.31 C 391.81 650.54 391.23 651.69 390.44 652.7 C 389.7 653.64 388.74 654.4 387.66 654.91 C 386.55 655.42 385.35 655.68 384.13 655.67 C 383.06 655.66 381.99 655.49 380.96 655.17 C 379.8 654.81 378.69 654.32 377.64 653.7 C 375.65 652.52 373.84 651.06 372.27 649.35 C 370.61 647.57 369.17 645.61 367.96 643.5 C 366.74 641.4 365.76 639.16 365.05 636.84 C 364.35 634.63 363.99 632.33 363.96 630.02 L 363.96 630.02 L 363.96 630.02 Z  M 150.25 504.98 C 150.23 503.79 150.39 502.6 150.72 501.46 C 150.97 500.57 151.39 499.75 151.95 499.02 C 152.42 498.42 153.03 497.94 153.71 497.62 C 154.44 497.28 155.23 497.12 156.03 497.12 C 156.84 497.13 157.64 497.26 158.4 497.5 C 159.36 497.79 160.27 498.2 161.13 498.7 C 162.89 499.74 164.49 501.04 165.87 502.54 C 167.39 504.17 168.71 505.97 169.82 507.89 C 170.94 509.82 171.83 511.86 172.48 513.99 C 173.09 515.94 173.42 517.97 173.44 520.02 C 173.45 521.21 173.29 522.4 172.97 523.54 C 172.72 524.43 172.3 525.25 171.74 525.98 C 171.26 526.57 170.66 527.05 169.97 527.38 C 169.24 527.71 168.45 527.88 167.65 527.88 C 166.85 527.87 166.05 527.74 165.28 527.5 C 164.33 527.21 163.41 526.8 162.55 526.3 C 160.79 525.26 159.2 523.96 157.81 522.45 C 156.3 520.83 154.97 519.03 153.87 517.1 C 152.75 515.18 151.86 513.14 151.21 511.01 C 150.59 509.06 150.27 507.03 150.25 504.98 L 150.25 504.98 Z  M 147.46 505.02 C 147.44 503.55 147.63 502.1 148.03 500.69 C 148.38 499.46 148.97 498.31 149.75 497.3 C 150.5 496.36 151.45 495.6 152.53 495.09 C 153.64 494.58 154.84 494.32 156.06 494.33 C 157.14 494.34 158.2 494.51 159.23 494.83 C 160.39 495.19 161.51 495.68 162.55 496.3 C 164.55 497.48 166.36 498.94 167.92 500.65 C 169.58 502.43 171.03 504.39 172.24 506.5 C 173.46 508.6 174.43 510.84 175.15 513.16 C 175.84 515.37 176.2 517.67 176.23 519.98 C 176.25 521.45 176.05 522.9 175.65 524.31 C 175.3 525.54 174.72 526.69 173.93 527.7 C 173.19 528.64 172.24 529.4 171.15 529.91 C 170.05 530.42 168.84 530.68 167.63 530.67 C 166.55 530.66 165.48 530.49 164.45 530.17 C 163.29 529.81 162.18 529.32 161.13 528.7 C 159.14 527.52 157.33 526.06 155.76 524.35 C 154.11 522.57 152.66 520.61 151.45 518.5 C 150.23 516.4 149.25 514.16 148.54 511.84 C 147.85 509.63 147.48 507.33 147.46 505.02 L 147.46 505.02 Z " fill-rule="evenodd" fill="rgb(255,255,255)"/></g><g><path d=" M 356.699 624.305 L 356.699 625.693 C 356.699 630.829 353.088 632.914 348.639 630.346 L 191.553 539.652 C 187.105 537.084 183.494 530.829 183.494 525.693 L 183.494 524.305 C 183.494 519.169 187.105 517.084 191.553 519.652 L 348.639 610.346 C 353.088 612.914 356.699 619.169 356.699 624.305 L 356.699 624.305 L 356.699 624.305 Z  M 161.242 287.154 L 162.444 287.848 C 166.892 290.416 170.503 296.671 170.503 301.807 L 170.503 483.193 C 170.503 488.329 166.892 490.414 162.444 487.846 L 161.242 487.152 C 156.794 484.584 153.183 478.329 153.183 473.193 L 153.183 291.807 C 153.183 286.671 156.794 284.586 161.242 287.154 L 161.242 287.154 L 161.242 287.154 Z  M 377.748 412.154 L 378.95 412.848 C 383.398 415.416 387.01 421.671 387.01 426.807 L 387.01 608.193 C 387.01 613.329 383.398 615.414 378.95 612.846 L 377.748 612.152 C 373.3 609.584 369.689 603.329 369.689 598.193 L 369.689 416.807 C 369.689 411.671 373.3 409.586 377.748 412.154 L 377.748 412.154 Z  M 183.494 275.695 L 183.494 274.307 C 183.494 269.171 187.105 267.086 191.553 269.654 L 348.639 360.348 C 353.088 362.916 356.699 369.171 356.699 374.307 L 356.699 375.695 C 356.699 380.831 353.088 382.916 348.639 380.348 L 191.553 289.654 C 187.105 287.086 183.494 280.831 183.494 275.695 Z " fill-rule="evenodd" fill="rgb(244,55,55)"/><path d=" M 184.89 525.69 L 184.89 524.31 C 184.89 524.3 184.89 524.29 184.89 524.29 C 184.88 523.6 184.98 522.91 185.17 522.25 C 185.3 521.77 185.53 521.32 185.83 520.92 C 186.08 520.62 186.39 520.37 186.74 520.2 C 187.12 520.03 187.53 519.94 187.95 519.95 C 188.39 519.95 188.84 520.02 189.27 520.16 C 189.82 520.33 190.35 520.56 190.85 520.86 C 190.85 520.86 190.86 520.86 190.86 520.86 L 347.94 611.55 C 348.98 612.17 349.93 612.94 350.75 613.84 C 351.67 614.82 352.47 615.9 353.13 617.06 C 353.81 618.22 354.34 619.45 354.74 620.73 C 355.1 621.89 355.29 623.1 355.31 624.31 L 355.31 625.69 C 355.31 625.7 355.31 625.7 355.31 625.71 C 355.31 626.4 355.22 627.09 355.03 627.75 C 354.9 628.23 354.67 628.68 354.36 629.07 C 354.12 629.38 353.81 629.63 353.46 629.79 C 353.08 629.97 352.67 630.05 352.25 630.05 C 351.81 630.05 351.36 629.98 350.93 629.84 C 350.38 629.67 349.85 629.44 349.35 629.14 C 349.35 629.14 349.34 629.14 349.34 629.14 L 192.26 538.45 C 191.22 537.83 190.27 537.06 189.45 536.16 C 188.53 535.18 187.73 534.1 187.07 532.94 C 186.39 531.78 185.86 530.55 185.46 529.27 C 185.1 528.11 184.91 526.9 184.89 525.69 L 184.89 525.69 L 184.89 525.69 L 184.89 525.69 Z  M 160.55 288.36 L 161.75 289.06 C 166.3 291.68 169.11 296.55 169.11 301.81 L 169.11 483.19 C 169.11 483.2 169.11 483.2 169.11 483.21 C 169.12 483.9 169.03 484.59 168.84 485.25 C 168.7 485.73 168.47 486.18 168.17 486.57 C 167.93 486.88 167.62 487.13 167.27 487.29 C 166.89 487.47 166.47 487.55 166.06 487.55 C 165.61 487.55 165.17 487.48 164.74 487.34 C 164.19 487.17 163.65 486.94 163.15 486.64 C 163.15 486.64 163.15 486.64 163.15 486.64 L 161.95 485.95 C 160.9 485.33 159.96 484.56 159.13 483.66 C 158.22 482.68 157.42 481.6 156.76 480.44 C 156.08 479.28 155.54 478.05 155.15 476.77 C 154.79 475.61 154.6 474.4 154.58 473.19 L 154.58 291.81 C 154.58 291.8 154.58 291.8 154.58 291.79 C 154.57 291.1 154.67 290.41 154.85 289.75 C 154.99 289.27 155.22 288.82 155.52 288.43 C 155.77 288.12 156.07 287.87 156.43 287.71 C 156.81 287.53 157.22 287.45 157.64 287.45 C 158.08 287.45 158.53 287.52 158.95 287.66 C 159.51 287.83 160.04 288.06 160.54 288.36 C 160.54 288.36 160.54 288.36 160.55 288.36 L 160.55 288.36 L 160.55 288.36 L 160.55 288.36 Z  M 377.05 413.36 L 378.25 414.05 C 379.29 414.67 380.24 415.44 381.06 416.34 C 381.98 417.32 382.78 418.4 383.44 419.56 C 384.12 420.72 384.65 421.95 385.05 423.23 C 385.41 424.39 385.6 425.6 385.62 426.81 L 385.62 608.19 C 385.62 608.2 385.62 608.2 385.62 608.21 C 385.63 608.9 385.53 609.59 385.34 610.25 C 385.21 610.73 384.98 611.18 384.67 611.57 C 384.43 611.88 384.12 612.13 383.77 612.29 C 383.39 612.47 382.98 612.55 382.56 612.55 C 382.12 612.55 381.67 612.48 381.24 612.34 C 380.69 612.17 380.16 611.94 379.66 611.64 C 379.66 611.64 379.65 611.64 379.65 611.64 L 378.46 610.95 C 377.41 610.33 376.46 609.56 375.64 608.66 C 374.73 607.68 373.93 606.6 373.26 605.44 C 372.59 604.28 372.05 603.05 371.66 601.77 C 371.29 600.61 371.1 599.4 371.09 598.19 L 371.09 416.81 C 371.09 416.8 371.09 416.8 371.09 416.79 C 371.08 416.1 371.17 415.41 371.36 414.75 C 371.5 414.27 371.72 413.82 372.03 413.43 C 372.27 413.12 372.58 412.87 372.93 412.71 C 373.31 412.53 373.73 412.45 374.14 412.45 C 374.59 412.45 375.03 412.52 375.46 412.66 C 376.01 412.83 376.54 413.06 377.04 413.36 C 377.05 413.36 377.05 413.36 377.05 413.36 L 377.05 413.36 L 377.05 413.36 Z  M 358.1 624.31 L 358.1 625.68 C 358.11 626.64 357.98 627.59 357.72 628.51 C 357.48 629.34 357.09 630.12 356.56 630.8 C 356.05 631.45 355.39 631.97 354.64 632.32 C 353.89 632.67 353.06 632.85 352.23 632.84 C 351.51 632.83 350.79 632.72 350.1 632.51 C 349.35 632.27 348.62 631.95 347.94 631.55 L 190.86 540.86 C 190.85 540.86 190.85 540.86 190.85 540.85 C 189.56 540.1 188.4 539.15 187.4 538.06 C 186.34 536.93 185.42 535.68 184.65 534.33 C 183.87 533 183.25 531.57 182.8 530.09 C 182.35 528.67 182.12 527.2 182.1 525.71 C 182.1 525.7 182.1 525.7 182.1 525.69 L 182.1 524.31 C 182.09 523.36 182.22 522.41 182.48 521.49 C 182.71 520.66 183.11 519.88 183.64 519.2 C 184.15 518.55 184.81 518.03 185.56 517.67 C 186.31 517.33 187.14 517.15 187.97 517.16 C 188.69 517.16 189.41 517.28 190.09 517.49 C 190.85 517.72 191.58 518.05 192.26 518.45 L 349.34 609.14 C 349.35 609.14 349.35 609.14 349.35 609.14 C 350.63 609.9 351.8 610.84 352.8 611.94 C 353.86 613.07 354.78 614.32 355.55 615.66 C 356.33 617 356.95 618.43 357.4 619.91 C 357.85 621.32 358.08 622.8 358.1 624.29 C 358.1 624.3 358.1 624.3 358.1 624.31 L 358.1 624.31 L 358.1 624.31 L 358.1 624.31 Z  M 161.95 285.95 L 163.15 286.64 C 168.56 289.76 171.9 295.56 171.9 301.81 L 171.9 483.19 C 171.91 484.14 171.79 485.09 171.52 486.01 C 171.29 486.84 170.9 487.62 170.37 488.3 C 169.85 488.95 169.2 489.47 168.45 489.82 C 167.69 490.17 166.86 490.35 166.03 490.34 C 165.31 490.33 164.6 490.22 163.91 490.01 C 163.15 489.77 162.43 489.45 161.74 489.05 L 160.55 488.36 C 160.54 488.36 160.54 488.36 160.53 488.35 C 159.25 487.6 158.09 486.65 157.08 485.56 C 156.03 484.43 155.11 483.18 154.34 481.83 C 153.56 480.5 152.94 479.07 152.49 477.59 C 152.04 476.17 151.81 474.7 151.79 473.21 C 151.79 473.2 151.79 473.2 151.79 473.19 L 151.79 291.81 C 151.78 290.86 151.91 289.91 152.17 288.99 C 152.4 288.16 152.8 287.38 153.33 286.7 C 153.84 286.05 154.5 285.53 155.25 285.18 C 156 284.83 156.83 284.65 157.66 284.66 C 158.38 284.67 159.1 284.78 159.78 284.99 C 160.54 285.23 161.27 285.55 161.95 285.95 L 161.95 285.95 L 161.95 285.95 L 161.95 285.95 Z  M 378.45 410.95 L 379.65 411.64 C 379.66 411.64 379.66 411.64 379.66 411.65 C 380.95 412.4 382.11 413.35 383.11 414.44 C 384.17 415.57 385.09 416.82 385.86 418.17 C 386.64 419.5 387.26 420.93 387.71 422.41 C 388.16 423.83 388.39 425.3 388.41 426.79 C 388.41 426.8 388.41 426.8 388.41 426.81 L 388.41 608.19 C 388.42 609.14 388.29 610.09 388.03 611.01 C 387.79 611.84 387.4 612.62 386.87 613.3 C 386.36 613.95 385.7 614.47 384.95 614.82 C 384.2 615.17 383.37 615.35 382.54 615.34 C 381.82 615.33 381.1 615.22 380.42 615.01 C 379.66 614.77 378.93 614.45 378.25 614.05 L 377.05 613.36 C 377.05 613.36 377.05 613.36 377.04 613.35 C 375.76 612.6 374.6 611.65 373.59 610.56 C 372.54 609.43 371.61 608.18 370.85 606.83 C 370.07 605.5 369.45 604.07 368.99 602.59 C 368.55 601.17 368.31 599.7 368.3 598.21 C 368.3 598.2 368.3 598.2 368.3 598.19 L 368.3 416.81 C 368.29 415.86 368.41 414.91 368.68 413.99 C 368.91 413.16 369.3 412.38 369.83 411.7 C 370.35 411.05 371 410.53 371.75 410.18 C 372.51 409.83 373.33 409.65 374.17 409.66 C 374.89 409.67 375.6 409.78 376.29 409.99 C 377.05 410.23 377.77 410.55 378.45 410.95 L 378.45 410.95 L 378.45 410.95 Z  M 184.89 275.69 L 184.89 274.31 C 184.89 274.3 184.89 274.3 184.89 274.29 C 184.88 273.6 184.98 272.91 185.17 272.25 C 185.3 271.77 185.53 271.32 185.83 270.93 C 186.08 270.62 186.39 270.37 186.74 270.21 C 187.12 270.03 187.53 269.95 187.95 269.95 C 188.39 269.95 188.84 270.02 189.27 270.16 C 189.82 270.33 190.35 270.56 190.85 270.86 C 190.85 270.86 190.86 270.86 190.86 270.86 L 347.94 361.56 C 352.49 364.18 355.31 369.05 355.31 374.31 L 355.31 375.69 C 355.31 375.7 355.31 375.71 355.31 375.71 C 355.31 376.4 355.22 377.09 355.03 377.75 C 354.9 378.23 354.67 378.68 354.36 379.08 C 354.12 379.38 353.81 379.63 353.46 379.8 C 353.08 379.97 352.67 380.06 352.25 380.05 C 351.81 380.05 351.36 379.98 350.93 379.84 C 350.38 379.67 349.85 379.44 349.35 379.14 C 349.35 379.14 349.34 379.14 349.34 379.14 L 192.26 288.45 C 191.22 287.83 190.27 287.06 189.45 286.16 C 188.53 285.18 187.73 284.1 187.07 282.94 C 186.39 281.78 185.86 280.55 185.46 279.27 C 185.1 278.11 184.91 276.9 184.89 275.69 L 184.89 275.69 Z  M 182.1 275.69 L 182.1 274.32 C 182.09 273.36 182.22 272.41 182.48 271.49 C 182.71 270.66 183.11 269.88 183.64 269.2 C 184.15 268.55 184.81 268.03 185.56 267.68 C 186.31 267.33 187.14 267.15 187.97 267.16 C 188.69 267.17 189.41 267.28 190.09 267.49 C 190.85 267.73 191.58 268.05 192.26 268.45 L 349.34 359.14 C 354.75 362.26 358.1 368.06 358.1 374.31 L 358.1 375.69 C 358.11 376.64 357.98 377.59 357.72 378.51 C 357.48 379.34 357.09 380.12 356.56 380.8 C 356.05 381.45 355.39 381.97 354.64 382.33 C 353.89 382.67 353.06 382.85 352.23 382.84 C 351.51 382.84 350.79 382.72 350.1 382.51 C 349.35 382.28 348.62 381.95 347.94 381.55 L 190.86 290.86 C 190.85 290.86 190.85 290.86 190.85 290.86 C 189.56 290.1 188.4 289.16 187.4 288.06 C 186.34 286.93 185.42 285.68 184.65 284.34 C 183.87 283 183.25 281.57 182.8 280.09 C 182.35 278.68 182.12 277.2 182.1 275.71 C 182.1 275.7 182.1 275.7 182.1 275.69 L 182.1 275.69 Z " fill-rule="evenodd" fill="rgb(255,255,255)"/></g><g><path d=" M 203.724 393.18 L 217.909 401.37 L 226.795 369.33 L 235.68 411.63 L 249.866 419.82 L 264.909 365.506 L 251.814 357.945 L 242.383 396.6 L 231.861 346.426 L 221.729 340.576 L 211.206 378.6 L 201.775 329.055 L 188.681 321.496 L 203.724 393.18 L 203.724 393.18 L 203.724 393.18 Z  M 321.971 398.451 L 321.971 422.57 L 304.824 412.67 L 304.824 388.55 L 292.353 381.351 L 292.353 444.35 L 304.824 451.55 L 304.824 426.53 L 321.971 436.43 L 321.971 461.45 L 334.442 468.65 L 334.442 405.651 L 321.971 398.451 L 321.971 398.451 L 321.971 398.451 Z  M 226.795 493.72 C 217.91 488.59 210.895 477.07 210.895 465.82 C 210.895 454.57 217.91 451.15 226.795 456.28 C 235.68 461.41 242.695 472.93 242.695 484.18 C 242.695 495.43 235.68 498.85 226.795 493.72 L 226.795 493.72 L 226.795 493.72 Z  M 226.795 507.759 C 242.461 516.804 255.166 509.92 255.166 491.38 C 255.166 472.84 242.461 451.285 226.795 442.24 C 211.129 433.195 198.424 440.08 198.424 458.62 C 198.424 477.16 211.129 498.714 226.795 507.759 L 226.795 507.759 L 226.795 507.759 Z  M 307.162 530.4 L 319.633 537.6 C 319.633 531.39 332.104 534.45 332.104 521.04 C 332.104 509.34 323.218 497.91 314.333 492.78 C 305.681 487.785 298.121 488.64 294.691 495.93 L 305.447 509.25 C 307.006 505.92 309.578 504.075 313.865 506.55 C 317.84 508.845 319.633 511.95 319.633 515.1 C 319.633 523.02 307.162 519.87 307.162 530.4 L 307.162 530.4 Z  M 313.397 557.759 C 317.45 560.099 320.802 558.165 320.802 553.485 C 320.802 548.805 317.45 543 313.397 540.66 C 309.344 538.32 305.993 540.255 305.993 544.935 C 305.993 549.615 309.344 555.419 313.397 557.759 L 313.397 557.759 Z " fill-rule="evenodd" fill="rgb(244,55,55)"/><path d=" M 190.69 324.27 L 200.52 329.94 L 210.95 384.74 L 222.59 342.69 L 230.62 347.32 L 242.28 402.91 L 252.73 360.09 L 263.28 366.17 L 249 417.71 L 236.92 410.73 L 226.98 363.43 L 217.05 399.26 L 204.96 392.28 L 190.69 324.27 L 190.69 324.27 L 190.69 324.27 L 190.69 324.27 Z  M 333.05 406.46 L 333.05 466.23 L 323.37 460.64 L 323.37 435.62 L 303.43 424.11 L 303.43 449.13 L 293.75 443.54 L 293.75 383.77 L 303.43 389.36 L 303.43 413.48 L 323.37 424.99 L 323.37 400.87 L 333.05 406.46 L 333.05 406.46 L 333.05 406.46 L 333.05 406.46 Z  M 227.5 492.52 C 225.32 491.23 223.32 489.65 221.57 487.82 C 219.7 485.87 218.07 483.7 216.72 481.36 C 215.33 478.99 214.24 476.45 213.47 473.81 C 212.7 471.21 212.3 468.52 212.29 465.81 C 212.27 464.19 212.46 462.57 212.86 461 C 213.15 459.84 213.66 458.74 214.36 457.77 C 214.92 457 215.66 456.38 216.51 455.96 C 217.39 455.55 218.36 455.34 219.34 455.35 C 220.4 455.36 221.45 455.53 222.46 455.86 C 223.73 456.26 224.94 456.81 226.09 457.48 C 228.27 458.77 230.27 460.35 232.02 462.19 C 233.89 464.13 235.52 466.3 236.87 468.64 C 238.26 471.01 239.35 473.55 240.12 476.19 C 240.89 478.79 241.29 481.48 241.3 484.19 C 241.32 485.81 241.13 487.43 240.73 489 C 240.44 490.16 239.93 491.26 239.23 492.23 C 238.67 492.99 237.93 493.61 237.08 494.04 C 236.2 494.45 235.23 494.66 234.25 494.65 C 233.19 494.64 232.14 494.47 231.13 494.14 C 229.86 493.73 228.65 493.19 227.5 492.52 L 227.5 492.52 L 227.5 492.52 Z  M 186.67 318.72 L 203.03 328.17 L 211.46 372.46 L 220.86 338.46 L 233.1 345.53 L 242.49 390.29 L 250.9 355.81 L 266.54 364.84 L 250.73 421.93 L 234.44 412.53 L 226.61 375.23 L 218.77 403.48 L 202.49 394.08 L 186.67 318.72 L 186.67 318.72 L 186.67 318.72 L 186.67 318.72 Z  M 335.84 404.84 L 335.84 471.07 L 320.58 462.26 L 320.58 437.24 L 306.22 428.95 L 306.22 453.97 L 290.96 445.16 L 290.96 378.93 L 306.22 387.74 L 306.22 411.86 L 320.58 420.15 L 320.58 396.03 L 335.84 404.84 L 335.84 404.84 L 335.84 404.84 L 335.84 404.84 Z  M 226.09 494.92 C 223.68 493.51 221.48 491.76 219.55 489.74 C 217.53 487.64 215.77 485.29 214.31 482.77 C 212.81 480.2 211.63 477.45 210.79 474.6 C 209.95 471.75 209.51 468.8 209.5 465.83 C 209.47 463.97 209.69 462.12 210.15 460.32 C 210.53 458.81 211.19 457.39 212.1 456.13 C 212.93 454.99 214.03 454.07 215.29 453.45 C 216.57 452.84 217.96 452.54 219.37 452.56 C 220.71 452.57 222.04 452.79 223.32 453.2 C 224.78 453.67 226.18 454.3 227.5 455.08 C 229.91 456.49 232.11 458.23 234.04 460.26 C 236.06 462.36 237.82 464.71 239.28 467.23 C 240.78 469.8 241.96 472.55 242.8 475.4 C 243.64 478.25 244.08 481.2 244.09 484.17 C 244.12 486.03 243.9 487.88 243.44 489.68 C 243.06 491.19 242.4 492.61 241.49 493.87 C 240.66 495.01 239.56 495.93 238.3 496.55 C 237.02 497.16 235.63 497.46 234.22 497.44 C 232.88 497.43 231.55 497.21 230.27 496.8 C 228.81 496.33 227.41 495.7 226.09 494.92 L 226.09 494.92 L 226.09 494.92 Z  M 199.82 458.62 C 199.82 457.13 199.91 455.65 200.1 454.17 C 200.26 452.87 200.53 451.58 200.89 450.32 C 201.22 449.2 201.64 448.11 202.15 447.07 C 202.62 446.13 203.18 445.24 203.82 444.42 C 205 442.92 206.5 441.71 208.22 440.89 C 210 440.07 211.95 439.66 213.91 439.68 C 215.86 439.7 217.8 440.01 219.66 440.59 C 221.9 441.29 224.06 442.25 226.09 443.44 C 228.03 444.57 229.89 445.85 231.63 447.27 C 233.47 448.76 235.2 450.37 236.82 452.08 C 240.21 455.68 243.18 459.67 245.65 463.95 C 248.16 468.24 250.15 472.81 251.6 477.56 C 252.29 479.85 252.83 482.18 253.21 484.54 C 253.58 486.8 253.76 489.09 253.77 491.38 C 253.77 492.87 253.68 494.35 253.49 495.83 C 253.33 497.13 253.06 498.42 252.7 499.68 C 252.37 500.8 251.95 501.89 251.44 502.93 C 250.97 503.87 250.41 504.76 249.76 505.58 C 248.59 507.08 247.09 508.29 245.37 509.11 C 243.59 509.93 241.64 510.34 239.67 510.32 C 237.73 510.3 235.79 509.99 233.93 509.41 C 231.69 508.71 229.53 507.75 227.5 506.55 C 225.56 505.42 223.7 504.15 221.96 502.73 C 220.12 501.24 218.39 499.63 216.77 497.92 C 213.38 494.31 210.41 490.33 207.94 486.05 C 205.43 481.76 203.44 477.19 201.99 472.44 C 201.3 470.15 200.76 467.82 200.38 465.46 C 200.01 463.2 199.83 460.91 199.82 458.62 L 199.82 458.62 L 199.82 458.62 Z  M 197.03 458.62 C 197.02 457.02 197.12 455.41 197.33 453.82 C 197.51 452.37 197.81 450.95 198.21 449.55 C 198.58 448.27 199.06 447.02 199.65 445.83 C 200.2 444.72 200.86 443.67 201.63 442.69 C 203.07 440.85 204.92 439.37 207.03 438.36 C 209.2 437.37 211.56 436.86 213.94 436.89 C 216.16 436.91 218.37 437.26 220.49 437.93 C 222.94 438.69 225.29 439.74 227.5 441.03 C 229.57 442.24 231.54 443.6 233.39 445.1 C 235.32 446.67 237.15 448.36 238.85 450.17 C 242.39 453.92 245.48 458.08 248.06 462.55 C 250.68 467.02 252.76 471.79 254.27 476.75 C 255 479.15 255.57 481.61 255.97 484.09 C 256.36 486.5 256.56 488.94 256.56 491.38 C 256.57 492.98 256.47 494.59 256.26 496.18 C 256.08 497.62 255.78 499.05 255.38 500.45 C 255.01 501.73 254.53 502.98 253.94 504.17 C 253.39 505.28 252.73 506.33 251.96 507.31 C 250.52 509.15 248.67 510.63 246.56 511.64 C 244.39 512.63 242.03 513.14 239.65 513.11 C 237.42 513.09 235.22 512.74 233.1 512.07 C 230.65 511.31 228.3 510.26 226.09 508.96 C 224.02 507.76 222.05 506.4 220.2 504.9 C 218.27 503.33 216.44 501.64 214.74 499.83 C 211.2 496.07 208.11 491.92 205.53 487.45 C 202.91 482.98 200.83 478.21 199.32 473.25 C 198.59 470.84 198.02 468.39 197.62 465.91 C 197.23 463.5 197.03 461.06 197.03 458.62 L 197.03 458.62 L 197.03 458.62 Z  M 305.26 506.79 L 296.34 495.76 C 296.68 495.15 297.07 494.58 297.51 494.05 C 298.06 493.39 298.7 492.82 299.42 492.36 C 300.11 491.92 300.86 491.58 301.66 491.36 C 302.5 491.13 303.38 491.02 304.26 491.02 C 305.75 491.04 307.23 491.28 308.65 491.75 C 310.38 492.31 312.05 493.06 313.63 493.98 C 315.89 495.31 318 496.9 319.89 498.72 C 321.96 500.68 323.81 502.86 325.39 505.23 C 327.01 507.6 328.31 510.17 329.26 512.88 C 330.2 515.5 330.69 518.27 330.71 521.06 C 330.74 522.59 330.51 524.12 330.03 525.57 C 329.68 526.61 329.13 527.56 328.41 528.38 C 327.75 529.11 326.99 529.74 326.15 530.25 C 325.3 530.76 324.42 531.22 323.52 531.64 C 322.91 531.93 322.31 532.24 321.72 532.56 C 321.13 532.88 320.57 533.25 320.06 533.69 C 319.51 534.15 319.06 534.71 318.74 535.35 C 318.72 535.38 318.71 535.41 318.7 535.45 L 308.58 529.61 C 308.64 528.83 308.8 528.07 309.07 527.35 C 309.37 526.62 309.8 525.96 310.35 525.39 C 310.93 524.83 311.57 524.34 312.27 523.94 C 313.05 523.5 313.84 523.09 314.65 522.72 C 315.38 522.38 316.11 522.01 316.82 521.62 C 317.55 521.22 318.24 520.73 318.86 520.17 C 319.53 519.57 320.07 518.84 320.44 518.02 C 320.84 517.09 321.04 516.09 321.03 515.08 C 321.01 513.18 320.45 511.33 319.41 509.74 C 318.83 508.87 318.15 508.07 317.38 507.37 C 316.52 506.6 315.57 505.92 314.57 505.34 C 313.87 504.93 313.13 504.6 312.36 504.35 C 311.68 504.13 310.97 504.02 310.26 504.01 C 308.87 504.02 307.54 504.52 306.5 505.43 C 306.03 505.83 305.62 506.29 305.26 506.79 L 305.26 506.79 Z  M 307.39 544.92 C 307.38 544.3 307.46 543.69 307.64 543.1 C 307.76 542.67 307.96 542.27 308.24 541.92 C 308.45 541.65 308.73 541.44 309.04 541.29 C 309.38 541.13 309.74 541.06 310.11 541.06 C 310.51 541.06 310.9 541.13 311.28 541.24 C 311.77 541.39 312.25 541.6 312.69 541.86 C 313.64 542.42 314.49 543.12 315.24 543.94 C 316.07 544.84 316.8 545.83 317.41 546.89 C 318.03 547.95 318.52 549.08 318.88 550.25 C 319.22 551.3 319.39 552.4 319.41 553.5 C 319.41 554.12 319.33 554.73 319.16 555.32 C 319.03 555.75 318.83 556.15 318.56 556.5 C 318.34 556.77 318.07 556.98 317.76 557.13 C 317.42 557.28 317.05 557.36 316.68 557.36 C 316.28 557.35 315.89 557.29 315.51 557.18 C 315.02 557.03 314.55 556.82 314.11 556.56 C 313.16 556 312.3 555.3 311.56 554.48 C 310.72 553.58 309.99 552.59 309.38 551.53 C 308.77 550.47 308.27 549.34 307.91 548.17 C 307.58 547.12 307.4 546.02 307.39 544.92 L 307.39 544.92 Z  M 318.24 515.12 C 318.23 513.75 317.83 512.41 317.07 511.27 C 316.63 510.6 316.11 509.99 315.51 509.45 C 314.79 508.8 314 508.23 313.16 507.76 C 312.64 507.45 312.09 507.2 311.51 507.01 C 311.1 506.88 310.68 506.81 310.25 506.8 C 309.55 506.81 308.87 507.07 308.33 507.53 C 308.01 507.81 307.72 508.13 307.48 508.49 C 307.19 508.91 306.93 509.36 306.72 509.83 C 306.51 510.27 306.1 510.58 305.62 510.63 C 305.14 510.69 304.66 510.5 304.36 510.13 L 293.61 496.81 C 293.27 496.39 293.2 495.83 293.42 495.34 C 293.94 494.24 294.59 493.2 295.37 492.26 C 296.09 491.39 296.95 490.63 297.9 490.01 C 298.83 489.42 299.85 488.96 300.92 488.67 C 302.02 488.37 303.15 488.22 304.29 488.23 C 306.06 488.25 307.82 488.54 309.51 489.09 C 311.44 489.71 313.29 490.55 315.04 491.58 C 317.49 493.01 319.77 494.73 321.82 496.7 C 324.03 498.8 326.01 501.14 327.71 503.66 C 329.45 506.23 330.86 509.02 331.89 511.94 C 332.93 514.86 333.47 517.93 333.5 521.02 C 333.53 522.87 333.26 524.7 332.68 526.46 C 332.21 527.85 331.46 529.14 330.49 530.24 C 329.64 531.18 328.67 531.98 327.59 532.64 C 326.66 533.2 325.69 533.71 324.71 534.17 C 324.15 534.44 323.59 534.72 323.05 535.01 C 322.63 535.24 322.23 535.51 321.86 535.82 C 321.61 536.04 321.4 536.3 321.24 536.59 C 321.1 536.9 321.02 537.24 321.03 537.58 C 321.04 538.08 320.77 538.55 320.34 538.8 C 319.91 539.06 319.37 539.06 318.93 538.81 L 306.46 531.61 C 306.04 531.36 305.78 530.91 305.77 530.42 C 305.74 529.03 305.98 527.65 306.47 526.34 C 306.9 525.25 307.55 524.26 308.38 523.42 C 309.13 522.68 309.97 522.04 310.89 521.52 C 311.73 521.04 312.59 520.59 313.47 520.18 C 314.15 519.87 314.82 519.53 315.48 519.17 C 316.02 518.87 316.53 518.51 316.99 518.1 C 317.37 517.76 317.68 517.34 317.89 516.88 C 318.13 516.32 318.25 515.72 318.24 515.12 L 318.24 515.12 Z  M 304.6 544.95 C 304.59 544.06 304.71 543.17 304.96 542.32 C 305.18 541.54 305.55 540.82 306.05 540.18 C 306.54 539.57 307.16 539.08 307.87 538.75 C 308.58 538.43 309.36 538.26 310.14 538.27 C 310.81 538.28 311.47 538.38 312.11 538.58 C 312.81 538.79 313.48 539.09 314.11 539.46 C 315.29 540.16 316.36 541.03 317.29 542.05 C 318.27 543.1 319.12 544.25 319.83 545.5 C 320.55 546.73 321.12 548.05 321.55 549.42 C 321.96 550.73 322.18 552.09 322.2 553.47 C 322.21 554.36 322.09 555.25 321.84 556.1 C 321.62 556.88 321.24 557.6 320.74 558.24 C 320.26 558.85 319.63 559.33 318.93 559.67 C 318.22 559.99 317.44 560.16 316.65 560.15 C 315.99 560.14 315.33 560.04 314.69 559.84 C 313.99 559.63 313.32 559.33 312.69 558.96 C 311.5 558.26 310.43 557.39 309.5 556.37 C 308.53 555.32 307.68 554.16 306.97 552.92 C 306.25 551.68 305.67 550.37 305.25 549 C 304.83 547.69 304.61 546.33 304.6 544.95 L 304.6 544.95 Z " fill-rule="evenodd" fill="rgb(255,255,255)"/></g></g><g><g><path d=" M 170.503 232.501 C 163.334 228.362 163.334 221.641 170.503 217.501 C 177.673 213.362 189.314 213.362 196.484 217.501 C 203.653 221.641 203.653 228.362 196.484 232.501 C 189.314 236.641 177.673 236.641 170.503 232.501 Z " fill="rgb(244,55,55)"/><path d=" M 169.82 233.72 C 168.9 233.19 168.04 232.58 167.24 231.89 C 166.52 231.28 165.89 230.58 165.34 229.81 C 164.32 228.41 163.76 226.73 163.73 225 C 163.76 223.27 164.32 221.59 165.34 220.19 C 165.89 219.42 166.52 218.72 167.24 218.11 C 168.04 217.42 168.9 216.81 169.82 216.29 C 171.83 215.15 174.01 214.32 176.27 213.81 C 178.64 213.27 181.06 212.99 183.49 213 C 185.92 212.99 188.35 213.27 190.72 213.81 C 192.98 214.32 195.15 215.15 197.17 216.29 C 198.09 216.81 198.95 217.42 199.75 218.11 C 200.46 218.72 201.1 219.42 201.65 220.19 C 202.67 221.59 203.23 223.27 203.26 225 C 203.23 226.73 202.67 228.41 201.65 229.81 C 201.1 230.58 200.46 231.28 199.75 231.89 C 198.95 232.58 198.09 233.19 197.17 233.72 C 195.15 234.85 192.98 235.69 190.72 236.19 C 188.35 236.74 185.92 237.01 183.49 237 C 181.06 237.01 178.64 236.74 176.27 236.19 C 174.01 235.69 171.83 234.85 169.82 233.72 Z  M 171.19 231.29 C 170.43 230.86 169.72 230.35 169.06 229.78 C 168.51 229.31 168.02 228.77 167.6 228.18 C 166.93 227.25 166.55 226.15 166.52 225 C 166.55 223.86 166.93 222.75 167.6 221.83 C 168.02 221.23 168.51 220.7 169.06 220.22 C 169.72 219.65 170.43 219.15 171.19 218.72 C 172.97 217.71 174.89 216.98 176.89 216.53 C 179.05 216.03 181.27 215.79 183.49 215.79 C 185.72 215.79 187.93 216.03 190.1 216.53 C 192.1 216.98 194.01 217.71 195.8 218.72 C 196.55 219.15 197.27 219.65 197.92 220.22 C 198.47 220.7 198.96 221.23 199.38 221.83 C 200.06 222.75 200.44 223.86 200.46 225 C 200.44 226.15 200.06 227.25 199.38 228.18 C 198.96 228.77 198.47 229.31 197.92 229.78 C 197.27 230.35 196.55 230.86 195.8 231.29 C 194.01 232.29 192.09 233.02 190.1 233.47 C 187.93 233.97 185.72 234.22 183.49 234.21 C 181.27 234.22 179.05 233.97 176.89 233.47 C 174.89 233.02 172.97 232.29 171.19 231.29 Z " fill-rule="evenodd" fill="rgb(255,255,255)"/></g><g><path d=" M 377.748 112.154 L 378.95 112.848 C 383.398 115.416 383.398 119.586 378.95 122.154 L 221.864 212.848 C 217.416 215.416 210.193 215.416 205.745 212.848 L 204.543 212.154 C 200.095 209.586 200.095 205.416 204.543 202.848 L 361.63 112.154 C 366.078 109.586 373.3 109.586 377.748 112.154 Z  M 378.949 337.154 L 377.747 337.848 C 373.299 340.416 366.077 340.416 361.629 337.848 L 204.543 247.154 C 200.095 244.586 200.095 240.416 204.543 237.848 L 205.745 237.154 C 210.193 234.586 217.415 234.586 221.864 237.154 L 378.949 327.848 C 383.397 330.416 383.397 334.586 378.949 337.154 Z " fill-rule="evenodd" fill="rgb(244,55,55)"/><path d=" M 377.06 113.37 L 378.25 114.06 C 378.26 114.06 378.27 114.07 378.28 114.07 C 379.08 114.51 379.78 115.12 380.33 115.85 C 380.68 116.33 380.87 116.91 380.89 117.5 C 380.87 118.1 380.68 118.67 380.33 119.15 C 379.78 119.89 379.08 120.49 378.28 120.93 C 378.27 120.93 378.26 120.94 378.25 120.95 L 221.17 211.64 C 220.11 212.23 218.97 212.67 217.78 212.93 C 216.48 213.23 215.14 213.38 213.8 213.38 C 212.46 213.38 211.13 213.23 209.82 212.93 C 208.64 212.67 207.49 212.23 206.44 211.64 L 205.24 210.95 C 205.23 210.94 205.22 210.93 205.21 210.93 C 204.41 210.49 203.71 209.89 203.16 209.15 C 202.81 208.67 202.62 208.1 202.6 207.5 C 202.62 206.91 202.81 206.33 203.16 205.85 C 203.71 205.12 204.41 204.51 205.21 204.07 C 205.22 204.07 205.23 204.06 205.24 204.06 L 362.32 113.37 C 363.38 112.77 364.52 112.33 365.71 112.07 C 367.01 111.77 368.35 111.62 369.69 111.62 C 371.03 111.62 372.36 111.77 373.67 112.07 C 374.86 112.33 376 112.77 377.06 113.37 L 377.06 113.37 Z  M 378.45 110.95 L 379.63 111.63 C 380.79 112.26 381.79 113.14 382.58 114.2 C 383.28 115.16 383.66 116.31 383.68 117.5 C 383.66 118.69 383.28 119.85 382.58 120.81 C 381.79 121.86 380.79 122.74 379.63 123.37 L 222.56 214.06 C 222.56 214.06 222.55 214.06 222.55 214.06 C 221.25 214.79 219.85 215.33 218.4 215.65 C 216.89 216 215.35 216.17 213.8 216.17 C 212.26 216.17 210.71 216 209.2 215.65 C 207.75 215.33 206.36 214.79 205.06 214.06 C 205.05 214.06 205.05 214.06 205.05 214.06 L 203.86 213.37 C 202.7 212.74 201.7 211.86 200.92 210.81 C 200.21 209.85 199.83 208.69 199.81 207.5 C 199.83 206.31 200.21 205.16 200.92 204.2 C 201.7 203.14 202.7 202.26 203.86 201.63 L 360.93 110.95 C 360.94 110.94 360.94 110.94 360.94 110.94 C 362.24 110.21 363.64 109.67 365.09 109.35 C 366.6 109 368.14 108.83 369.69 108.83 C 371.24 108.83 372.78 109 374.29 109.35 C 375.74 109.67 377.14 110.21 378.43 110.94 C 378.44 110.94 378.44 110.94 378.45 110.95 L 378.45 110.95 Z  M 378.25 335.94 L 377.05 336.63 C 376 337.23 374.85 337.67 373.67 337.93 C 372.36 338.23 371.03 338.38 369.69 338.38 C 368.35 338.38 367.01 338.23 365.71 337.93 C 364.52 337.67 363.38 337.23 362.32 336.63 L 205.24 245.95 C 205.23 245.94 205.22 245.93 205.21 245.93 C 204.41 245.49 203.71 244.89 203.16 244.15 C 202.81 243.67 202.62 243.1 202.6 242.5 C 202.62 241.91 202.81 241.33 203.16 240.85 C 203.71 240.12 204.41 239.51 205.21 239.07 C 205.22 239.07 205.23 239.06 205.24 239.06 L 206.44 238.37 C 207.49 237.77 208.64 237.33 209.82 237.07 C 211.13 236.77 212.46 236.62 213.8 236.62 C 215.14 236.62 216.48 236.77 217.78 237.07 C 218.97 237.33 220.11 237.77 221.17 238.37 L 378.25 329.06 C 378.26 329.06 378.27 329.07 378.28 329.07 C 379.08 329.51 379.78 330.12 380.33 330.85 C 380.67 331.33 380.87 331.91 380.89 332.5 C 380.87 333.09 380.67 333.67 380.33 334.15 C 379.78 334.88 379.08 335.49 378.28 335.93 C 378.27 335.93 378.26 335.94 378.25 335.94 L 378.25 335.94 Z  M 379.63 338.37 L 378.44 339.06 C 378.44 339.06 378.44 339.06 378.43 339.06 C 377.13 339.79 375.74 340.33 374.28 340.65 C 372.78 341 371.23 341.17 369.69 341.17 C 368.14 341.17 366.6 341 365.09 340.65 C 363.64 340.33 362.24 339.79 360.94 339.06 C 360.94 339.06 360.93 339.06 360.93 339.06 L 203.86 248.37 C 202.7 247.74 201.7 246.86 200.92 245.8 C 200.21 244.85 199.83 243.69 199.81 242.5 C 199.83 241.31 200.21 240.16 200.92 239.2 C 201.7 238.14 202.7 237.26 203.86 236.63 L 205.05 235.95 C 205.05 235.94 205.05 235.94 205.06 235.94 C 206.36 235.21 207.75 234.67 209.2 234.35 C 210.71 234 212.26 233.83 213.8 233.83 C 215.35 233.83 216.89 234 218.4 234.35 C 219.85 234.67 221.25 235.21 222.55 235.94 C 222.55 235.94 222.56 235.94 222.56 235.95 L 379.63 326.63 C 380.79 327.26 381.79 328.14 382.57 329.2 C 383.28 330.16 383.66 331.31 383.68 332.5 C 383.66 333.69 383.28 334.84 382.57 335.8 C 381.79 336.86 380.79 337.74 379.63 338.37 L 379.63 338.37 Z " fill-rule="evenodd" fill="rgb(255,255,255)"/></g><g><path d=" M 331.208 244.022 L 360.749 248.604 L 331.208 253.568 L 331.208 262.478 L 360.749 267.441 L 331.208 272.024 L 331.208 282.206 L 386.321 272.023 L 386.321 263.114 L 356.891 258.023 L 386.321 252.932 L 386.321 244.022 L 331.208 233.84 L 331.208 244.022 Z  M 329.665 211.375 C 329.665 215.575 332.31 218.757 336.389 220.476 L 309.163 220.476 L 309.163 230.022 L 386.321 230.021 L 386.321 220.475 L 356.229 220.476 C 348.403 220.476 344.876 218.057 344.876 214.557 C 344.876 211.502 348.073 209.02 354.907 209.02 L 386.321 209.02 L 386.321 199.474 L 352.482 199.475 C 337.601 199.475 329.665 204.948 329.665 211.375 Z  M 387.865 177.646 C 387.865 168.291 375.189 160.782 358.765 160.782 C 342.341 160.782 329.665 168.291 329.665 177.646 C 329.665 187.001 342.341 194.511 358.765 194.511 C 375.189 194.511 387.865 187.001 387.865 177.646 Z  M 371.772 177.646 C 371.772 181.783 366.591 184.965 358.765 184.965 C 350.939 184.965 345.758 181.783 345.758 177.646 C 345.758 173.51 350.939 170.328 358.765 170.328 C 366.591 170.328 371.772 173.51 371.772 177.646 Z " fill="rgb(244,55,55)"/><path d=" M 329.81 232.16 L 387.72 242.86 L 387.72 254.11 L 365.08 258.02 L 387.72 261.94 L 387.72 273.19 L 329.81 283.88 L 329.81 270.83 L 352 267.39 L 329.81 263.66 L 329.81 252.39 L 352 248.66 L 329.81 245.22 L 329.81 232.16 Z  M 332.6 235.52 L 384.93 245.18 L 384.93 251.76 L 348.7 258.02 L 384.93 264.29 L 384.93 270.86 L 332.6 280.53 L 332.6 273.22 L 369.5 267.5 L 332.6 261.3 L 332.6 254.75 L 369.5 248.55 L 332.6 242.83 L 332.6 235.52 Z  M 331.63 219.08 C 331.18 218.65 330.77 218.19 330.39 217.7 C 329.01 215.88 328.26 213.66 328.27 211.37 C 328.27 211.37 328.27 211.36 328.27 211.36 C 328.29 209.44 328.89 207.57 329.99 206 C 330.58 205.16 331.27 204.4 332.05 203.73 C 332.9 202.99 333.83 202.34 334.81 201.8 C 335.91 201.18 337.06 200.66 338.25 200.23 C 339.59 199.75 340.96 199.36 342.35 199.06 C 343.92 198.73 345.5 198.49 347.1 198.33 C 348.89 198.16 350.68 198.07 352.48 198.08 L 387.72 198.08 L 387.72 210.42 L 354.91 210.42 C 354.9 210.42 354.9 210.42 354.89 210.42 C 353.5 210.4 352.1 210.54 350.74 210.82 C 349.78 211.02 348.87 211.36 348.03 211.85 C 347.48 212.17 347.01 212.61 346.66 213.15 C 346.41 213.57 346.27 214.06 346.27 214.56 L 346.27 214.56 L 346.27 214.56 C 346.27 214.56 346.27 214.56 346.27 214.57 C 346.27 215.14 346.42 215.71 346.72 216.2 C 347.12 216.79 347.65 217.27 348.27 217.6 C 349.25 218.12 350.31 218.48 351.4 218.67 C 352.99 218.96 354.6 219.1 356.21 219.08 C 356.22 219.08 356.22 219.08 356.23 219.08 L 356.23 219.08 L 387.72 219.08 L 387.72 231.42 L 307.77 231.42 L 307.77 219.08 L 331.63 219.08 Z  M 328.27 211.37 C 328.27 211.37 328.27 211.37 328.27 211.37 L 328.27 211.38 L 328.27 211.38 C 328.27 211.37 328.27 211.37 328.27 211.37 Z  M 343.48 214.55 C 343.47 215.67 343.78 216.77 344.37 217.71 C 345.03 218.7 345.92 219.51 346.96 220.06 C 348.2 220.72 349.53 221.18 350.91 221.42 C 352.67 221.74 354.45 221.89 356.24 221.87 C 356.24 221.87 356.24 221.87 356.25 221.87 L 356.23 221.87 L 356.23 221.87 L 356.24 221.87 L 384.93 221.87 L 384.93 228.63 L 310.56 228.63 L 310.56 221.87 L 336.39 221.87 C 336.71 221.87 337.02 221.76 337.27 221.55 C 337.52 221.35 337.69 221.06 337.76 220.75 C 337.82 220.43 337.77 220.1 337.62 219.82 C 337.47 219.53 337.22 219.31 336.92 219.19 C 336.04 218.82 335.21 218.35 334.44 217.79 C 333.75 217.29 333.13 216.69 332.61 216.01 C 331.6 214.68 331.06 213.05 331.06 211.38 C 331.06 211.38 331.06 211.38 331.06 211.38 C 331.06 211.38 331.06 211.38 331.06 211.38 L 331.06 211.38 L 331.06 211.39 C 331.06 211.39 331.06 211.39 331.06 211.38 C 331.08 210.03 331.5 208.71 332.28 207.61 C 332.74 206.95 333.27 206.36 333.87 205.84 C 334.58 205.23 335.35 204.69 336.17 204.23 C 337.14 203.69 338.15 203.23 339.2 202.86 C 340.41 202.42 341.66 202.06 342.93 201.8 C 344.39 201.48 345.87 201.25 347.36 201.11 C 349.06 200.95 350.77 200.87 352.48 200.87 C 352.48 200.87 352.48 200.87 352.48 200.87 L 384.93 200.87 L 384.93 207.62 L 354.91 207.62 C 353.32 207.61 351.73 207.76 350.17 208.09 C 348.93 208.34 347.73 208.8 346.63 209.44 C 345.69 209.98 344.89 210.74 344.3 211.66 C 343.76 212.53 343.48 213.53 343.48 214.55 C 343.48 214.55 343.48 214.56 343.48 214.56 L 343.48 214.56 L 343.48 214.55 C 343.48 214.55 343.48 214.55 343.48 214.55 Z  M 343.48 214.56 M 358.76 195.91 C 354.79 195.92 350.83 195.47 346.96 194.55 C 345.22 194.13 343.51 193.59 341.83 192.94 C 340.29 192.34 338.79 191.63 337.36 190.8 C 336.04 190.03 334.79 189.15 333.63 188.15 C 332.56 187.23 331.6 186.19 330.77 185.05 C 329.99 183.97 329.37 182.78 328.92 181.52 C 328.49 180.27 328.27 178.97 328.27 177.65 C 328.27 177.65 328.27 177.65 328.27 177.65 L 328.27 177.65 C 328.27 177.65 328.27 177.64 328.27 177.64 C 328.27 176.33 328.49 175.02 328.92 173.78 C 329.37 172.52 329.99 171.33 330.77 170.25 C 331.6 169.1 332.56 168.06 333.63 167.14 C 334.79 166.15 336.04 165.26 337.36 164.5 C 338.79 163.67 340.29 162.95 341.84 162.35 C 343.51 161.7 345.22 161.16 346.96 160.74 C 350.83 159.82 354.79 159.37 358.77 159.39 C 358.77 159.39 358.77 159.39 358.77 159.39 L 358.77 159.39 L 358.77 159.39 L 358.76 159.39 C 358.76 159.39 358.76 159.39 358.77 159.39 C 362.74 159.37 366.7 159.82 370.57 160.74 C 372.31 161.16 374.02 161.7 375.69 162.35 C 377.24 162.95 378.74 163.67 380.17 164.5 C 381.49 165.26 382.74 166.14 383.9 167.14 C 384.97 168.06 385.93 169.1 386.76 170.25 C 387.54 171.33 388.16 172.52 388.61 173.78 C 389.04 175.02 389.26 176.33 389.26 177.64 C 389.26 177.64 389.26 177.65 389.26 177.65 C 389.26 177.65 389.26 177.65 389.26 177.65 C 389.26 178.97 389.04 180.27 388.61 181.52 C 388.16 182.78 387.54 183.97 386.76 185.05 C 385.93 186.19 384.97 187.23 383.9 188.15 C 382.74 189.15 381.49 190.03 380.17 190.8 C 378.74 191.63 377.24 192.34 375.69 192.94 C 374.02 193.59 372.31 194.13 370.57 194.55 C 366.7 195.47 362.74 195.92 358.76 195.91 C 358.76 195.91 358.76 195.91 358.76 195.91 L 358.76 195.91 L 358.76 195.91 L 358.77 195.91 C 358.77 195.91 358.77 195.91 358.76 195.91 Z  M 331.06 177.65 L 331.06 177.65 L 331.06 177.65 C 331.06 177.65 331.06 177.65 331.06 177.65 C 331.06 176.64 331.23 175.64 331.56 174.7 C 331.91 173.69 332.41 172.74 333.03 171.88 C 333.73 170.92 334.55 170.04 335.45 169.26 C 336.48 168.37 337.58 167.59 338.75 166.91 C 340.07 166.16 341.43 165.5 342.85 164.95 C 344.4 164.35 345.99 163.85 347.61 163.46 C 351.26 162.59 355.01 162.16 358.76 162.18 C 358.76 162.18 358.76 162.18 358.77 162.18 C 358.77 162.18 358.77 162.18 358.77 162.18 C 362.52 162.16 366.27 162.59 369.92 163.46 C 371.54 163.85 373.13 164.35 374.68 164.95 C 376.1 165.5 377.46 166.16 378.78 166.91 C 379.95 167.59 381.05 168.37 382.08 169.26 C 382.98 170.04 383.8 170.92 384.5 171.88 C 385.12 172.74 385.62 173.69 385.97 174.69 C 386.3 175.64 386.47 176.64 386.47 177.65 C 386.47 177.65 386.47 177.65 386.47 177.65 L 386.47 177.65 L 386.47 177.65 L 386.47 177.64 C 386.47 177.64 386.47 177.65 386.47 177.65 C 386.47 178.65 386.3 179.65 385.97 180.6 C 385.62 181.6 385.12 182.55 384.5 183.41 C 383.8 184.38 382.98 185.26 382.08 186.03 C 381.05 186.92 379.95 187.7 378.78 188.38 C 377.46 189.14 376.1 189.79 374.68 190.34 C 373.13 190.94 371.54 191.44 369.92 191.83 C 366.27 192.7 362.52 193.13 358.77 193.11 C 358.77 193.11 358.77 193.11 358.76 193.11 L 358.76 193.11 C 358.76 193.11 358.76 193.11 358.76 193.11 C 355.01 193.13 351.26 192.7 347.61 191.83 C 345.99 191.44 344.4 190.94 342.84 190.34 C 341.43 189.79 340.07 189.14 338.75 188.38 C 337.58 187.7 336.48 186.92 335.45 186.03 C 334.55 185.26 333.73 184.38 333.03 183.41 C 332.41 182.55 331.91 181.6 331.56 180.6 C 331.23 179.65 331.06 178.65 331.06 177.65 C 331.06 177.65 331.06 177.64 331.06 177.64 L 331.06 177.65 Z  M 358.76 186.36 L 358.76 186.36 L 358.78 186.36 C 358.77 186.36 358.77 186.36 358.76 186.36 C 356.87 186.37 354.98 186.18 353.13 185.77 C 351.56 185.43 350.05 184.86 348.65 184.08 C 347.43 183.41 346.37 182.48 345.55 181.35 C 344.79 180.27 344.38 178.98 344.36 177.66 C 344.36 177.66 344.36 177.65 344.36 177.65 C 344.36 177.64 344.36 177.64 344.36 177.63 C 344.38 176.31 344.79 175.02 345.55 173.95 C 346.37 172.82 347.43 171.88 348.65 171.21 C 350.05 170.43 351.56 169.86 353.13 169.53 C 354.98 169.12 356.87 168.92 358.76 168.93 C 358.77 168.93 358.77 168.93 358.78 168.93 L 358.76 168.93 L 358.77 168.93 L 358.75 168.93 C 358.76 168.93 358.76 168.93 358.76 168.93 C 360.66 168.92 362.55 169.12 364.4 169.53 C 365.97 169.86 367.48 170.43 368.88 171.21 C 370.1 171.88 371.16 172.82 371.98 173.95 C 372.74 175.02 373.15 176.31 373.17 177.63 C 373.17 177.64 373.17 177.64 373.17 177.65 L 373.17 177.65 C 373.17 177.65 373.17 177.66 373.17 177.66 C 373.15 178.98 372.74 180.27 371.98 181.35 C 371.16 182.48 370.1 183.41 368.88 184.08 C 367.48 184.86 365.97 185.43 364.4 185.77 C 362.55 186.18 360.66 186.37 358.76 186.36 C 358.76 186.36 358.76 186.36 358.75 186.36 L 358.76 186.36 Z  M 358.77 171.72 C 358.77 171.72 358.77 171.72 358.78 171.72 C 360.47 171.71 362.15 171.89 363.8 172.25 C 365.11 172.53 366.36 173.01 367.53 173.66 C 368.39 174.13 369.13 174.78 369.7 175.57 C 370.13 176.18 370.37 176.9 370.38 177.65 C 370.38 177.65 370.38 177.66 370.38 177.66 L 370.38 177.65 L 370.38 177.65 L 370.38 177.63 C 370.38 177.64 370.38 177.64 370.38 177.65 C 370.37 178.39 370.13 179.11 369.7 179.72 C 369.13 180.51 368.39 181.17 367.53 181.64 C 366.36 182.29 365.11 182.76 363.8 183.04 C 362.15 183.4 360.47 183.58 358.78 183.57 C 358.77 183.57 358.77 183.57 358.76 183.57 C 358.76 183.57 358.76 183.57 358.75 183.57 C 357.06 183.58 355.38 183.4 353.73 183.04 C 352.42 182.76 351.17 182.29 350 181.64 C 349.14 181.17 348.4 180.51 347.83 179.72 C 347.4 179.11 347.16 178.39 347.15 177.65 C 347.16 176.9 347.4 176.18 347.83 175.57 C 348.4 174.78 349.14 174.13 350 173.66 C 351.17 173.01 352.42 172.53 353.73 172.25 C 355.38 171.89 357.06 171.71 358.75 171.72 C 358.76 171.72 358.76 171.72 358.76 171.72 M 347.15 177.65 C 347.15 177.64 347.15 177.64 347.15 177.63 L 347.15 177.65 Z  M 347.15 177.65 M 347.15 177.65 L 347.15 177.66 C 347.15 177.66 347.15 177.65 347.15 177.65 Z " fill-rule="evenodd" fill="rgb(255,255,255)"/></g><g><g><path d=" M 400 89.397 C 395.297 89.397 390.594 90.432 387.01 92.501 C 379.84 96.641 379.84 103.362 387.009 107.501 C 390.594 109.571 395.297 110.606 400 110.606 L 400 89.397 Z " fill="rgb(244,55,55)"/><path d=" M 400 88.336 C 394.634 88.338 389.493 89.568 385.711 91.751 C 381.926 93.936 379.796 96.906 379.787 100.001 C 379.796 103.096 381.926 106.066 385.71 108.251 C 389.493 110.435 394.634 111.665 400 111.666 L 400 109.545 C 399.384 109.545 398.768 109.526 398.155 109.486 L 398.155 109.486 L 398.155 109.486 C 394.431 109.246 390.959 108.281 388.309 106.751 L 388.309 106.751 C 385.208 104.961 383.459 102.531 383.459 100.001 C 383.459 97.471 385.208 95.041 388.309 93.251 C 390.959 91.721 394.431 90.756 398.155 90.516 L 398.155 90.516 C 398.768 90.477 399.384 90.457 400 90.457 L 400 88.336 Z " fill="rgb(255,255,255)"/></g><g><path d=" M 399.999 339.396 C 395.296 339.396 390.593 340.431 387.008 342.501 C 379.839 346.64 379.839 353.361 387.008 357.501 C 390.593 359.57 395.296 360.605 399.998 360.605 L 399.999 339.396 Z " fill="rgb(244,55,55)"/><path d=" M 399.999 338.336 C 394.632 338.337 389.492 339.567 385.709 341.751 C 381.925 343.936 379.794 346.906 379.786 350.001 C 379.794 353.096 381.925 356.066 385.709 358.251 C 389.492 360.434 394.632 361.664 399.998 361.665 L 399.998 359.545 C 399.383 359.545 398.767 359.525 398.154 359.485 L 398.154 359.486 L 398.154 359.486 C 394.43 359.246 390.957 358.281 388.307 356.751 L 388.307 356.751 C 385.207 354.961 383.457 352.531 383.457 350.001 C 383.457 347.471 385.207 345.041 388.307 343.251 C 390.957 341.721 394.43 340.756 398.154 340.516 L 398.154 340.516 C 398.767 340.476 399.383 340.457 399.999 340.457 L 399.999 338.336 Z " fill="rgb(255,255,255)"/></g></g></g></g></svg>