<?xml version="1.0" encoding="UTF-8" standalone="no"?><!-- Generator: Gravit.io --><svg xmlns="http://www.w3.org/2000/svg" xmlns:xlink="http://www.w3.org/1999/xlink" style="isolation:isolate" viewBox="0 -200 1000 1000" width="1000pt" height="1000pt"><path d=" M 500 278 C 507.92 278 515.85 277.78 523.76 277.33 C 530.5 276.96 537.23 276.36 543.94 275.55 C 545.85 275.32 547.76 275.06 549.67 274.79 C 551.48 274.54 553.3 274.26 555.11 273.96 C 557.56 273.56 560 273.12 562.44 272.65 C 564.72 272.21 566.99 271.73 569.26 271.21 C 575.3 269.83 581.26 268.17 587.14 266.22 C 592.05 264.59 596.87 262.7 601.57 260.54 C 602.81 259.97 604.04 259.38 605.26 258.77 C 606.42 258.19 607.58 257.59 608.73 256.97 C 610.18 256.18 611.62 255.37 613.03 254.52 C 614.38 253.72 615.7 252.88 617.01 252.02 C 620.35 249.81 623.54 247.4 626.58 244.8 C 629.38 242.41 632.01 239.84 634.47 237.1 C 636.85 234.45 639.06 231.64 641.08 228.69 C 643.14 225.69 644.99 222.56 646.64 219.33 C 648.38 215.92 649.89 212.41 651.17 208.81 C 652.6 204.79 653.8 200.69 654.74 196.53 C 655.81 191.81 656.6 187.04 657.1 182.22 C 657.7 176.5 658 170.75 658 165 C 658 159.25 657.7 153.5 657.1 147.77 C 656.6 142.96 655.81 138.19 654.74 133.47 C 653.8 129.31 652.61 125.2 651.17 121.19 C 649.89 117.59 648.38 114.08 646.65 110.67 C 645 107.43 643.14 104.31 641.09 101.31 C 639.07 98.36 636.86 95.55 634.47 92.9 C 632.01 90.16 629.38 87.59 626.59 85.2 C 623.55 82.6 620.35 80.19 617.02 77.98 C 614.05 76.02 610.99 74.21 607.85 72.56 C 604.29 70.69 600.65 68.98 596.93 67.44 C 592.73 65.7 588.45 64.15 584.11 62.79 C 579.04 61.21 573.91 59.84 568.73 58.67 C 559 56.48 549.14 54.89 539.21 53.92 C 526.18 52.64 513.09 52 500 52 L 342 52 L 342 52 L 342 52 L 342 278 L 500 278 Z  M 621.031 300.008 C 622.32 299.409 623.603 298.788 624.88 298.15 C 626.49 297.35 628.07 296.53 629.65 295.68 C 631.66 294.59 633.65 293.46 635.61 292.28 C 637.53 291.14 639.42 289.95 641.28 288.72 C 646.13 285.52 650.78 282.01 655.19 278.23 C 659.45 274.59 663.46 270.67 667.2 266.51 C 670.87 262.42 674.27 258.09 677.38 253.56 C 680.51 248.99 683.34 244.23 685.85 239.3 C 688.44 234.21 690.7 228.96 692.62 223.58 C 694.64 217.92 696.32 212.13 697.65 206.26 C 699.11 199.85 700.18 193.35 700.86 186.8 C 701.62 179.56 702 172.28 702 165 C 702 157.72 701.62 150.44 700.86 143.2 C 700.18 136.65 699.11 130.15 697.65 123.74 C 696.32 117.87 694.64 112.08 692.62 106.42 C 690.71 101.04 688.44 95.79 685.85 90.7 C 683.34 85.77 680.51 81.01 677.38 76.44 C 674.28 71.91 670.88 67.58 667.2 63.49 C 663.46 59.33 659.45 55.41 655.2 51.77 C 650.78 47.99 646.13 44.48 641.28 41.28 C 637.09 38.51 632.77 35.95 628.33 33.62 C 623.59 31.12 618.74 28.85 613.79 26.8 C 608.35 24.54 602.82 22.53 597.2 20.78 C 591 18.85 584.73 17.17 578.4 15.75 C 566.89 13.15 555.24 11.28 543.5 10.13 C 529.05 8.71 514.53 8 500 8 C 500 8 500 8 500 8 L 325 8 L 325 8 L 325 8 C 317.84 8 310.97 10.85 305.91 15.91 C 300.85 20.97 298 27.84 298 35 L 298 278 L 298 322 L 298 565 C 298 572.16 300.85 579.03 305.91 584.09 C 310.97 589.15 317.84 592 325 592 L 500 592 C 500 592 500 592 500 592 C 508.75 592 517.49 591.75 526.22 591.26 C 533.91 590.83 541.59 590.15 549.23 589.23 C 551.44 588.96 553.65 588.67 555.85 588.36 C 557.97 588.06 560.09 587.73 562.21 587.39 C 565.1 586.91 567.98 586.4 570.85 585.84 C 573.59 585.31 576.32 584.73 579.04 584.11 C 586.45 582.42 593.77 580.38 600.98 577.99 C 607.43 575.85 613.75 573.36 619.93 570.52 C 621.59 569.76 623.24 568.97 624.88 568.15 C 626.49 567.35 628.07 566.53 629.65 565.68 C 631.66 564.59 633.65 563.46 635.61 562.28 C 637.53 561.14 639.42 559.95 641.28 558.72 C 646.13 555.52 650.78 552.01 655.19 548.23 C 659.45 544.59 663.46 540.67 667.2 536.51 C 670.87 532.42 674.27 528.09 677.38 523.56 C 680.51 518.99 683.34 514.23 685.85 509.3 C 688.44 504.21 690.7 498.96 692.62 493.58 C 694.64 487.92 696.32 482.13 697.65 476.26 C 699.11 469.85 700.18 463.35 700.86 456.8 C 701.62 449.56 702 442.28 702 435 C 702 427.72 701.62 420.44 700.86 413.2 C 700.18 406.65 699.11 400.15 697.65 393.74 C 696.32 387.87 694.64 382.08 692.62 376.42 C 690.71 371.04 688.44 365.79 685.85 360.7 C 683.34 355.77 680.51 351.01 677.38 346.44 C 674.28 341.91 670.88 337.58 667.2 333.49 C 663.46 329.33 659.45 325.41 655.2 321.77 C 650.78 317.99 646.13 314.48 641.28 311.28 C 637.09 308.51 632.77 305.95 628.33 303.62 C 625.927 302.353 623.496 301.144 621.031 300.008 Z  M 500 322 L 500 322 C 500 322 500 322 500 322 L 342 322 L 342 548 L 342 548 L 500 548 C 507.92 548 515.85 547.78 523.76 547.33 C 530.5 546.96 537.23 546.36 543.94 545.55 C 545.85 545.32 547.76 545.06 549.67 544.79 C 551.48 544.54 553.3 544.26 555.11 543.96 C 557.56 543.56 560 543.12 562.44 542.65 C 564.72 542.21 566.99 541.73 569.26 541.21 C 575.3 539.83 581.26 538.17 587.14 536.22 C 592.05 534.59 596.87 532.7 601.57 530.54 C 602.81 529.97 604.04 529.38 605.26 528.77 C 606.42 528.19 607.58 527.59 608.73 526.97 C 610.18 526.18 611.62 525.37 613.03 524.52 C 614.38 523.72 615.7 522.88 617.01 522.02 C 620.35 519.81 623.54 517.4 626.58 514.8 C 629.38 512.41 632.01 509.84 634.47 507.1 C 636.85 504.45 639.06 501.64 641.08 498.69 C 643.14 495.69 644.99 492.56 646.64 489.33 C 648.38 485.92 649.89 482.41 651.17 478.81 C 652.6 474.79 653.8 470.69 654.74 466.53 C 655.81 461.81 656.6 457.04 657.1 452.22 C 657.7 446.5 658 440.75 658 435 C 658 429.25 657.7 423.5 657.1 417.77 C 656.6 412.96 655.81 408.19 654.74 403.47 C 653.8 399.31 652.61 395.2 651.17 391.19 C 649.89 387.59 648.38 384.08 646.65 380.67 C 645 377.43 643.14 374.31 641.09 371.31 C 639.07 368.36 636.86 365.55 634.47 362.9 C 632.01 360.16 629.38 357.59 626.59 355.2 C 623.55 352.6 620.35 350.19 617.02 347.98 C 614.05 346.02 610.99 344.21 607.85 342.56 C 604.29 340.69 600.65 338.98 596.93 337.44 C 592.73 335.7 588.45 334.15 584.11 332.79 C 579.04 331.21 573.91 329.84 568.73 328.67 C 559 326.48 549.14 324.89 539.21 323.92 C 526.18 322.64 513.09 322 500 322 L 500 322 Z  M 150 -156 L 850 -156 C 850.01 -156 850.02 -156 850.03 -156 C 864.18 -156.01 878.19 -153.18 891.22 -147.68 C 903.82 -142.34 915.26 -134.61 924.93 -124.93 C 934.61 -115.26 942.34 -103.82 947.68 -91.22 C 953.18 -78.19 956.01 -64.18 956 -50.03 C 956 -50.02 956 -50.01 956 -50 L 956 650 C 956 650.01 956 650.02 956 650.03 C 956.01 664.18 953.18 678.19 947.68 691.22 C 942.34 703.82 934.61 715.26 924.93 724.93 C 915.26 734.61 903.82 742.34 891.22 747.68 C 878.19 753.18 864.18 756.01 850.03 756 C 850.02 756 850.01 756 850 756 L 150 756 C 149.99 756 149.98 756 149.97 756 C 135.82 756.01 121.81 753.18 108.78 747.68 C 96.18 742.34 84.74 734.61 75.07 724.93 C 65.39 715.26 57.66 703.82 52.32 691.22 C 46.82 678.19 43.99 664.18 44 650.03 C 44 650.02 44 650.01 44 650 L 44 -50 C 44 -50.01 44 -50.02 44 -50.03 C 43.99 -64.18 46.82 -78.19 52.32 -91.22 C 57.66 -103.82 65.39 -115.26 75.07 -124.93 C 84.74 -134.61 96.18 -142.34 108.78 -147.68 C 121.81 -153.18 135.82 -156.01 149.97 -156 C 149.98 -156 149.99 -156 150 -156 L 150 -156 L 150 -156 Z  M 150 -200 L 850 -200 C 932.787 -200 1000 -132.787 1000 -50 L 1000 650 C 1000 732.787 932.787 800 850 800 L 150 800 C 67.213 800 0 732.787 0 650 L 0 -50 C 0 -132.787 67.213 -200 150 -200 L 150 -200 L 150 -200 Z " fill-rule="evenodd" id="bot phrase" fill="rgb(209,209,209)"/></svg>