<?xml version="1.0" encoding="UTF-8" standalone="no"?><!-- Generator: Gravit.io --><svg xmlns="http://www.w3.org/2000/svg" xmlns:xlink="http://www.w3.org/1999/xlink" style="isolation:isolate" viewBox="0 0 1000 1000" width="1000pt" height="1000pt"><path d=" M 956.25 500 L 956.25 500 L 956.25 500 L 956.25 499.99 C 956.25 499.99 956.25 499.99 956.25 500 L 956.25 500 L 956.25 500 L 956.25 500 Z  M 500 956.25 C 499.93 956.25 499.87 956.25 499.8 956.25 L 500 956.25 L 500 956.25 L 500 956.25 L 500 956.25 Z  M 500 956.25 L 500 956.25 L 500 956.25 L 500 956.25 L 500 956.25 L 500 956.25 L 500 956.25 Z  M 500 956.25 L 500.2 956.25 C 500.13 956.25 500.07 956.25 500 956.25 L 500 956.25 L 500 956.25 L 500 956.25 Z  M 309.45 621.88 L 690.55 621.88 C 684.99 633.16 678.98 644.22 672.52 655.02 C 665.92 666.05 658.65 676.67 650.75 686.81 C 644.03 695.43 636.79 703.63 629.06 711.36 C 622.36 718.06 615.21 724.29 607.64 730 C 603.67 733 599.57 735.85 595.36 738.53 C 591.34 741.1 587.21 743.5 582.99 745.72 C 578.87 747.9 574.67 749.91 570.38 751.74 C 566.15 753.55 561.84 755.18 557.47 756.64 C 553.07 758.11 548.62 759.39 544.12 760.49 C 539.51 761.61 534.86 762.55 530.18 763.29 C 525.33 764.07 520.45 764.64 515.55 765.02 C 510.38 765.42 505.19 765.63 500 765.63 C 494.78 765.62 489.56 765.42 484.36 765.02 C 479.43 764.63 474.52 764.05 469.64 763.26 C 464.93 762.51 460.26 761.56 455.62 760.42 C 451.1 759.31 446.62 758.01 442.2 756.53 C 437.8 755.05 433.47 753.39 429.21 751.56 C 424.9 749.7 420.67 747.67 416.53 745.47 C 412.29 743.21 408.13 740.78 404.09 738.18 C 399.86 735.46 395.74 732.57 391.73 729.52 C 388.18 726.82 384.71 723.99 381.35 721.05 C 377.77 717.93 374.29 714.7 370.92 711.36 C 368.22 708.68 365.59 705.93 363.02 703.13 C 360.3 700.16 357.65 697.12 355.07 694.03 C 353.09 691.65 351.15 689.25 349.25 686.8 C 347.26 684.25 345.31 681.66 343.4 679.03 C 341.95 677.05 340.54 675.05 339.14 673.04 C 337.69 670.95 336.27 668.84 334.87 666.72 C 329.66 658.82 324.76 650.73 320.19 642.45 C 316.44 635.68 312.86 628.82 309.45 621.88 L 309.45 621.88 L 309.45 621.88 L 309.45 621.88 Z  M 219.57 343.78 C 216.97 348.97 212.42 352.92 206.92 354.75 C 201.42 356.59 195.41 356.16 190.22 353.57 C 185.03 350.97 181.08 346.42 179.25 340.92 C 177.41 335.42 177.84 329.41 180.43 324.22 C 183 319.09 185.95 314.18 189.28 309.51 C 192.5 304.99 196.09 300.74 200.01 296.8 C 203.93 292.87 208.16 289.26 212.67 286.02 C 217.31 282.68 222.21 279.71 227.32 277.13 C 229.59 275.99 231.89 274.92 234.22 273.92 C 236.64 272.9 239.08 271.95 241.56 271.07 C 243.5 270.38 245.45 269.74 247.42 269.15 C 249.45 268.53 251.5 267.96 253.56 267.44 C 255.12 267.04 256.69 266.67 258.26 266.32 C 259.88 265.96 261.5 265.63 263.13 265.33 C 268.84 264.25 274.59 263.46 280.37 262.97 C 286.9 262.41 293.45 262.12 300 262.13 C 307.49 262.13 314.98 262.5 322.44 263.24 C 328.94 263.89 335.4 264.92 341.79 266.33 C 347.41 267.58 352.95 269.15 358.38 271.05 C 363.4 272.81 368.29 274.9 373.02 277.31 C 378.09 279.89 382.95 282.86 387.55 286.19 C 392.03 289.42 396.23 293.01 400.12 296.93 C 404.01 300.85 407.57 305.09 410.78 309.59 C 414.08 314.23 417.02 319.12 419.57 324.22 C 422.16 329.4 422.59 335.42 420.75 340.92 C 418.92 346.42 414.97 350.97 409.78 353.57 C 404.6 356.16 398.58 356.59 393.08 354.75 C 387.58 352.92 383.03 348.97 380.43 343.78 C 378.9 340.71 377.12 337.75 375.13 334.95 C 373.31 332.39 371.28 329.98 369.06 327.75 C 366.85 325.52 364.46 323.48 361.92 321.64 C 359.15 319.64 356.22 317.85 353.18 316.3 C 350.19 314.78 347.1 313.46 343.93 312.35 C 340.14 311.02 336.27 309.92 332.34 309.05 C 327.64 308.01 322.89 307.25 318.1 306.77 C 312.08 306.18 306.04 305.88 300 305.88 C 294.7 305.87 289.4 306.1 284.12 306.56 C 279.8 306.93 275.49 307.52 271.22 308.32 C 270.04 308.54 268.86 308.78 267.68 309.04 C 266.57 309.29 265.46 309.55 264.36 309.83 C 262.93 310.2 261.5 310.6 260.08 311.02 C 258.77 311.42 257.46 311.85 256.16 312.31 C 254.54 312.89 252.94 313.51 251.35 314.18 C 249.89 314.8 248.45 315.47 247.04 316.19 C 243.96 317.74 241.01 319.53 238.21 321.55 C 235.64 323.39 233.24 325.44 231.01 327.67 C 228.78 329.91 226.74 332.33 224.9 334.9 C 222.9 337.72 221.11 340.69 219.57 343.78 L 219.57 343.78 Z  M 500 809.37 C 493.64 809.37 487.29 809.13 480.95 808.63 C 474.84 808.16 468.75 807.43 462.7 806.46 C 456.82 805.51 450.98 804.33 445.19 802.91 C 439.49 801.51 433.85 799.87 428.28 798 C 422.74 796.14 417.27 794.05 411.9 791.74 C 406.49 789.41 401.18 786.86 395.98 784.09 C 390.68 781.27 385.49 778.23 380.43 774.98 C 375.23 771.64 370.16 768.09 365.24 764.34 C 360.9 761.04 356.68 757.6 352.58 754.02 C 348.3 750.28 344.14 746.41 340.11 742.42 C 336.91 739.24 333.79 735.99 330.74 732.66 C 327.57 729.2 324.48 725.66 321.47 722.05 C 319.18 719.3 316.93 716.51 314.73 713.68 C 312.44 710.75 310.21 707.78 308.03 704.78 C 306.38 702.52 304.76 700.25 303.17 697.95 C 301.54 695.59 299.93 693.2 298.34 690.8 C 292.51 681.96 287.03 672.9 281.9 663.63 C 276.16 653.26 270.78 642.69 265.77 631.95 C 264.47 629.18 263.44 626.29 262.71 623.33 C 261.96 620.27 261.57 617.14 261.55 614 C 261.51 608.99 262.53 604.04 264.53 599.45 C 266.62 594.72 269.76 590.52 273.7 587.18 C 277.46 584 281.82 581.61 286.52 580.14 C 290.91 578.77 295.5 578.09 300.11 578.13 L 699.89 578.13 C 704.5 578.09 709.09 578.77 713.48 580.14 C 718.18 581.61 722.54 584 726.3 587.18 C 730.24 590.53 733.38 594.72 735.47 599.45 C 737.47 604.04 738.49 608.99 738.45 614 C 738.43 617.14 738.04 620.27 737.29 623.33 C 736.56 626.29 735.53 629.18 734.23 631.95 C 726.96 647.53 718.89 662.72 710.07 677.48 C 702.55 690.05 694.26 702.15 685.26 713.7 C 677.44 723.74 669 733.29 660.01 742.29 C 651.87 750.43 643.18 757.99 634 764.92 C 629.1 768.62 624.06 772.12 618.89 775.42 C 613.85 778.63 608.7 781.63 603.42 784.41 C 598.25 787.14 592.96 789.66 587.59 791.96 C 582.24 794.25 576.81 796.31 571.3 798.15 C 565.76 799.99 560.15 801.61 554.48 802.99 C 548.73 804.39 542.92 805.56 537.07 806.5 C 531.06 807.46 525 808.17 518.93 808.64 C 512.63 809.13 506.32 809.38 500 809.37 L 500 809.37 L 500 809.37 L 500 809.37 Z  M 43.75 500 C 43.75 500 43.75 499.99 43.75 499.99 L 43.75 500 L 43.75 500 L 43.75 500 L 43.75 304.87 L 43.75 100 C 43.75 99.99 43.75 99.98 43.75 99.97 C 43.74 92.47 45.24 85.05 48.16 78.14 C 50.99 71.45 55.1 65.37 60.24 60.24 C 65.37 55.1 71.45 50.99 78.14 48.16 C 85.05 45.24 92.47 43.74 99.97 43.75 C 99.98 43.75 99.99 43.75 100 43.75 L 900 43.75 C 900.01 43.75 900.02 43.75 900.03 43.75 C 907.53 43.74 914.95 45.24 921.86 48.16 C 928.55 50.99 934.63 55.1 939.76 60.24 C 944.9 65.37 949.01 71.45 951.84 78.14 C 954.76 85.05 956.26 92.47 956.25 99.97 C 956.25 99.98 956.25 99.99 956.25 100 L 956.25 304.87 L 956.25 500 C 956.25 516.05 954.93 532.08 952.32 547.92 C 949.73 563.55 945.96 578.96 941.03 594.02 C 936.06 609.21 930.06 624.05 923.08 638.42 C 915.95 653.09 907.96 667.32 899.14 681.03 C 890.13 695.04 880.41 708.57 870 721.58 C 859.43 734.81 848.27 747.56 836.56 759.79 C 824.77 772.11 812.49 783.97 799.77 795.34 C 787.11 806.66 774.07 817.54 760.65 827.95 C 747.5 838.18 734.02 848 720.25 857.38 C 706.97 866.44 693.42 875.11 679.63 883.39 C 666.6 891.21 653.35 898.67 639.9 905.74 C 627.5 912.27 614.92 918.45 602.17 924.25 C 590.83 929.43 579.32 934.24 567.68 938.69 C 562.51 940.66 557.3 942.54 552.07 944.32 C 547.33 945.93 542.56 947.45 537.77 948.87 C 533.55 950.12 529.3 951.27 525.03 952.32 C 521.42 953.21 517.79 953.99 514.14 954.66 C 511.28 955.19 508.39 955.61 505.5 955.92 C 503.67 956.13 501.84 956.23 500 956.25 C 498.16 956.23 496.32 956.13 494.5 955.92 C 491.6 955.61 488.72 955.19 485.86 954.66 C 482.21 953.99 478.58 953.21 474.97 952.32 C 470.7 951.27 466.45 950.12 462.23 948.87 C 457.43 947.45 452.67 945.93 447.93 944.32 C 442.69 942.54 437.49 940.66 432.32 938.69 C 420.67 934.24 409.17 929.43 397.83 924.25 C 385.08 918.45 372.5 912.27 360.1 905.75 C 346.65 898.67 333.4 891.21 320.36 883.39 C 306.58 875.11 293.03 866.44 279.75 857.38 C 265.98 848 252.5 838.18 239.34 827.96 C 225.93 817.54 212.89 806.66 200.23 795.34 C 187.51 783.97 175.23 772.11 163.44 759.79 C 151.73 747.56 140.57 734.81 130 721.58 C 119.59 708.57 109.87 695.04 100.86 681.03 C 92.04 667.32 84.05 653.09 76.92 638.42 C 69.94 624.05 63.94 609.21 58.97 594.02 C 54.04 578.96 50.27 563.55 47.68 547.92 C 45.07 532.08 43.75 516.05 43.75 500 L 43.75 500 L 43.75 500 L 43.75 500 Z  M 1000 100 Q 1000 304.869 1000 500 C 1000.002 800.002 599.998 999.998 500 1000 C 400.002 1000.002 -0.004 800 0 500 Q 0 304.869 0 100 C 0 44.808 44.808 0 100 0 L 900 0 C 955.192 0 1000 44.808 1000 100 L 1000 100 L 1000 100 L 1000 100 Z  M 619.57 343.78 C 616.97 348.97 612.42 352.92 606.92 354.75 C 601.42 356.59 595.41 356.16 590.22 353.57 C 585.03 350.97 581.08 346.42 579.25 340.92 C 577.41 335.42 577.84 329.41 580.43 324.22 C 583 319.09 585.95 314.18 589.28 309.51 C 592.5 304.99 596.09 300.74 600.01 296.8 C 603.93 292.87 608.16 289.26 612.67 286.02 C 617.31 282.68 622.21 279.71 627.32 277.13 C 629.59 275.99 631.89 274.92 634.22 273.92 C 636.64 272.9 639.08 271.95 641.56 271.07 C 643.5 270.38 645.45 269.74 647.42 269.15 C 649.45 268.53 651.5 267.96 653.56 267.44 C 655.12 267.04 656.69 266.67 658.26 266.32 C 659.88 265.96 661.5 265.63 663.13 265.33 C 668.84 264.25 674.59 263.46 680.37 262.97 C 686.9 262.41 693.45 262.12 700 262.13 C 707.49 262.13 714.98 262.5 722.44 263.24 C 728.94 263.89 735.4 264.92 741.79 266.33 C 747.41 267.58 752.95 269.15 758.38 271.05 C 763.4 272.81 768.29 274.9 773.02 277.31 C 778.09 279.89 782.95 282.86 787.55 286.19 C 792.03 289.42 796.23 293.01 800.12 296.93 C 804.01 300.85 807.57 305.09 810.78 309.59 C 814.08 314.23 817.02 319.12 819.57 324.22 C 822.16 329.4 822.59 335.42 820.75 340.92 C 818.92 346.42 814.97 350.97 809.78 353.57 C 804.6 356.16 798.58 356.59 793.08 354.75 C 787.58 352.92 783.03 348.97 780.43 343.78 C 778.9 340.71 777.12 337.75 775.13 334.95 C 773.31 332.39 771.28 329.98 769.06 327.75 C 766.85 325.52 764.46 323.48 761.92 321.64 C 759.15 319.64 756.22 317.85 753.18 316.3 C 750.19 314.78 747.1 313.46 743.93 312.35 C 740.14 311.02 736.27 309.92 732.34 309.05 C 727.64 308.01 722.89 307.25 718.1 306.77 C 712.08 306.18 706.04 305.88 700 305.88 C 694.7 305.87 689.4 306.1 684.12 306.56 C 679.8 306.93 675.49 307.52 671.22 308.32 C 670.04 308.54 668.86 308.78 667.68 309.04 C 666.57 309.29 665.46 309.55 664.36 309.83 C 662.93 310.2 661.5 310.6 660.08 311.02 C 658.77 311.42 657.46 311.85 656.16 312.31 C 654.54 312.89 652.94 313.51 651.35 314.18 C 649.89 314.8 648.45 315.47 647.04 316.19 C 643.96 317.74 641.01 319.53 638.21 321.55 C 635.64 323.39 633.24 325.44 631.01 327.67 C 628.78 329.91 626.74 332.33 624.9 334.9 C 622.9 337.72 621.11 340.69 619.57 343.78 Z " fill-rule="evenodd" id="emotions" fill="rgb(209,209,209)"/></svg>