<?xml version="1.0" encoding="UTF-8" standalone="no"?><!-- Generator: Gravit.io --><svg xmlns="http://www.w3.org/2000/svg" xmlns:xlink="http://www.w3.org/1999/xlink" style="isolation:isolate" viewBox="-500 -50 800 1000" width="800pt" height="1000pt"><path d=" M -82.5 350.179 L -82.5 350.179 L 37.63 470.3 C 40.91 473.58 45.36 475.43 50 475.43 C 54.64 475.43 59.09 473.58 62.37 470.3 C 65.65 467.02 67.5 462.57 67.5 457.93 C 67.5 453.29 65.65 448.83 62.37 445.55 L -84.09 299.09 C -84.09 299.09 -84.09 299.09 -84.09 299.09 C -88.31 294.87 -94.04 292.5 -100 292.5 C -105.96 292.5 -111.69 294.87 -115.91 299.09 C -115.91 299.09 -115.91 299.09 -115.91 299.09 L -262.37 445.55 C -265.65 448.83 -267.5 453.29 -267.5 457.93 C -267.5 462.57 -265.65 467.02 -262.37 470.3 C -259.09 473.58 -254.64 475.43 -250 475.43 C -245.36 475.43 -240.91 473.58 -237.63 470.3 L -117.5 350.179 L -117.5 682.93 C -117.5 687.57 -115.65 692.02 -112.37 695.3 C -109.09 698.58 -104.64 700.43 -100 700.43 C -95.36 700.43 -90.91 698.58 -87.63 695.3 C -84.35 692.02 -82.5 687.57 -82.5 682.93 L -82.5 350.179 L -82.5 350.179 Z  M 10 9.545 L 240.126 240 L 50 240 C 39.4 240 29.22 235.78 21.72 228.28 C 14.22 220.78 10 210.6 10 200 L 10 9.545 L 10 9.545 L 10 9.545 L 10 9.545 Z  M -25 -15 L -25 -15 L -450 -15 C -453.98 -15 -457.79 -13.42 -460.61 -10.61 C -463.42 -7.79 -465 -3.98 -465 0 L -465 900 C -465 903.98 -463.42 907.79 -460.61 910.61 C -457.79 913.42 -453.98 915 -450 915 L 250 915 C 253.98 915 257.79 913.42 260.61 910.61 C 263.42 907.79 265 903.98 265 900 L 265 275 L 50 275 C 30.12 275 11.03 267.09 -3.03 253.03 C -17.09 238.97 -25 219.88 -25 200 L -25 -15 L -25 -15 L -25 -15 L -25 -15 Z  M -25 -50 L -450 -50 L -450 -50 C -477.596 -50 -500 -27.596 -500 0 L -500 900 C -500 927.596 -477.596 950 -450 950 L 250 950 C 277.596 950 300 927.596 300 900 L 300 275 L 300 260.43 L 300 260.43 L 300 260 C 300 254.481 296.832 246.832 292.929 242.929 L 7.071 -42.929 C 3.168 -46.832 -4.481 -50 -10 -50 L -10 -50 L -25 -50 L -25 -50 L -25 -50 L -25 -50 Z  M 125 757.5 C 129.64 757.5 134.09 759.35 137.37 762.63 C 140.65 765.91 142.5 770.36 142.5 775 C 142.5 779.64 140.65 784.09 137.37 787.37 C 134.09 790.65 129.64 792.5 125 792.5 L -325 792.5 C -329.64 792.5 -334.09 790.65 -337.37 787.37 C -340.65 784.09 -342.5 779.64 -342.5 775 C -342.5 770.36 -340.65 765.91 -337.37 762.63 C -334.09 759.35 -329.64 757.5 -325 757.5 L 125 757.5 Z " fill-rule="evenodd" id="export" fill="rgb(209,209,209)"/></svg>