<?xml version="1.0" encoding="UTF-8" standalone="no"?><!-- Generator: Gravit.io --><svg xmlns="http://www.w3.org/2000/svg" xmlns:xlink="http://www.w3.org/1999/xlink" style="isolation:isolate" viewBox="0 -200 1000 1000" width="1000pt" height="1000pt"><path d=" M 341.9 278.1 L 341.9 30 L 341.9 30 L 341.9 30 C 341.9 24.19 339.59 18.62 335.49 14.51 C 331.38 10.41 325.81 8.1 320 8.1 C 314.19 8.1 308.62 10.41 304.51 14.51 C 300.41 18.62 298.1 24.19 298.1 30 L 298.1 300 L 298.1 570 C 298.1 575.81 300.41 581.38 304.51 585.49 C 308.62 589.59 314.19 591.9 320 591.9 C 325.81 591.9 331.38 589.59 335.49 585.49 C 339.59 581.38 341.9 575.81 341.9 570 L 341.9 321.9 L 658.1 321.9 L 658.1 570 C 658.1 575.81 660.41 581.38 664.51 585.49 C 668.62 589.59 674.19 591.9 680 591.9 C 685.81 591.9 691.38 589.59 695.49 585.49 C 699.59 581.38 701.9 575.81 701.9 570 L 701.9 300 L 701.9 30 L 701.9 30 C 701.9 24.19 699.59 18.62 695.49 14.51 C 691.38 10.41 685.81 8.1 680 8.1 C 674.19 8.1 668.62 10.41 664.51 14.51 C 660.41 18.62 658.1 24.19 658.1 30 L 658.1 278.1 L 341.9 278.1 Z  M 150 -156.2 L 850 -156.2 C 850.01 -156.2 850.02 -156.2 850.03 -156.2 C 864.21 -156.21 878.24 -153.38 891.3 -147.87 C 903.92 -142.51 915.39 -134.77 925.07 -125.07 C 934.77 -115.39 942.51 -103.92 947.87 -91.3 C 953.38 -78.24 956.21 -64.21 956.2 -50.03 C 956.2 -50.02 956.2 -50.01 956.2 -50 L 956.2 650 C 956.2 650.01 956.2 650.02 956.2 650.03 C 956.21 664.21 953.38 678.24 947.87 691.3 C 942.51 703.92 934.77 715.39 925.07 725.07 C 915.39 734.77 903.92 742.51 891.3 747.87 C 878.24 753.38 864.21 756.21 850.03 756.2 C 850.02 756.2 850.01 756.2 850 756.2 L 150 756.2 C 149.99 756.2 149.98 756.2 149.97 756.2 C 135.79 756.21 121.76 753.38 108.7 747.87 C 96.08 742.51 84.61 734.77 74.93 725.07 C 65.23 715.39 57.49 703.92 52.13 691.3 C 46.62 678.24 43.79 664.21 43.8 650.03 C 43.8 650.02 43.8 650.01 43.8 650 L 43.8 -50 C 43.8 -50.01 43.8 -50.02 43.8 -50.03 C 43.79 -64.21 46.62 -78.24 52.13 -91.3 C 57.49 -103.92 65.23 -115.39 74.93 -125.07 C 84.61 -134.77 96.08 -142.51 108.7 -147.87 C 121.76 -153.38 135.79 -156.21 149.97 -156.2 C 149.98 -156.2 149.99 -156.2 150 -156.2 L 150 -156.2 L 150 -156.2 L 150 -156.2 Z  M 150 -200 L 850 -200 C 932.787 -200 1000 -132.787 1000 -50 L 1000 650 C 1000 732.787 932.787 800 850 800 L 150 800 C 67.213 800 0 732.787 0 650 L 0 -50 C 0 -132.787 67.213 -200 150 -200 L 150 -200 L 150 -200 L 150 -200 Z " fill-rule="evenodd" id="human phrase" fill="rgb(209,209,209)"/></svg>