<?xml version="1.0" encoding="UTF-8" standalone="no"?><!-- Generator: Gravit.io --><svg xmlns="http://www.w3.org/2000/svg" xmlns:xlink="http://www.w3.org/1999/xlink" style="isolation:isolate" viewBox="0 0 999.95 999.95" width="999.95pt" height="999.95pt"><path d=" M 74.68 43.75 L 260.92 43.75 C 266.72 43.75 272.29 41.44 276.39 37.34 C 280.49 33.24 282.8 27.67 282.8 21.87 C 282.8 16.07 280.49 10.5 276.39 6.4 C 272.29 2.3 266.72 0 260.92 0 L 31.43 0 C 23.1 0 15.1 3.31 9.2 9.2 C 3.31 15.1 0 23.1 0 31.43 L 0 260.92 C 0 266.72 2.3 272.29 6.4 276.39 C 10.5 280.49 16.07 282.8 21.87 282.8 C 27.67 282.8 33.24 280.49 37.34 276.39 C 41.44 272.29 43.75 266.72 43.75 260.92 L 43.75 260.92 L 43.75 74.68 L 388.88 419.82 C 392.98 423.92 398.55 426.23 404.35 426.23 C 410.15 426.23 415.72 423.92 419.82 419.82 C 423.92 415.72 426.23 410.15 426.23 404.35 C 426.23 398.55 423.92 392.98 419.82 388.88 L 74.68 43.75 L 74.68 43.75 Z  M 956.2 74.67 L 956.2 260.92 C 956.2 266.72 958.5 272.29 962.6 276.39 C 966.7 280.49 972.27 282.8 978.07 282.8 C 983.87 282.8 989.44 280.49 993.54 276.39 C 997.64 272.29 999.95 266.72 999.95 260.92 L 999.95 31.43 C 999.94 23.1 996.63 15.1 990.74 9.2 C 984.84 3.31 976.84 0 968.51 0 L 739.02 0 C 733.22 0 727.65 2.3 723.55 6.4 C 719.45 10.5 717.15 16.07 717.15 21.87 C 717.15 27.67 719.45 33.24 723.55 37.34 C 727.65 41.44 733.22 43.75 739.02 43.75 L 925.26 43.75 L 580.12 388.88 C 576.02 392.98 573.72 398.55 573.72 404.35 C 573.72 410.15 576.02 415.72 580.12 419.82 C 584.22 423.92 589.79 426.23 595.59 426.23 C 601.39 426.23 606.96 423.92 611.06 419.82 L 956.2 74.67 L 956.2 74.67 L 956.2 74.67 Z  M 43.75 925.26 L 43.75 925.26 L 43.75 739.02 C 43.75 733.22 41.44 727.65 37.34 723.55 C 33.24 719.45 27.67 717.15 21.87 717.15 C 16.07 717.15 10.5 719.45 6.4 723.55 C 2.3 727.65 0 733.22 0 739.02 L 0 968.51 C 0 976.84 3.31 984.84 9.2 990.74 C 15.1 996.63 23.1 999.95 31.43 999.95 L 260.92 999.95 C 266.72 999.95 272.29 997.64 276.39 993.54 C 280.49 989.44 282.8 983.87 282.8 978.07 C 282.8 972.27 280.49 966.7 276.39 962.6 C 272.29 958.5 266.72 956.2 260.92 956.2 L 74.67 956.2 L 419.82 611.06 C 423.92 606.96 426.23 601.39 426.23 595.59 C 426.23 589.79 423.92 584.22 419.82 580.12 C 415.72 576.02 410.15 573.72 404.35 573.72 C 398.55 573.72 392.98 576.02 388.88 580.12 L 43.75 925.26 L 43.75 925.26 L 43.75 925.26 Z  M 956.2 925.27 L 956.2 739.02 C 956.2 733.22 958.5 727.65 962.6 723.55 C 966.7 719.45 972.27 717.15 978.07 717.15 C 983.87 717.15 989.44 719.45 993.54 723.55 C 997.64 727.65 999.95 733.22 999.95 739.02 L 999.95 968.51 C 999.94 976.84 996.63 984.84 990.74 990.74 C 984.84 996.63 976.84 999.94 968.51 999.95 L 739.02 999.95 C 733.22 999.95 727.65 997.64 723.55 993.54 C 719.45 989.44 717.15 983.87 717.15 978.07 C 717.15 972.27 719.45 966.7 723.55 962.6 C 727.65 958.5 733.22 956.2 739.02 956.2 L 925.27 956.2 L 580.12 611.06 C 576.02 606.96 573.72 601.39 573.72 595.59 C 573.72 589.79 576.02 584.22 580.12 580.12 C 584.22 576.02 589.79 573.72 595.59 573.72 C 601.39 573.72 606.96 576.02 611.06 580.12 L 956.2 925.27 L 956.2 925.27 L 956.2 925.27 L 956.2 925.27 Z  M 474.04 499.97 C 474.04 493.09 476.77 486.49 481.63 481.63 C 486.49 476.77 493.09 474.04 499.97 474.04 C 506.85 474.04 513.45 476.77 518.31 481.63 C 523.17 486.49 525.91 493.09 525.91 499.97 C 525.9 506.85 523.17 513.45 518.31 518.31 C 513.45 523.17 506.85 525.91 499.97 525.91 C 493.09 525.91 486.49 523.17 481.63 518.31 C 476.77 513.45 474.03 506.85 474.03 499.97 L 474.04 499.97 L 474.04 499.97 L 474.04 499.97 Z  M 430.29 499.97 C 430.29 481.5 437.63 463.76 450.7 450.7 C 463.76 437.63 481.5 430.28 499.97 430.28 C 518.44 430.29 536.18 437.63 549.24 450.7 C 562.31 463.76 569.66 481.5 569.66 499.97 C 569.66 518.44 562.31 536.18 549.24 549.24 C 536.18 562.31 518.44 569.66 499.97 569.66 C 481.5 569.66 463.76 562.31 450.7 549.24 C 437.63 536.18 430.29 518.44 430.28 499.97 L 430.29 499.97 L 430.29 499.97 L 430.29 499.97 Z " fill-rule="evenodd" id="normalization" fill="rgb(209,209,209)"/></svg>