<?xml version="1.0" encoding="UTF-8" standalone="no"?><!-- Generator: Gravit.io --><svg xmlns="http://www.w3.org/2000/svg" xmlns:xlink="http://www.w3.org/1999/xlink" style="isolation:isolate" viewBox="93.45 321.55 807 1000" width="807pt" height="1000pt"><path d=" M 865.45 918.05 M 900.45 918.04 C 900.45 918.04 900.45 918.04 900.45 918.05 L 900.45 918.04 C 900.45 918.04 900.45 918.04 900.45 918.05 L 900.45 918.05 L 900.45 918.04 L 900.45 918.04 Z  M 128.45 918.05 M 93.45 918.05 C 93.45 918.05 93.45 918.05 93.45 918.05 L 93.45 918.05 L 93.45 918.05 C 93.45 918.05 93.45 918.05 93.45 918.05 C 93.44 890.75 96.19 863.53 101.65 836.79 C 106.97 810.82 114.86 785.45 125.19 761.04 C 145.5 713.12 174.87 669.57 211.69 632.79 C 248.47 595.97 292.02 566.6 339.94 546.3 C 364.35 535.96 389.72 528.08 415.69 522.76 C 442.43 517.29 469.66 514.54 496.96 514.55 C 501.6 514.55 506.05 516.39 509.33 519.68 C 512.61 522.96 514.45 527.41 514.45 532.05 C 514.45 536.69 512.6 541.15 509.32 544.43 C 506.04 547.7 501.58 549.55 496.94 549.55 C 472.01 549.54 447.14 552.05 422.71 557.05 C 399.02 561.9 375.86 569.1 353.59 578.52 C 309.82 597.08 270.04 623.91 236.44 657.54 C 202.8 691.14 175.97 730.92 157.42 774.69 C 147.99 796.96 140.8 820.11 135.94 843.8 C 130.95 868.23 128.44 893.1 128.45 918.04 C 128.45 918.04 128.45 918.04 128.45 918.05 L 128.45 918.05 L 128.45 918.05 C 128.44 942.99 130.95 967.86 135.94 992.29 C 140.8 1015.98 147.99 1039.14 157.42 1061.41 C 175.97 1105.18 202.8 1144.96 236.44 1178.56 C 270.04 1212.2 309.82 1239.03 353.59 1257.58 C 375.86 1267.01 399.01 1274.2 422.71 1279.05 C 447.14 1284.05 472.01 1286.56 496.95 1286.55 C 521.89 1286.56 546.76 1284.05 571.19 1279.05 C 594.89 1274.2 618.04 1267 640.31 1257.58 C 684.09 1239.02 723.87 1212.19 757.47 1178.56 C 791.1 1144.95 817.93 1105.17 836.48 1061.4 C 845.91 1039.13 853.1 1015.98 857.96 992.28 C 862.95 967.86 865.46 942.99 865.45 918.05 C 865.45 918.05 865.45 918.05 865.45 918.05 L 865.45 918.05 L 865.45 918.04 C 865.46 893.1 862.95 868.23 857.96 843.8 C 853.1 820.11 845.91 796.95 836.48 774.68 C 834.67 770.41 834.64 765.59 836.38 761.29 C 838.12 756.99 841.5 753.55 845.78 751.74 C 850.05 749.93 854.87 749.9 859.17 751.64 C 863.47 753.38 866.9 756.76 868.71 761.04 C 879.04 785.45 886.93 810.82 892.25 836.79 C 897.71 863.53 900.46 890.75 900.45 918.05 C 900.46 945.34 897.71 972.56 892.25 999.3 C 886.93 1025.27 879.04 1050.64 868.71 1075.05 C 848.4 1122.97 819.03 1166.52 782.21 1203.3 C 745.43 1240.12 701.88 1269.49 653.96 1289.8 C 629.55 1300.14 604.18 1308.02 578.21 1313.34 C 551.47 1318.81 524.24 1321.56 496.95 1321.55 C 469.66 1321.56 442.43 1318.81 415.69 1313.34 C 389.72 1308.02 364.35 1300.14 339.94 1289.81 C 292.02 1269.5 248.47 1240.13 211.69 1203.31 C 174.87 1166.53 145.5 1122.98 125.19 1075.06 C 114.86 1050.65 106.97 1025.27 101.65 999.31 C 96.19 972.57 93.44 945.34 93.45 918.05 L 93.45 918.05 Z  M 637.48 532.05 L 454.78 351.49 C 451.48 348.23 449.61 343.79 449.58 339.15 C 449.56 334.51 451.37 330.05 454.64 326.75 C 457.9 323.45 462.34 321.57 466.98 321.55 C 471.62 321.52 476.08 323.34 479.38 326.6 L 670.76 515.74 C 675.12 520.04 677.58 525.92 677.58 532.05 C 677.58 538.17 675.12 544.05 670.76 548.36 L 479.38 737.49 C 476.08 740.75 471.62 742.57 466.98 742.55 C 462.34 742.52 457.9 740.65 454.64 737.35 C 451.37 734.05 449.56 729.58 449.58 724.94 C 449.61 720.3 451.48 715.86 454.78 712.6 L 637.48 532.05 Z " fill-rule="evenodd" id="restart" fill="rgb(209,209,209)"/></svg>