<?xml version="1.0" encoding="UTF-8" standalone="no"?><!-- Generator: Gravit.io --><svg xmlns="http://www.w3.org/2000/svg" xmlns:xlink="http://www.w3.org/1999/xlink" style="isolation:isolate" viewBox="-17.5 -17.5 800 1000" width="800pt" height="1000pt"><path d=" M 79.66 625.77 L 500.41 625.77 C 505.05 625.77 509.5 627.61 512.78 630.89 C 516.06 634.18 517.91 638.63 517.91 643.27 C 517.91 647.91 516.06 652.36 512.78 655.64 C 509.5 658.92 505.05 660.77 500.41 660.77 L 79.66 660.77 C 75.02 660.77 70.56 658.92 67.28 655.64 C 64 652.36 62.16 647.91 62.16 643.27 C 62.16 638.63 64 634.18 67.28 630.89 C 70.56 627.61 75.02 625.77 79.66 625.77 L 79.66 625.77 L 79.66 625.77 L 79.66 625.77 L 79.66 625.77 L 79.66 625.77 L 79.66 625.77 L 79.66 625.77 Z  M 500.41 304.13 C 505.05 304.13 509.5 305.98 512.78 309.26 C 516.06 312.54 517.91 316.99 517.91 321.63 C 517.91 326.27 516.06 330.73 512.78 334.01 C 509.5 337.29 505.05 339.13 500.41 339.13 L 79.66 339.13 C 75.02 339.13 70.56 337.29 67.28 334.01 C 64 330.73 62.16 326.27 62.16 321.63 C 62.16 316.99 64 312.54 67.28 309.26 C 70.56 305.98 75.02 304.13 79.66 304.13 L 500.41 304.13 L 500.41 304.13 L 500.41 304.13 L 500.41 304.13 L 500.41 304.13 L 500.41 304.13 L 500.41 304.13 L 500.41 304.13 L 500.41 304.13 L 500.41 304.13 L 500.41 304.13 L 500.41 304.13 L 500.41 304.13 L 500.41 304.13 Z  M 500.41 545.38 C 505.05 545.38 509.5 547.23 512.78 550.51 C 516.06 553.79 517.91 558.24 517.91 562.88 C 517.91 567.52 516.06 571.98 512.78 575.26 C 509.5 578.54 505.05 580.38 500.41 580.38 L 79.66 580.38 C 75.02 580.38 70.56 578.54 67.28 575.26 C 64 571.98 62.16 567.52 62.16 562.88 C 62.16 558.24 64 553.79 67.28 550.51 C 70.56 547.23 75.02 545.38 79.66 545.38 L 500.41 545.38 L 500.41 545.38 L 500.41 545.38 L 500.41 545.38 L 500.41 545.38 L 500.41 545.38 L 500.41 545.38 L 500.41 545.38 L 500.41 545.38 Z  M 79.66 143.27 L 500.41 143.27 C 505.05 143.27 509.5 145.11 512.78 148.39 C 516.06 151.68 517.91 156.13 517.91 160.77 C 517.91 165.41 516.06 169.86 512.78 173.14 C 509.5 176.42 505.05 178.27 500.41 178.27 L 79.66 178.27 C 75.02 178.27 70.56 176.42 67.28 173.14 C 64 169.86 62.16 165.41 62.16 160.77 C 62.16 156.13 64 151.68 67.28 148.39 C 70.56 145.11 75.02 143.27 79.66 143.27 L 79.66 143.27 L 79.66 143.27 L 79.66 143.27 L 79.66 143.27 L 79.66 143.27 L 79.66 143.27 L 79.66 143.27 L 79.66 143.27 L 79.66 143.27 L 79.66 143.27 L 79.66 143.27 L 79.66 143.27 L 79.66 143.27 L 79.66 143.27 L 79.66 143.27 L 79.66 143.27 L 79.66 143.27 Z  M 500.41 62.88 C 505.05 62.88 509.5 64.73 512.78 68.01 C 516.06 71.29 517.91 75.74 517.91 80.38 C 517.91 85.02 516.06 89.48 512.78 92.76 C 509.5 96.04 505.05 97.88 500.41 97.88 L 79.66 97.88 C 75.02 97.88 70.56 96.04 67.28 92.76 C 64 89.48 62.16 85.02 62.16 80.38 C 62.16 75.74 64 71.29 67.28 68.01 C 70.56 64.73 75.02 62.88 79.66 62.88 L 500.41 62.88 L 500.41 62.88 L 500.41 62.88 L 500.41 62.88 L 500.41 62.88 L 500.41 62.88 L 500.41 62.88 L 500.41 62.88 L 500.41 62.88 L 500.41 62.88 L 500.41 62.88 L 500.41 62.88 L 500.41 62.88 L 500.41 62.88 L 500.41 62.88 L 500.41 62.88 L 500.41 62.88 L 500.41 62.88 L 500.41 62.88 Z  M 685.34 62.88 C 689.98 62.88 694.44 64.73 697.72 68.01 C 701 71.29 702.84 75.74 702.84 80.38 C 702.84 85.02 701 89.48 697.72 92.76 C 694.44 96.04 689.98 97.88 685.34 97.88 L 580.16 97.88 C 575.52 97.88 571.06 96.04 567.78 92.76 C 564.5 89.48 562.66 85.02 562.66 80.38 C 562.66 75.74 564.5 71.29 567.78 68.01 C 571.06 64.73 575.52 62.88 580.16 62.88 L 685.34 62.88 L 685.34 62.88 L 685.34 62.88 L 685.34 62.88 L 685.34 62.88 L 685.34 62.88 L 685.34 62.88 L 685.34 62.88 L 685.34 62.88 L 685.34 62.88 L 685.34 62.88 L 685.34 62.88 L 685.34 62.88 L 685.34 62.88 L 685.34 62.88 L 685.34 62.88 L 685.34 62.88 Z  M 685.34 625.77 C 689.98 625.77 694.44 627.61 697.72 630.89 C 701 634.18 702.84 638.63 702.84 643.27 C 702.84 647.91 701 652.36 697.72 655.64 C 694.44 658.92 689.98 660.77 685.34 660.77 L 580.16 660.77 C 575.52 660.77 571.06 658.92 567.78 655.64 C 564.5 652.36 562.66 647.91 562.66 643.27 C 562.66 638.63 564.5 634.18 567.78 630.89 C 571.06 627.61 575.52 625.77 580.16 625.77 L 685.34 625.77 L 685.34 625.77 L 685.34 625.77 L 685.34 625.77 L 685.34 625.77 L 685.34 625.77 Z  M 685.34 384.52 C 689.98 384.52 694.44 386.36 697.72 389.64 C 701 392.93 702.84 397.38 702.84 402.02 C 702.84 406.66 701 411.11 697.72 414.39 C 694.44 417.67 689.98 419.52 685.34 419.52 L 580.16 419.52 C 575.52 419.52 571.06 417.67 567.78 414.39 C 564.5 411.11 562.66 406.66 562.66 402.02 C 562.66 397.38 564.5 392.93 567.78 389.64 C 571.06 386.36 575.52 384.52 580.16 384.52 L 685.34 384.52 L 685.34 384.52 L 685.34 384.52 L 685.34 384.52 L 685.34 384.52 L 685.34 384.52 L 685.34 384.52 L 685.34 384.52 L 685.34 384.52 L 685.34 384.52 L 685.34 384.52 Z  M 79.66 384.52 L 500.41 384.52 C 505.05 384.52 509.5 386.36 512.78 389.64 C 516.06 392.93 517.91 397.38 517.91 402.02 C 517.91 406.66 516.06 411.11 512.78 414.39 C 509.5 417.67 505.05 419.52 500.41 419.52 L 79.66 419.52 C 75.02 419.52 70.56 417.67 67.28 414.39 C 64 411.11 62.16 406.66 62.16 402.02 C 62.16 397.38 64 392.93 67.28 389.64 C 70.56 386.36 75.02 384.52 79.66 384.52 L 79.66 384.52 L 79.66 384.52 L 79.66 384.52 L 79.66 384.52 L 79.66 384.52 L 79.66 384.52 L 79.66 384.52 L 79.66 384.52 L 79.66 384.52 L 79.66 384.52 L 79.66 384.52 L 79.66 384.52 Z  M 685.34 143.27 C 689.98 143.27 694.44 145.11 697.72 148.39 C 701 151.68 702.84 156.13 702.84 160.77 C 702.84 165.41 701 169.86 697.72 173.14 C 694.44 176.42 689.98 178.27 685.34 178.27 L 580.16 178.27 C 575.52 178.27 571.06 176.42 567.78 173.14 C 564.5 169.86 562.66 165.41 562.66 160.77 C 562.66 156.13 564.5 151.68 567.78 148.39 C 571.06 145.11 575.52 143.27 580.16 143.27 L 685.34 143.27 L 685.34 143.27 L 685.34 143.27 L 685.34 143.27 L 685.34 143.27 L 685.34 143.27 L 685.34 143.27 L 685.34 143.27 L 685.34 143.27 L 685.34 143.27 L 685.34 143.27 L 685.34 143.27 L 685.34 143.27 L 685.34 143.27 L 685.34 143.27 L 685.34 143.27 Z  M 685.34 304.13 C 689.98 304.13 694.44 305.98 697.72 309.26 C 701 312.54 702.84 316.99 702.84 321.63 C 702.84 326.27 701 330.73 697.72 334.01 C 694.44 337.29 689.98 339.13 685.34 339.13 L 580.16 339.13 C 575.52 339.13 571.06 337.29 567.78 334.01 C 564.5 330.73 562.66 326.27 562.66 321.63 C 562.66 316.99 564.5 312.54 567.78 309.26 C 571.06 305.98 575.52 304.13 580.16 304.13 L 685.34 304.13 L 685.34 304.13 L 685.34 304.13 L 685.34 304.13 L 685.34 304.13 L 685.34 304.13 L 685.34 304.13 L 685.34 304.13 L 685.34 304.13 L 685.34 304.13 L 685.34 304.13 L 685.34 304.13 Z  M 685.34 545.38 C 689.98 545.38 694.44 547.23 697.72 550.51 C 701 553.79 702.84 558.24 702.84 562.88 C 702.84 567.52 701 571.98 697.72 575.26 C 694.44 578.54 689.98 580.38 685.34 580.38 L 580.16 580.38 C 575.52 580.38 571.06 578.54 567.78 575.26 C 564.5 571.98 562.66 567.52 562.66 562.88 C 562.66 558.24 564.5 553.79 567.78 550.51 C 571.06 547.23 575.52 545.38 580.16 545.38 L 685.34 545.38 L 685.34 545.38 L 685.34 545.38 L 685.34 545.38 L 685.34 545.38 L 685.34 545.38 L 685.34 545.38 Z  M 500.41 786.63 C 505.05 786.63 509.5 788.48 512.78 791.76 C 516.06 795.04 517.91 799.49 517.91 804.13 C 517.91 808.77 516.06 813.23 512.78 816.51 C 509.5 819.79 505.05 821.63 500.41 821.63 L 79.66 821.63 C 75.02 821.63 70.56 819.79 67.28 816.51 C 64 813.23 62.16 808.77 62.16 804.13 C 62.16 799.49 64 795.04 67.28 791.76 C 70.56 788.48 75.02 786.63 79.66 786.63 L 500.41 786.63 L 500.41 786.63 L 500.41 786.63 L 500.41 786.63 Z  M 79.66 867.02 L 500.41 867.02 C 505.05 867.02 509.5 868.86 512.78 872.14 C 516.06 875.43 517.91 879.88 517.91 884.52 C 517.91 889.16 516.06 893.61 512.78 896.89 C 509.5 900.17 505.05 902.02 500.41 902.02 L 79.66 902.02 C 75.02 902.02 70.56 900.17 67.28 896.89 C 64 893.61 62.16 889.16 62.16 884.52 C 62.16 879.88 64 875.43 67.28 872.14 C 70.56 868.86 75.02 867.02 79.66 867.02 L 79.66 867.02 L 79.66 867.02 Z  M 685.34 786.63 C 689.98 786.63 694.44 788.48 697.72 791.76 C 701 795.04 702.84 799.49 702.84 804.13 C 702.84 808.77 701 813.23 697.72 816.51 C 694.44 819.79 689.98 821.63 685.34 821.63 L 580.16 821.63 C 575.52 821.63 571.06 819.79 567.78 816.51 C 564.5 813.23 562.66 808.77 562.66 804.13 C 562.66 799.49 564.5 795.04 567.78 791.76 C 571.06 788.48 575.52 786.63 580.16 786.63 L 685.34 786.63 L 685.34 786.63 Z  M 716.97 741.25 L 716.97 741.25 L 48.03 741.25 L 48.03 741.25 L 48.03 741.25 C 39.94 741.25 32.17 744.47 26.44 750.19 C 20.72 755.92 17.5 763.69 17.5 771.78 L 17.5 916.97 C 17.5 925.06 20.72 932.83 26.44 938.56 C 32.17 944.28 39.94 947.5 48.03 947.5 L 716.97 947.5 C 725.06 947.5 732.83 944.28 738.56 938.56 C 744.28 932.83 747.5 925.06 747.5 916.97 L 747.5 771.78 C 747.5 763.69 744.28 755.92 738.56 750.19 C 732.83 744.47 725.06 741.25 716.97 741.25 L 716.97 741.25 L 716.97 741.25 L 716.97 741.25 L 716.97 741.25 Z  M 716.97 706.25 C 725.06 706.25 732.83 703.03 738.56 697.31 C 744.28 691.58 747.5 683.81 747.5 675.72 L 747.5 530.53 C 747.5 522.44 744.28 514.67 738.56 508.94 C 732.83 503.22 725.06 500 716.97 500 L 716.97 500 L 48.03 500 L 48.03 500 L 48.03 500 L 48.03 500 L 48.03 500 L 48.03 500 L 48.03 500 C 39.94 500 32.17 503.22 26.44 508.94 C 20.72 514.67 17.5 522.44 17.5 530.53 L 17.5 675.72 C 17.5 683.81 20.72 691.58 26.44 697.31 C 32.17 703.03 39.94 706.25 48.03 706.25 L 716.97 706.25 L 716.97 706.25 L 716.97 706.25 L 716.97 706.25 L 716.97 706.25 L 716.97 706.25 Z  M 716.97 258.75 L 716.97 258.75 L 48.03 258.75 L 48.03 258.75 L 48.03 258.75 C 39.94 258.75 32.17 261.97 26.44 267.69 C 20.72 273.42 17.5 281.19 17.5 289.28 L 17.5 434.47 C 17.5 442.56 20.72 450.33 26.44 456.06 C 32.17 461.78 39.94 465 48.03 465 L 716.97 465 C 725.06 465 732.83 461.78 738.56 456.06 C 744.28 450.33 747.5 442.56 747.5 434.47 L 747.5 289.28 C 747.5 281.19 744.28 273.42 738.56 267.69 C 732.83 261.97 725.06 258.75 716.97 258.75 L 716.97 258.75 L 716.97 258.75 L 716.97 258.75 L 716.97 258.75 L 716.97 258.75 L 716.97 258.75 L 716.97 258.75 L 716.97 258.75 L 716.97 258.75 L 716.97 258.75 L 716.97 258.75 L 716.97 258.75 L 716.97 258.75 L 716.97 258.75 Z  M 716.97 223.75 C 725.06 223.75 732.83 220.53 738.56 214.81 C 744.28 209.08 747.5 201.31 747.5 193.22 L 747.5 48.03 C 747.5 39.94 744.28 32.17 738.56 26.44 C 732.83 20.72 725.06 17.5 716.97 17.5 L 48.03 17.5 L 48.03 17.5 L 48.03 17.5 L 48.03 17.5 L 48.03 17.5 L 48.03 17.5 C 39.94 17.5 32.17 20.72 26.44 26.44 C 20.72 32.17 17.5 39.94 17.5 48.03 L 17.5 193.22 C 17.5 201.31 20.72 209.08 26.44 214.81 C 32.17 220.53 39.94 223.75 48.03 223.75 L 716.97 223.75 L 716.97 223.75 L 716.97 223.75 L 716.97 223.75 L 716.97 223.75 L 716.97 223.75 L 716.97 223.75 L 716.97 223.75 L 716.97 223.75 L 716.97 223.75 L 716.97 223.75 L 716.97 223.75 L 716.97 223.75 L 716.97 223.75 L 716.97 223.75 L 716.97 223.75 Z  M 761.542 723.75 C 762.144 723.203 762.732 722.638 763.31 722.06 C 775.59 709.77 782.5 693.09 782.5 675.72 L 782.5 530.53 C 782.5 513.16 775.59 496.48 763.31 484.19 C 762.732 483.612 762.144 483.047 761.542 482.5 C 762.144 481.953 762.732 481.388 763.31 480.81 C 775.59 468.52 782.5 451.84 782.5 434.47 L 782.5 289.28 C 782.5 271.91 775.59 255.23 763.31 242.94 C 762.732 242.362 762.144 241.797 761.542 241.25 L 761.542 241.25 L 761.542 241.25 L 761.542 241.25 L 761.542 241.25 L 761.542 241.25 C 762.144 240.703 762.732 240.138 763.31 239.56 C 775.59 227.27 782.5 210.59 782.5 193.22 L 782.5 48.03 C 782.5 30.66 775.59 13.98 763.31 1.69 C 751.02 -10.59 734.34 -17.5 716.97 -17.5 L 48.03 -17.5 L 48.03 -17.5 L 48.03 -17.5 L 48.03 -17.5 L 48.03 -17.5 L 48.03 -17.5 C 30.66 -17.5 13.98 -10.59 1.69 1.69 C -10.59 13.98 -17.5 30.66 -17.5 48.03 L -17.5 193.22 C -17.5 210.59 -10.59 227.27 1.69 239.56 C 2.268 240.138 2.856 240.703 3.458 241.25 L 3.458 241.25 C 2.856 241.797 2.268 242.362 1.69 242.94 C -10.59 255.23 -17.5 271.91 -17.5 289.28 L -17.5 434.47 C -17.5 451.84 -10.59 468.52 1.69 480.81 C 2.268 481.388 2.856 481.953 3.458 482.5 L 3.458 482.5 L 3.458 482.5 L 3.458 482.5 L 3.458 482.5 L 3.458 482.5 L 3.458 482.5 C 2.856 483.047 2.268 483.612 1.69 484.19 C -10.59 496.48 -17.5 513.16 -17.5 530.53 L -17.5 675.72 C -17.5 693.09 -10.59 709.77 1.69 722.06 C 2.268 722.638 2.856 723.203 3.458 723.75 L 3.458 723.75 C 2.856 724.297 2.268 724.862 1.69 725.44 C -10.59 737.73 -17.5 754.41 -17.5 771.78 L -17.5 916.97 C -17.5 934.34 -10.59 951.02 1.69 963.31 C 13.98 975.59 30.66 982.5 48.03 982.5 L 716.97 982.5 C 734.34 982.5 751.02 975.59 763.31 963.31 C 775.59 951.02 782.5 934.34 782.5 916.97 L 782.5 771.78 C 782.5 754.41 775.59 737.73 763.31 725.44 C 762.732 724.862 762.144 724.297 761.542 723.75 L 761.542 723.75 L 761.542 723.75 L 761.542 723.75 L 761.542 723.75 Z  M 685.34 867.02 C 689.98 867.02 694.44 868.86 697.72 872.14 C 701 875.43 702.84 879.88 702.84 884.52 C 702.84 889.16 701 893.61 697.72 896.89 C 694.44 900.17 689.98 902.02 685.34 902.02 L 580.16 902.02 C 575.52 902.02 571.06 900.17 567.78 896.89 C 564.5 893.61 562.66 889.16 562.66 884.52 C 562.66 879.88 564.5 875.43 567.78 872.14 C 571.06 868.86 575.52 867.02 580.16 867.02 L 685.34 867.02 Z " fill-rule="evenodd" id="server" fill="rgb(209,209,209)"/></svg>